M48
METRIC,LZ,000.000
;FILE_FORMAT=3:3
;TYPE=PLATED
;Layer: PTH_Through
;EasyEDA v6.5.34, 2023-08-29 15:51:40
;c19b9e491f004e949dcb7f38ecc8bf32,24d7ea87aaaa49e9b18beb810eddf566,10
;Gerber Generator version 0.2
;Holesize 1 = 0.254 mm
T01C0.254
;Holesize 2 = 0.305 mm
T02C0.305
;Holesize 3 = 0.701 mm
T03C0.701
;Holesize 4 = 2.000 mm
T04C2.000
%
G05
G90
T01
X007930Y002008
X036505Y-007771
X005080Y-003175
X009652Y-005334
X013518Y-020090
X012883Y-003834
X015042Y-002437
X017582Y-001167
X041077Y-012089
X028377Y-000405
X027594Y-002205
X019908Y006174
X015931Y010517
X015042Y013565
X007041Y017248
X007422Y012676
X008819Y012549
X010851Y017756
X-002865Y028043
X032695Y-003834
X-001214Y-020090
X015748Y006096
X014530Y005419
X015359Y004484
X016231Y003592
X022408Y004421
X017201Y002643
X023121Y-000315
X045014Y-015899
X-009215Y-016915
X-008001Y-008763
X-008064Y-012411
X-008453Y000992
X-009215Y004548
X-008199Y005691
X002723Y002008
X005009Y002135
X003358Y025630
X-002484Y030075
X-002865Y019407
X000310Y014708
X030155Y-004596
X-000693Y030051
X-005151Y034266
X018288Y-002286
X008692Y017629
X011232Y012676
X013137Y009628
X010343Y-019963
X023805Y-004723
X005263Y-011073
X020066Y-005969
X002342Y-017042
X005136Y-017169
X-000198Y-018058
X000437Y-012343
X-002484Y-004215
X-000833Y-005866
X000183Y-008660
X-006985Y-008128
X-005405Y-009168
X015042Y-016788
X-005913Y-017804
X-006294Y-019709
X-003373Y006834
X-002484Y006453
X031044Y-013994
X020447Y-018161
X011232Y015978
X-008326Y010390
X-006489Y011088
X-006548Y020931
X-009135Y015687
X-006421Y027662
X-009088Y024487
X000945Y018645
X031679Y-007771
X026218Y-002945
X029520Y-013994
X036505Y-009676
X040950Y-013867
X025075Y-008660
X019868Y008104
X015804Y007977
X014679Y009198
X010724Y007596
X026091Y-004850
X027813Y-008636
X022662Y-008914
X025075Y-011454
X034671Y-010541
X033147Y-016510
X039934Y-019582
X022027Y-013994
X024567Y004294
X006279Y021566
X000945Y025884
X-001468Y023217
X-001595Y025757
X001453Y022836
X038918Y-013994
X029972Y-008636
X003866Y020677
X-001787Y012790
X017703Y-019719
X016637Y-008636
X013843Y-008636
X013970Y-005842
X016637Y-005969
X020193Y-010541
X022352Y-011430
X023749Y-012700
X020447Y-013970
X024638Y-016764
X026924Y-016764
X024130Y-018288
X024444Y-020160
X027153Y-020160
X027432Y-018288
X020320Y-020193
X027305Y-014859
X024384Y-014859
X033655Y-014859
X036703Y-014859
X036576Y-016510
X036703Y-018161
X033147Y-018288
X-007620Y-003048
X-007620Y-006223
X006985Y009779
X-007239Y015748
X-007366Y024511
X-009271Y009652
X-000127Y016764
X020447Y002413
X021463Y-001524
X026924Y-013208
X033655Y-012827
X036957Y-012954
X005207Y-013335
X010414Y-013208
X007874Y-012573
X008128Y-010033
X008509Y-008128
X028448Y-010668
X032004Y-010668
X021844Y-005461
X012600Y006993
X013608Y006111
T02
X001580Y-012597
X-006421Y-012343
X002850Y005437
X000310Y005437
X000056Y004675
X006152Y-017296
X001016Y-001905
X-003119Y010009
X-006548Y009882
X-006421Y006453
X-003500Y001500
X-008199Y003500
X000056Y-001802
X000762Y-003048
X001961Y-006247
X007168Y-000659
X011867Y-001929
X010057Y-001763
X010343Y011787
X-002992Y-003453
X-005913Y-003453
X000056Y-016534
X-006294Y-016534
X002794Y-001905
X-008453Y-001548
X002850Y011660
X002850Y012803
X-002732Y009262
X-000833Y-006882
X006279Y008104
X002749Y010333
X008692Y000611
X008692Y-001421
X008438Y001373
X021586Y003529
X-004262Y-007644
X-004770Y-009930
X-001849Y-009930
X014971Y-014741
X007549Y-019328
X008382Y-005715
X006223Y-004445
X002723Y016359
X002723Y018391
X003683Y-005461
X003683Y-004191
X003358Y-009930
X004572Y-004191
X004572Y-005461
X004095Y-012600
X006858Y-009525
X006858Y-007874
T03
X-007439Y-018791G85X-007439Y-018091
X001201Y-018791G85X001201Y-018091
X001201Y-014761G85X001201Y-013761
X-007439Y-014761G85X-007439Y-013761
T04
X022321Y007141
X018079Y011383
X013836Y015626
X009593Y019869
X005351Y024111
X026564Y002898
X030807Y-001345
X035049Y-005587
X039292Y-009830
X043535Y-014072
X001108Y028354
X-003134Y032597
X041712Y-018312
X-007183Y030837
M30
