G04 Layer: TopSilkscreenLayer*
G04 EasyEDA v6.5.34, 2023-08-29 15:51:40*
G04 c19b9e491f004e949dcb7f38ecc8bf32,24d7ea87aaaa49e9b18beb810eddf566,10*
G04 Gerber Generator version 0.2*
G04 Scale: 100 percent, Rotated: No, Reflected: No *
G04 Dimensions in millimeters *
G04 leading zeros omitted , absolute positions ,4 integer and 5 decimal *
%FSLAX45Y45*%
%MOMM*%

%ADD10C,0.1524*%
%ADD11C,1.8000*%
%ADD12C,0.2540*%
%ADD13C,0.1500*%
%ADD14C,0.1200*%
%ADD15C,0.2000*%
%ADD16C,0.3000*%
%ADD17C,0.0762*%
%ADD18C,0.0196*%

%LPD*%
G36*
X-603504Y3402939D02*
G01*
X-609142Y3402634D01*
X-614172Y3401618D01*
X-618540Y3399942D01*
X-622300Y3397605D01*
X-625348Y3394913D01*
X-627735Y3391814D01*
X-629412Y3388410D01*
X-630428Y3384651D01*
X-631190Y3384651D01*
X-631190Y3401161D01*
X-650494Y3401161D01*
X-650494Y3342741D01*
X-609092Y3342741D01*
X-609092Y3361791D01*
X-628650Y3361791D01*
X-628548Y3369005D01*
X-627786Y3372408D01*
X-627126Y3373983D01*
X-625195Y3376574D01*
X-622554Y3378809D01*
X-619506Y3380587D01*
X-615950Y3381857D01*
X-612190Y3382416D01*
X-608076Y3382619D01*
X-602996Y3382264D01*
X-598474Y3381095D01*
X-594512Y3379215D01*
X-591058Y3376523D01*
X-588365Y3372916D01*
X-586486Y3368548D01*
X-585317Y3363264D01*
X-584962Y3357219D01*
X-584962Y3340455D01*
X-585317Y3334308D01*
X-586486Y3329025D01*
X-588365Y3324656D01*
X-591058Y3321151D01*
X-594512Y3318357D01*
X-598474Y3316376D01*
X-602996Y3315208D01*
X-608076Y3314801D01*
X-612394Y3315055D01*
X-616204Y3315868D01*
X-619506Y3317240D01*
X-622300Y3319119D01*
X-624687Y3321405D01*
X-626719Y3323894D01*
X-628497Y3326587D01*
X-629920Y3329533D01*
X-648462Y3318865D01*
X-645261Y3313277D01*
X-641502Y3308400D01*
X-637235Y3304235D01*
X-632460Y3300831D01*
X-621284Y3296259D01*
X-608076Y3294735D01*
X-602843Y3294938D01*
X-597916Y3295650D01*
X-593191Y3296716D01*
X-588772Y3298291D01*
X-584606Y3300272D01*
X-580694Y3302660D01*
X-577088Y3305505D01*
X-573786Y3308705D01*
X-570890Y3312363D01*
X-568299Y3316478D01*
X-566064Y3320999D01*
X-564134Y3325977D01*
X-562559Y3331260D01*
X-561441Y3336899D01*
X-560781Y3342944D01*
X-560578Y3349345D01*
X-560781Y3355746D01*
X-561390Y3361740D01*
X-562406Y3367328D01*
X-563880Y3372459D01*
X-565708Y3377336D01*
X-567842Y3381756D01*
X-570382Y3385718D01*
X-576275Y3392474D01*
X-579526Y3395268D01*
X-583031Y3397656D01*
X-586740Y3399637D01*
X-590702Y3401110D01*
X-594868Y3402126D01*
X-599084Y3402736D01*
G37*
G36*
X-758190Y3401161D02*
G01*
X-758190Y3296513D01*
X-736600Y3296513D01*
X-736600Y3366871D01*
X-736092Y3366871D01*
X-726186Y3346043D01*
X-697484Y3296513D01*
X-672592Y3296513D01*
X-672592Y3401161D01*
X-693928Y3401161D01*
X-693928Y3330803D01*
X-694436Y3330803D01*
X-704596Y3351631D01*
X-733298Y3401161D01*
G37*
G36*
X-820674Y3401161D02*
G01*
X-825753Y3400958D01*
X-830580Y3400348D01*
X-835152Y3399332D01*
X-839469Y3397859D01*
X-843635Y3396030D01*
X-847445Y3393744D01*
X-851001Y3391052D01*
X-854202Y3387953D01*
X-856945Y3384550D01*
X-859383Y3380740D01*
X-861517Y3376422D01*
X-863346Y3371697D01*
X-864768Y3366566D01*
X-865784Y3361029D01*
X-866444Y3355136D01*
X-866648Y3348837D01*
X-866239Y3340709D01*
X-842518Y3340709D01*
X-842518Y3356965D01*
X-842162Y3362756D01*
X-841044Y3367786D01*
X-839216Y3371900D01*
X-836676Y3375253D01*
X-833475Y3377692D01*
X-829716Y3379470D01*
X-825449Y3380486D01*
X-820674Y3380841D01*
X-803910Y3380841D01*
X-803910Y3316833D01*
X-820674Y3316833D01*
X-825449Y3317189D01*
X-829716Y3318256D01*
X-833475Y3319983D01*
X-836676Y3322421D01*
X-839216Y3325672D01*
X-841044Y3329787D01*
X-842162Y3334816D01*
X-842518Y3340709D01*
X-866239Y3340709D01*
X-865784Y3336645D01*
X-864768Y3331108D01*
X-863346Y3325977D01*
X-861517Y3321253D01*
X-859383Y3316986D01*
X-856945Y3313125D01*
X-854202Y3309721D01*
X-851001Y3306622D01*
X-847445Y3303930D01*
X-843635Y3301695D01*
X-839469Y3299815D01*
X-835152Y3298393D01*
X-830580Y3297326D01*
X-825753Y3296716D01*
X-820674Y3296513D01*
X-781304Y3296513D01*
X-781304Y3401161D01*
G37*
G36*
X4449064Y-1670151D02*
G01*
X4442663Y-1670354D01*
X4436770Y-1670964D01*
X4431233Y-1672031D01*
X4426204Y-1673453D01*
X4421479Y-1675282D01*
X4417110Y-1677365D01*
X4413199Y-1679854D01*
X4409694Y-1682597D01*
X4406696Y-1685798D01*
X4404106Y-1689354D01*
X4401870Y-1693164D01*
X4400042Y-1697329D01*
X4398619Y-1701647D01*
X4397552Y-1706219D01*
X4396943Y-1711045D01*
X4396740Y-1716125D01*
X4396740Y-1732889D01*
X4416806Y-1732889D01*
X4416806Y-1716125D01*
X4417161Y-1711299D01*
X4418279Y-1707032D01*
X4420108Y-1703324D01*
X4422648Y-1700123D01*
X4425899Y-1697583D01*
X4430014Y-1695754D01*
X4435043Y-1694637D01*
X4440936Y-1694281D01*
X4457192Y-1694281D01*
X4462983Y-1694637D01*
X4468012Y-1695754D01*
X4472127Y-1697583D01*
X4475480Y-1700123D01*
X4477918Y-1703324D01*
X4479696Y-1707032D01*
X4480712Y-1711299D01*
X4481068Y-1716125D01*
X4481068Y-1732889D01*
X4396740Y-1732889D01*
X4396740Y-1755495D01*
X4501388Y-1755495D01*
X4501388Y-1716125D01*
X4501184Y-1711045D01*
X4500575Y-1706219D01*
X4499559Y-1701647D01*
X4498086Y-1697329D01*
X4496257Y-1693164D01*
X4493971Y-1689354D01*
X4491278Y-1685798D01*
X4488180Y-1682597D01*
X4484776Y-1679854D01*
X4480966Y-1677416D01*
X4476648Y-1675282D01*
X4471924Y-1673453D01*
X4466793Y-1672031D01*
X4461256Y-1670964D01*
X4455363Y-1670354D01*
G37*
G36*
X4396740Y-1778609D02*
G01*
X4396740Y-1800199D01*
X4467098Y-1800199D01*
X4467098Y-1800707D01*
X4446270Y-1810613D01*
X4396740Y-1839315D01*
X4396740Y-1864207D01*
X4501388Y-1864207D01*
X4501388Y-1842617D01*
X4430776Y-1842617D01*
X4430776Y-1842363D01*
X4451858Y-1832203D01*
X4501388Y-1803501D01*
X4501388Y-1778609D01*
G37*
G36*
X4442968Y-1886305D02*
G01*
X4442968Y-1927707D01*
X4462018Y-1927707D01*
X4462018Y-1908149D01*
X4469180Y-1908251D01*
X4472482Y-1909013D01*
X4475429Y-1910537D01*
X4477969Y-1912823D01*
X4480001Y-1915718D01*
X4481372Y-1919020D01*
X4482592Y-1924608D01*
X4482846Y-1928723D01*
X4482490Y-1933803D01*
X4481322Y-1938324D01*
X4479442Y-1942287D01*
X4476750Y-1945741D01*
X4473143Y-1948434D01*
X4468774Y-1950313D01*
X4463491Y-1951482D01*
X4457446Y-1951837D01*
X4440682Y-1951837D01*
X4434535Y-1951482D01*
X4429252Y-1950313D01*
X4424883Y-1948434D01*
X4421378Y-1945741D01*
X4418584Y-1942287D01*
X4416602Y-1938324D01*
X4415434Y-1933803D01*
X4415028Y-1928723D01*
X4415282Y-1924405D01*
X4416094Y-1920595D01*
X4417466Y-1917293D01*
X4419346Y-1914499D01*
X4421632Y-1912112D01*
X4424121Y-1910080D01*
X4426813Y-1908302D01*
X4429760Y-1906879D01*
X4419092Y-1888337D01*
X4413504Y-1891538D01*
X4408627Y-1895246D01*
X4404461Y-1899513D01*
X4401058Y-1904339D01*
X4396486Y-1915515D01*
X4394962Y-1928723D01*
X4395165Y-1933956D01*
X4395876Y-1938883D01*
X4396943Y-1943607D01*
X4398518Y-1948027D01*
X4400499Y-1952193D01*
X4402886Y-1956104D01*
X4405731Y-1959711D01*
X4408932Y-1963013D01*
X4412589Y-1965909D01*
X4416704Y-1968500D01*
X4421225Y-1970735D01*
X4426204Y-1972665D01*
X4431487Y-1974088D01*
X4437126Y-1975154D01*
X4443171Y-1975764D01*
X4449572Y-1975967D01*
X4455972Y-1975764D01*
X4461967Y-1975154D01*
X4467555Y-1974088D01*
X4472686Y-1972665D01*
X4477562Y-1970836D01*
X4481982Y-1968754D01*
X4485944Y-1966264D01*
X4489450Y-1963521D01*
X4492650Y-1960473D01*
X4495444Y-1957222D01*
X4497730Y-1953768D01*
X4499610Y-1950059D01*
X4501184Y-1946046D01*
X4502302Y-1941931D01*
X4502962Y-1937664D01*
X4503166Y-1933295D01*
X4502861Y-1927656D01*
X4501845Y-1922627D01*
X4500168Y-1918258D01*
X4497832Y-1914499D01*
X4495088Y-1911400D01*
X4491990Y-1909064D01*
X4488484Y-1907336D01*
X4484624Y-1906371D01*
X4484624Y-1905609D01*
X4501388Y-1905609D01*
X4501388Y-1886305D01*
G37*
G36*
X-322783Y3032912D02*
G01*
X-322783Y3014878D01*
X-300482Y3014878D01*
X-300482Y2928264D01*
X-265938Y2928264D01*
X-241046Y2961284D01*
X-255219Y2972460D01*
X-276606Y2944520D01*
X-278130Y2944520D01*
X-278130Y3014878D01*
X-249885Y3014878D01*
X-249885Y3032912D01*
G37*
G36*
X-412699Y3032912D02*
G01*
X-412699Y3014878D01*
X-390398Y3014878D01*
X-390398Y2928264D01*
X-356057Y2928264D01*
X-330911Y2961284D01*
X-345440Y2972460D01*
X-366725Y2944520D01*
X-368046Y2944520D01*
X-368046Y3014878D01*
X-339801Y3014878D01*
X-339801Y3032912D01*
G37*
G36*
X60960Y2602890D02*
G01*
X43281Y2599334D01*
X30733Y2588666D01*
X26416Y2580843D01*
X23317Y2571597D01*
X21488Y2560878D01*
X20828Y2548788D01*
X21369Y2538882D01*
X45212Y2538882D01*
X45212Y2558694D01*
X45466Y2564333D01*
X46075Y2569311D01*
X47091Y2573578D01*
X48564Y2577236D01*
X50647Y2580132D01*
X53441Y2582214D01*
X56896Y2583434D01*
X60960Y2583840D01*
X65227Y2583434D01*
X68732Y2582214D01*
X71577Y2580132D01*
X73660Y2577236D01*
X75133Y2573578D01*
X76149Y2569311D01*
X76758Y2564333D01*
X76962Y2558694D01*
X76962Y2538882D01*
X76758Y2533243D01*
X76149Y2528265D01*
X75133Y2523998D01*
X73660Y2520340D01*
X71577Y2517444D01*
X68732Y2515362D01*
X65227Y2514142D01*
X60960Y2513736D01*
X56896Y2514142D01*
X53441Y2515362D01*
X50647Y2517444D01*
X48564Y2520340D01*
X47091Y2523998D01*
X46075Y2528265D01*
X45466Y2533243D01*
X45212Y2538882D01*
X21369Y2538882D01*
X21488Y2536698D01*
X23317Y2525979D01*
X26416Y2516733D01*
X30733Y2508910D01*
X43281Y2498242D01*
X60960Y2494686D01*
X78892Y2498242D01*
X91490Y2508910D01*
X95808Y2516733D01*
X98907Y2525979D01*
X100736Y2536698D01*
X101346Y2548788D01*
X100736Y2560878D01*
X98907Y2571597D01*
X95808Y2580843D01*
X91490Y2588666D01*
X78892Y2599334D01*
G37*
G36*
X109016Y2601112D02*
G01*
X109016Y2583078D01*
X131318Y2583078D01*
X131318Y2496464D01*
X165862Y2496464D01*
X190754Y2529484D01*
X176580Y2540660D01*
X155194Y2512720D01*
X153670Y2512720D01*
X153670Y2583078D01*
X181914Y2583078D01*
X181914Y2601112D01*
G37*
G36*
X518159Y2169312D02*
G01*
X511505Y2164232D01*
X504748Y2158136D01*
X501497Y2154732D01*
X495554Y2147366D01*
X492759Y2143404D01*
X490220Y2139137D01*
X487934Y2134666D01*
X485901Y2129993D01*
X482600Y2120188D01*
X481482Y2115108D01*
X480822Y2109774D01*
X480568Y2104288D01*
X480771Y2099716D01*
X481184Y2096160D01*
X504240Y2096160D01*
X504443Y2102561D01*
X505256Y2105660D01*
X506476Y2108403D01*
X508254Y2110638D01*
X510641Y2112518D01*
X513334Y2113889D01*
X516483Y2114702D01*
X519988Y2114956D01*
X523544Y2114702D01*
X526694Y2113889D01*
X529386Y2112518D01*
X531672Y2110638D01*
X533552Y2108403D01*
X534873Y2105710D01*
X535686Y2102561D01*
X535990Y2098954D01*
X535990Y2096160D01*
X535686Y2092553D01*
X534873Y2089404D01*
X533552Y2086711D01*
X531672Y2084476D01*
X529386Y2082698D01*
X526694Y2081428D01*
X523544Y2080666D01*
X519988Y2080412D01*
X516483Y2080666D01*
X513334Y2081428D01*
X510641Y2082698D01*
X508254Y2084476D01*
X506526Y2086711D01*
X505256Y2089404D01*
X504443Y2092553D01*
X504240Y2096160D01*
X481184Y2096160D01*
X482142Y2091182D01*
X483362Y2087270D01*
X484835Y2083562D01*
X486562Y2080158D01*
X488645Y2076957D01*
X491032Y2074062D01*
X493674Y2071522D01*
X496671Y2069287D01*
X499922Y2067356D01*
X503428Y2065680D01*
X507238Y2064461D01*
X511251Y2063597D01*
X515518Y2063038D01*
X519988Y2062886D01*
X524408Y2063038D01*
X528624Y2063496D01*
X532536Y2064308D01*
X536194Y2065426D01*
X539648Y2066950D01*
X542899Y2068728D01*
X545896Y2070760D01*
X548690Y2073046D01*
X551078Y2075586D01*
X553161Y2078380D01*
X554990Y2081428D01*
X556564Y2084730D01*
X557784Y2088134D01*
X558647Y2091740D01*
X559155Y2095500D01*
X559358Y2099462D01*
X559206Y2103170D01*
X558749Y2106676D01*
X558038Y2110028D01*
X557072Y2113178D01*
X555752Y2116023D01*
X554228Y2118664D01*
X552450Y2121103D01*
X548335Y2125268D01*
X543509Y2128418D01*
X537921Y2130806D01*
X534974Y2131568D01*
X531825Y2132076D01*
X526237Y2132126D01*
X521919Y2131364D01*
X518109Y2129993D01*
X514807Y2128215D01*
X512114Y2126081D01*
X509828Y2123694D01*
X507898Y2120798D01*
X505459Y2116480D01*
X504240Y2116734D01*
X505206Y2120442D01*
X506425Y2124049D01*
X509574Y2130704D01*
X511454Y2134006D01*
X516026Y2140458D01*
X518668Y2143658D01*
X524764Y2149957D01*
X531876Y2156104D01*
X549198Y2169312D01*
G37*
G36*
X951230Y1764690D02*
G01*
X946708Y1764538D01*
X942441Y1764131D01*
X938428Y1763420D01*
X934719Y1762404D01*
X931214Y1761134D01*
X927963Y1759661D01*
X924966Y1757984D01*
X922324Y1756054D01*
X920038Y1753920D01*
X918057Y1751584D01*
X916330Y1749094D01*
X913688Y1743557D01*
X912825Y1740560D01*
X912317Y1737461D01*
X912164Y1734210D01*
X912361Y1731162D01*
X935736Y1731162D01*
X935736Y1734210D01*
X936040Y1737106D01*
X936752Y1739646D01*
X938072Y1741932D01*
X939800Y1743862D01*
X941984Y1745437D01*
X944575Y1746504D01*
X947674Y1747215D01*
X951230Y1747418D01*
X954735Y1747215D01*
X957783Y1746504D01*
X960424Y1745437D01*
X962710Y1743862D01*
X964488Y1741932D01*
X965758Y1739646D01*
X966469Y1737106D01*
X966774Y1734210D01*
X966774Y1731162D01*
X966469Y1728165D01*
X965758Y1725523D01*
X964488Y1723186D01*
X962710Y1721256D01*
X960424Y1719681D01*
X957783Y1718614D01*
X954735Y1717903D01*
X951230Y1717700D01*
X947674Y1717903D01*
X944575Y1718564D01*
X941984Y1719681D01*
X939800Y1721256D01*
X938072Y1723186D01*
X936752Y1725523D01*
X936040Y1728165D01*
X935736Y1731162D01*
X912361Y1731162D01*
X912469Y1729486D01*
X913536Y1725218D01*
X915263Y1721357D01*
X917702Y1717954D01*
X920750Y1714906D01*
X924255Y1712366D01*
X928268Y1710334D01*
X932738Y1708810D01*
X932738Y1707794D01*
X929081Y1706118D01*
X925779Y1704035D01*
X922832Y1701647D01*
X920292Y1698904D01*
X918159Y1695754D01*
X916635Y1692249D01*
X915720Y1688287D01*
X915599Y1686204D01*
X936498Y1686204D01*
X936752Y1691487D01*
X937463Y1693925D01*
X938682Y1696059D01*
X940358Y1697888D01*
X942340Y1699310D01*
X944829Y1700377D01*
X947826Y1700987D01*
X951230Y1701190D01*
X954582Y1700987D01*
X957529Y1700377D01*
X960069Y1699310D01*
X962152Y1697888D01*
X963828Y1696059D01*
X965047Y1693976D01*
X965758Y1691487D01*
X966012Y1686204D01*
X965758Y1683461D01*
X965047Y1680972D01*
X963828Y1678889D01*
X962152Y1677060D01*
X960069Y1675638D01*
X957529Y1674571D01*
X954582Y1673961D01*
X951230Y1673758D01*
X947826Y1673961D01*
X944829Y1674571D01*
X942340Y1675638D01*
X940358Y1677060D01*
X938682Y1678889D01*
X937463Y1680972D01*
X936752Y1683461D01*
X936498Y1686204D01*
X915599Y1686204D01*
X915568Y1681022D01*
X916025Y1678279D01*
X916736Y1675587D01*
X917702Y1672996D01*
X919022Y1670557D01*
X920597Y1668221D01*
X922426Y1666087D01*
X924560Y1664106D01*
X926998Y1662430D01*
X932586Y1659636D01*
X935736Y1658518D01*
X939292Y1657604D01*
X943051Y1656994D01*
X951230Y1656486D01*
X959358Y1656994D01*
X963066Y1657604D01*
X969771Y1659636D01*
X972769Y1660906D01*
X975512Y1662430D01*
X977900Y1664106D01*
X980084Y1666087D01*
X981913Y1668221D01*
X983487Y1670557D01*
X984808Y1672996D01*
X985774Y1675587D01*
X986485Y1678279D01*
X986942Y1681022D01*
X987094Y1683918D01*
X986790Y1688287D01*
X985875Y1692249D01*
X984351Y1695754D01*
X982218Y1698904D01*
X979627Y1701647D01*
X976680Y1704035D01*
X973277Y1706118D01*
X969518Y1707794D01*
X969518Y1708810D01*
X974090Y1710334D01*
X978153Y1712366D01*
X981760Y1714906D01*
X984808Y1717954D01*
X987094Y1721357D01*
X988771Y1725168D01*
X989787Y1729486D01*
X990142Y1734210D01*
X989939Y1737461D01*
X989482Y1740560D01*
X988669Y1743557D01*
X987552Y1746402D01*
X986129Y1749094D01*
X984402Y1751634D01*
X982319Y1753920D01*
X977392Y1757984D01*
X974496Y1759661D01*
X971296Y1761134D01*
X967790Y1762404D01*
X963980Y1763420D01*
X959967Y1764131D01*
X955700Y1764538D01*
G37*
G36*
X1366774Y1343812D02*
G01*
X1332992Y1258722D01*
X1332992Y1239164D01*
X1407160Y1239164D01*
X1407160Y1276502D01*
X1388110Y1276502D01*
X1388110Y1257452D01*
X1355344Y1257452D01*
X1390396Y1343812D01*
G37*
G36*
X1788668Y913790D02*
G01*
X1784350Y913637D01*
X1780235Y913079D01*
X1776374Y912215D01*
X1772666Y910996D01*
X1769160Y909574D01*
X1765909Y907897D01*
X1762912Y905916D01*
X1760220Y903630D01*
X1757832Y900988D01*
X1755749Y898144D01*
X1753920Y895146D01*
X1752396Y891946D01*
X1751126Y888441D01*
X1750263Y884783D01*
X1749755Y880922D01*
X1749591Y877722D01*
X1772920Y877722D01*
X1773224Y883869D01*
X1773936Y887069D01*
X1775256Y889812D01*
X1776984Y892200D01*
X1779371Y893978D01*
X1782114Y895248D01*
X1785213Y896010D01*
X1788668Y896264D01*
X1792274Y896010D01*
X1795475Y895248D01*
X1798269Y893978D01*
X1800656Y892200D01*
X1802384Y889812D01*
X1803654Y887069D01*
X1804416Y883869D01*
X1804670Y877722D01*
X1804416Y874115D01*
X1803654Y870915D01*
X1802384Y868171D01*
X1800656Y865784D01*
X1798269Y864006D01*
X1795475Y862736D01*
X1792274Y861974D01*
X1788668Y861720D01*
X1785213Y861974D01*
X1782064Y862736D01*
X1779371Y864006D01*
X1776984Y865784D01*
X1775256Y868171D01*
X1773936Y870915D01*
X1773224Y874115D01*
X1772920Y877722D01*
X1749591Y877722D01*
X1749704Y873353D01*
X1750161Y870000D01*
X1750872Y866749D01*
X1753107Y860806D01*
X1754581Y858113D01*
X1756308Y855624D01*
X1758238Y853338D01*
X1762861Y849680D01*
X1765401Y848106D01*
X1768144Y846734D01*
X1770938Y845718D01*
X1773885Y845007D01*
X1776933Y844600D01*
X1782521Y844550D01*
X1784756Y844803D01*
X1788668Y845972D01*
X1792274Y847445D01*
X1795322Y849274D01*
X1797812Y851662D01*
X1799894Y854354D01*
X1801723Y857199D01*
X1803196Y860196D01*
X1804416Y859688D01*
X1803654Y856030D01*
X1802536Y852525D01*
X1801114Y849071D01*
X1797456Y842518D01*
X1792732Y836168D01*
X1787042Y829818D01*
X1780438Y823468D01*
X1772818Y817219D01*
X1759508Y807364D01*
X1790700Y807364D01*
X1797304Y812241D01*
X1803958Y818286D01*
X1807260Y821690D01*
X1810410Y825347D01*
X1813356Y829208D01*
X1816100Y833272D01*
X1818639Y837539D01*
X1820925Y842010D01*
X1823008Y846683D01*
X1824736Y851560D01*
X1826209Y856487D01*
X1827225Y861517D01*
X1827834Y866749D01*
X1828088Y872134D01*
X1827885Y876808D01*
X1827428Y881278D01*
X1826615Y885494D01*
X1825498Y889406D01*
X1824075Y893064D01*
X1822348Y896467D01*
X1820265Y899566D01*
X1817928Y902360D01*
X1815236Y905002D01*
X1812239Y907287D01*
X1808988Y909319D01*
X1805432Y910996D01*
X1801672Y912215D01*
X1797608Y913079D01*
X1793239Y913637D01*
G37*
G36*
X1955342Y761390D02*
G01*
X1950618Y761238D01*
X1946148Y760679D01*
X1941982Y759815D01*
X1938020Y758596D01*
X1934514Y757072D01*
X1931263Y755294D01*
X1928266Y753262D01*
X1925624Y750976D01*
X1923084Y748334D01*
X1920951Y745439D01*
X1919173Y742340D01*
X1917700Y739038D01*
X1916633Y735533D01*
X1915820Y731926D01*
X1915363Y728167D01*
X1915210Y724306D01*
X1915363Y720496D01*
X1915820Y716889D01*
X1916633Y713486D01*
X1917700Y710336D01*
X1919122Y707288D01*
X1920697Y704545D01*
X1922525Y702106D01*
X1926843Y697890D01*
X1929282Y696112D01*
X1931924Y694588D01*
X1934718Y693318D01*
X1937715Y692302D01*
X1940763Y691591D01*
X1943912Y691184D01*
X1949653Y691134D01*
X1953971Y691743D01*
X1957527Y692962D01*
X1960575Y694639D01*
X1963166Y696772D01*
X1965452Y699465D01*
X1967382Y702513D01*
X1969770Y707796D01*
X1971090Y707796D01*
X1968754Y674522D01*
X1921306Y674522D01*
X1921306Y654964D01*
X1985264Y654964D01*
X1989124Y714146D01*
X1970786Y716686D01*
X1968144Y714349D01*
X1964740Y711860D01*
X1962556Y710742D01*
X1960118Y709980D01*
X1957476Y709472D01*
X1954530Y709320D01*
X1951075Y709574D01*
X1947925Y710387D01*
X1945233Y711758D01*
X1942896Y713638D01*
X1941118Y715873D01*
X1939798Y718515D01*
X1939036Y721614D01*
X1938782Y726084D01*
X1939036Y729742D01*
X1939798Y732993D01*
X1941068Y735939D01*
X1942896Y738530D01*
X1945182Y740511D01*
X1947976Y741934D01*
X1951278Y742797D01*
X1955088Y743102D01*
X1958898Y742848D01*
X1962353Y742035D01*
X1965401Y740664D01*
X1968042Y738784D01*
X1972462Y734009D01*
X1974392Y731316D01*
X1976120Y728370D01*
X1992630Y741324D01*
X1989937Y745236D01*
X1986838Y748944D01*
X1983232Y752297D01*
X1979168Y755294D01*
X1974291Y757834D01*
X1968754Y759866D01*
X1962505Y761034D01*
G37*
G36*
X2359456Y353212D02*
G01*
X2359456Y333146D01*
X2346198Y333146D01*
X2346198Y315620D01*
X2408682Y315620D01*
X2382266Y271678D01*
X2380792Y271678D01*
X2380792Y315620D01*
X2359456Y315620D01*
X2359456Y248564D01*
X2386126Y248564D01*
X2426716Y313842D01*
X2426716Y333146D01*
X2380792Y333146D01*
X2380792Y353212D01*
G37*
G36*
X2809290Y-76809D02*
G01*
X2804922Y-76911D01*
X2796794Y-77927D01*
X2792984Y-78841D01*
X2789478Y-80111D01*
X2786227Y-81584D01*
X2783230Y-83261D01*
X2778048Y-87325D01*
X2775864Y-89611D01*
X2773984Y-92151D01*
X2772460Y-94843D01*
X2771190Y-97840D01*
X2770327Y-100990D01*
X2769819Y-104343D01*
X2769616Y-107797D01*
X2770022Y-112877D01*
X2770479Y-115214D01*
X2772105Y-119532D01*
X2774391Y-123189D01*
X2777286Y-126288D01*
X2780741Y-128828D01*
X2784652Y-130860D01*
X2788970Y-132384D01*
X2791256Y-132943D01*
X2791256Y-133705D01*
X2787294Y-134772D01*
X2783586Y-136499D01*
X2780233Y-138582D01*
X2777236Y-141325D01*
X2774797Y-144627D01*
X2772918Y-148437D01*
X2771800Y-152704D01*
X2771495Y-154940D01*
X2771597Y-160426D01*
X2772054Y-163372D01*
X2772867Y-166116D01*
X2773934Y-168757D01*
X2775407Y-171196D01*
X2777134Y-173431D01*
X2779217Y-175514D01*
X2784094Y-179171D01*
X2789936Y-182118D01*
X2793288Y-183235D01*
X2800502Y-184556D01*
X2804414Y-184912D01*
X2811729Y-184912D01*
X2817672Y-184302D01*
X2823159Y-183032D01*
X2828086Y-181254D01*
X2832455Y-178968D01*
X2836418Y-176174D01*
X2839872Y-173024D01*
X2844596Y-167487D01*
X2830372Y-154279D01*
X2828340Y-157175D01*
X2826105Y-159664D01*
X2823616Y-161848D01*
X2820974Y-163677D01*
X2818130Y-164998D01*
X2815234Y-165963D01*
X2812288Y-166522D01*
X2809290Y-166725D01*
X2806039Y-166522D01*
X2803245Y-165912D01*
X2800858Y-164846D01*
X2798876Y-163423D01*
X2797200Y-161493D01*
X2795981Y-159359D01*
X2795270Y-156972D01*
X2795016Y-153263D01*
X2795270Y-150926D01*
X2795981Y-148793D01*
X2797200Y-146862D01*
X2798876Y-145135D01*
X2801061Y-143713D01*
X2803804Y-142646D01*
X2807157Y-142036D01*
X2811018Y-141833D01*
X2820974Y-141833D01*
X2820974Y-123037D01*
X2811322Y-123037D01*
X2807309Y-122834D01*
X2803804Y-122275D01*
X2800705Y-121310D01*
X2798064Y-119989D01*
X2795879Y-118160D01*
X2794254Y-115925D01*
X2793339Y-113334D01*
X2792984Y-109321D01*
X2793288Y-106172D01*
X2794101Y-103428D01*
X2795422Y-100990D01*
X2797302Y-98907D01*
X2799689Y-97231D01*
X2802483Y-96062D01*
X2805684Y-95351D01*
X2809290Y-95097D01*
X2813354Y-95351D01*
X2817012Y-96113D01*
X2820212Y-97383D01*
X2823006Y-99161D01*
X2825292Y-101346D01*
X2827477Y-103835D01*
X2829509Y-106680D01*
X2831388Y-109829D01*
X2848102Y-96875D01*
X2845206Y-92964D01*
X2842056Y-89255D01*
X2838399Y-85902D01*
X2834132Y-82905D01*
X2829204Y-80365D01*
X2823464Y-78333D01*
X2816758Y-77165D01*
G37*
G36*
X3148888Y-497687D02*
G01*
X3148888Y-516483D01*
X3198114Y-516483D01*
X3170732Y-538480D01*
X3165703Y-542899D01*
X3161284Y-547624D01*
X3157474Y-552450D01*
X3154426Y-557682D01*
X3152190Y-563270D01*
X3151479Y-566267D01*
X3151022Y-569366D01*
X3150870Y-572617D01*
X3151022Y-575970D01*
X3151479Y-579221D01*
X3152190Y-582320D01*
X3153206Y-585317D01*
X3154578Y-588010D01*
X3156254Y-590600D01*
X3158134Y-592988D01*
X3160268Y-595223D01*
X3162706Y-597154D01*
X3165398Y-598932D01*
X3168294Y-600456D01*
X3171494Y-601827D01*
X3174898Y-602843D01*
X3178505Y-603554D01*
X3182366Y-603961D01*
X3186430Y-604113D01*
X3194202Y-603605D01*
X3197809Y-602996D01*
X3201212Y-602081D01*
X3204260Y-600964D01*
X3207156Y-599592D01*
X3212388Y-596239D01*
X3216605Y-592378D01*
X3220262Y-587857D01*
X3222955Y-582726D01*
X3225088Y-577443D01*
X3205480Y-570077D01*
X3204616Y-572871D01*
X3203448Y-575665D01*
X3201822Y-578104D01*
X3199942Y-580237D01*
X3197707Y-582066D01*
X3195066Y-583539D01*
X3192119Y-584504D01*
X3188716Y-584809D01*
X3186226Y-584606D01*
X3183636Y-584047D01*
X3181248Y-583082D01*
X3179064Y-581761D01*
X3177438Y-580034D01*
X3176016Y-577951D01*
X3175101Y-575462D01*
X3174796Y-572617D01*
X3174847Y-568960D01*
X3175355Y-565912D01*
X3176219Y-563067D01*
X3178302Y-558647D01*
X3183178Y-552551D01*
X3186531Y-549351D01*
X3222752Y-518261D01*
X3222752Y-497687D01*
G37*
G36*
X3589782Y-913485D02*
G01*
X3589782Y-931519D01*
X3612134Y-931519D01*
X3612134Y-1018133D01*
X3646728Y-1018133D01*
X3671570Y-985113D01*
X3657396Y-973937D01*
X3636060Y-1001623D01*
X3634486Y-1001623D01*
X3634486Y-931519D01*
X3662679Y-931519D01*
X3662679Y-913485D01*
G37*
G36*
X4062729Y-1334109D02*
G01*
X4044848Y-1337665D01*
X4032250Y-1348333D01*
X4027932Y-1356156D01*
X4024833Y-1365402D01*
X4023004Y-1376121D01*
X4022394Y-1388211D01*
X4022894Y-1398117D01*
X4046778Y-1398117D01*
X4046778Y-1378305D01*
X4046982Y-1372666D01*
X4047642Y-1367688D01*
X4048760Y-1363421D01*
X4050284Y-1359763D01*
X4052315Y-1356868D01*
X4055059Y-1354785D01*
X4058564Y-1353566D01*
X4062729Y-1353159D01*
X4066844Y-1353566D01*
X4070299Y-1354785D01*
X4073093Y-1356868D01*
X4075226Y-1359763D01*
X4076649Y-1363421D01*
X4077665Y-1367688D01*
X4078274Y-1372666D01*
X4078528Y-1378305D01*
X4078528Y-1398117D01*
X4078274Y-1403756D01*
X4077665Y-1408734D01*
X4076649Y-1413002D01*
X4075226Y-1416659D01*
X4073093Y-1419555D01*
X4070299Y-1421638D01*
X4066844Y-1422857D01*
X4062729Y-1423263D01*
X4058564Y-1422857D01*
X4055059Y-1421638D01*
X4052315Y-1419555D01*
X4050284Y-1416659D01*
X4048760Y-1413002D01*
X4047642Y-1408734D01*
X4046982Y-1403756D01*
X4046778Y-1398117D01*
X4022894Y-1398117D01*
X4023004Y-1400302D01*
X4024833Y-1411020D01*
X4027932Y-1420266D01*
X4032250Y-1428089D01*
X4044848Y-1438757D01*
X4062729Y-1442313D01*
X4080662Y-1438757D01*
X4093260Y-1428089D01*
X4097578Y-1420266D01*
X4100677Y-1411020D01*
X4102506Y-1400302D01*
X4103115Y-1388211D01*
X4102506Y-1376121D01*
X4100677Y-1365402D01*
X4097578Y-1356156D01*
X4093260Y-1348333D01*
X4080662Y-1337665D01*
G37*
G36*
X2372614Y-108813D02*
G01*
X2288286Y-145135D01*
X2274570Y-158851D01*
X2326894Y-211175D01*
X2353310Y-184759D01*
X2339848Y-171297D01*
X2326386Y-184759D01*
X2303272Y-161645D01*
X2389378Y-125577D01*
G37*
G36*
X2384806Y-172821D02*
G01*
X2372106Y-185521D01*
X2426716Y-240131D01*
X2439670Y-227431D01*
G37*
G36*
X2470658Y-224637D02*
G01*
X2462123Y-227075D01*
X2453386Y-231444D01*
X2444597Y-237642D01*
X2435606Y-245719D01*
X2427427Y-254762D01*
X2421128Y-263702D01*
X2416759Y-272440D01*
X2414270Y-281025D01*
X2414945Y-289102D01*
X2434488Y-289102D01*
X2435098Y-285597D01*
X2436622Y-281940D01*
X2438908Y-278180D01*
X2441956Y-274218D01*
X2445766Y-270103D01*
X2459736Y-256133D01*
X2463952Y-252221D01*
X2468016Y-249072D01*
X2471826Y-246735D01*
X2475484Y-245211D01*
X2478989Y-244703D01*
X2482443Y-245262D01*
X2485745Y-246888D01*
X2488946Y-249529D01*
X2491587Y-252729D01*
X2493162Y-256082D01*
X2493619Y-259486D01*
X2493010Y-262991D01*
X2491486Y-266649D01*
X2489200Y-270408D01*
X2486152Y-274370D01*
X2482342Y-278485D01*
X2468372Y-292455D01*
X2464155Y-296367D01*
X2460142Y-299466D01*
X2456281Y-301701D01*
X2452624Y-303123D01*
X2449118Y-303733D01*
X2445715Y-303276D01*
X2442413Y-301701D01*
X2439162Y-299059D01*
X2436520Y-295859D01*
X2434996Y-292506D01*
X2434488Y-289102D01*
X2414945Y-289102D01*
X2415641Y-297434D01*
X2425700Y-312521D01*
X2440889Y-322630D01*
X2457450Y-323951D01*
X2466035Y-321513D01*
X2474722Y-317144D01*
X2483561Y-310946D01*
X2492502Y-302869D01*
X2500731Y-293827D01*
X2506980Y-284886D01*
X2511399Y-276148D01*
X2513838Y-267563D01*
X2512517Y-251206D01*
X2502408Y-236067D01*
X2487269Y-225958D01*
G37*
G36*
X-709218Y2832912D02*
G01*
X-713790Y2832709D01*
X-718108Y2832100D01*
X-722172Y2831033D01*
X-725982Y2829610D01*
X-729538Y2827883D01*
X-732840Y2825800D01*
X-735888Y2823311D01*
X-738682Y2820466D01*
X-741070Y2817266D01*
X-743204Y2813659D01*
X-744982Y2809748D01*
X-746556Y2805480D01*
X-747877Y2800858D01*
X-748842Y2795981D01*
X-749401Y2790698D01*
X-749604Y2785160D01*
X-749401Y2779623D01*
X-748842Y2774442D01*
X-747877Y2769565D01*
X-746556Y2765094D01*
X-744982Y2760929D01*
X-743204Y2757170D01*
X-741070Y2753715D01*
X-738682Y2750616D01*
X-735888Y2747873D01*
X-732840Y2745536D01*
X-729538Y2743555D01*
X-725982Y2741980D01*
X-722172Y2740660D01*
X-718108Y2739694D01*
X-713790Y2739136D01*
X-709218Y2738932D01*
X-703224Y2739288D01*
X-697788Y2740355D01*
X-692810Y2742082D01*
X-688390Y2744520D01*
X-684530Y2747721D01*
X-681024Y2751429D01*
X-677926Y2755696D01*
X-675182Y2760522D01*
X-691184Y2769920D01*
X-692454Y2767228D01*
X-693978Y2764790D01*
X-695756Y2762554D01*
X-697788Y2760522D01*
X-700125Y2758744D01*
X-702818Y2757474D01*
X-705815Y2756712D01*
X-709218Y2756458D01*
X-713435Y2756814D01*
X-717143Y2757881D01*
X-720394Y2759608D01*
X-723188Y2762046D01*
X-725525Y2765247D01*
X-727202Y2769108D01*
X-728167Y2773527D01*
X-728522Y2778556D01*
X-728522Y2793034D01*
X-728167Y2798165D01*
X-727202Y2802636D01*
X-725525Y2806395D01*
X-723188Y2809544D01*
X-720394Y2811983D01*
X-717143Y2813761D01*
X-713435Y2814777D01*
X-709218Y2815132D01*
X-705764Y2814929D01*
X-702716Y2814320D01*
X-700176Y2813253D01*
X-698042Y2811830D01*
X-696264Y2809951D01*
X-694740Y2807766D01*
X-693470Y2805379D01*
X-692454Y2802686D01*
X-675436Y2811576D01*
X-678078Y2816656D01*
X-681126Y2821025D01*
X-684682Y2824683D01*
X-688644Y2827578D01*
X-692962Y2829915D01*
X-697839Y2831592D01*
X-703275Y2832557D01*
G37*
G36*
X-639876Y2831134D02*
G01*
X-657171Y2778810D01*
X-638606Y2778810D01*
X-628700Y2813354D01*
X-627938Y2813354D01*
X-617778Y2778810D01*
X-657171Y2778810D01*
X-669848Y2740456D01*
X-649782Y2740456D01*
X-643178Y2762046D01*
X-612952Y2762046D01*
X-606602Y2740456D01*
X-586028Y2740456D01*
X-615492Y2831134D01*
G37*
G36*
X-573328Y2831134D02*
G01*
X-573328Y2740456D01*
X-518972Y2740456D01*
X-518972Y2757982D01*
X-553516Y2757982D01*
X-553516Y2831134D01*
G37*
G36*
X-701243Y1919630D02*
G01*
X-701243Y1828698D01*
X-681482Y1828698D01*
X-681482Y1866036D01*
X-646938Y1866036D01*
X-646938Y1828698D01*
X-627075Y1828698D01*
X-627075Y1919630D01*
X-646938Y1919630D01*
X-646938Y1883308D01*
X-681482Y1883308D01*
X-681482Y1919630D01*
G37*
G36*
X-610616Y1919630D02*
G01*
X-610616Y1903882D01*
X-598932Y1903882D01*
X-598932Y1844446D01*
X-610616Y1844446D01*
X-610616Y1828698D01*
X-567385Y1828698D01*
X-567385Y1844446D01*
X-579069Y1844446D01*
X-579069Y1903882D01*
X-567385Y1903882D01*
X-567385Y1919630D01*
G37*
G36*
X116535Y2183790D02*
G01*
X112064Y2183638D01*
X107848Y2183079D01*
X103835Y2182215D01*
X100025Y2180996D01*
X96469Y2179320D01*
X93167Y2177237D01*
X90119Y2174849D01*
X87325Y2172106D01*
X84937Y2168906D01*
X82804Y2165400D01*
X80975Y2161540D01*
X79451Y2157374D01*
X78130Y2152802D01*
X77165Y2147874D01*
X76606Y2142642D01*
X76403Y2137054D01*
X76735Y2130196D01*
X97485Y2130196D01*
X97485Y2143658D01*
X97790Y2148789D01*
X98704Y2153310D01*
X100177Y2157171D01*
X102311Y2160422D01*
X105105Y2162962D01*
X108407Y2164791D01*
X112217Y2165908D01*
X116535Y2166264D01*
X120751Y2165908D01*
X124460Y2164791D01*
X127711Y2162962D01*
X130505Y2160422D01*
X132638Y2157171D01*
X134112Y2153310D01*
X135026Y2148789D01*
X135331Y2143658D01*
X135331Y2130196D01*
X135026Y2125065D01*
X134112Y2120544D01*
X132638Y2116683D01*
X130505Y2113432D01*
X127711Y2110892D01*
X124460Y2109063D01*
X120751Y2107946D01*
X116535Y2107590D01*
X112217Y2107946D01*
X108407Y2109063D01*
X105105Y2110892D01*
X102311Y2113432D01*
X100177Y2116683D01*
X98704Y2120544D01*
X97790Y2125065D01*
X97485Y2130196D01*
X76735Y2130196D01*
X77165Y2126132D01*
X78130Y2121255D01*
X79451Y2116734D01*
X80975Y2112467D01*
X82804Y2108606D01*
X84937Y2105101D01*
X87325Y2102002D01*
X90119Y2099157D01*
X93167Y2096719D01*
X96469Y2094738D01*
X100025Y2093112D01*
X103835Y2091791D01*
X107848Y2090826D01*
X112064Y2090267D01*
X116535Y2090064D01*
X120904Y2090267D01*
X125069Y2090826D01*
X129032Y2091791D01*
X132791Y2093112D01*
X136347Y2094738D01*
X139649Y2096719D01*
X142697Y2099157D01*
X145491Y2102002D01*
X147878Y2105101D01*
X150012Y2108606D01*
X151841Y2112467D01*
X153365Y2116734D01*
X154686Y2121255D01*
X155651Y2126132D01*
X156210Y2131415D01*
X156413Y2137054D01*
X156210Y2142642D01*
X155651Y2147874D01*
X154686Y2152802D01*
X153365Y2157374D01*
X151841Y2161540D01*
X150012Y2165400D01*
X147878Y2168906D01*
X145491Y2172106D01*
X142697Y2174849D01*
X139649Y2177237D01*
X136347Y2179320D01*
X132791Y2180996D01*
X129032Y2182215D01*
X125018Y2183079D01*
X120904Y2183638D01*
G37*
G36*
X16205Y2182266D02*
G01*
X16205Y2091588D01*
X70561Y2091588D01*
X70561Y2109114D01*
X36017Y2109114D01*
X36017Y2182266D01*
G37*
G36*
X-491998Y974852D02*
G01*
X-495858Y974547D01*
X-499364Y973582D01*
X-502462Y972058D01*
X-505206Y970026D01*
X-507288Y967536D01*
X-509016Y964692D01*
X-510336Y961694D01*
X-511301Y958342D01*
X-512064Y958342D01*
X-512775Y961339D01*
X-513842Y964184D01*
X-515569Y966673D01*
X-517651Y969010D01*
X-520141Y970838D01*
X-522985Y972312D01*
X-526237Y973074D01*
X-529844Y973328D01*
X-532180Y973226D01*
X-536498Y972312D01*
X-538480Y971550D01*
X-540410Y970432D01*
X-542239Y969060D01*
X-545338Y965708D01*
X-547827Y961593D01*
X-549656Y956818D01*
X-550621Y951331D01*
X-550926Y945134D01*
X-550722Y940308D01*
X-550164Y935990D01*
X-548944Y932129D01*
X-547370Y928624D01*
X-545388Y925423D01*
X-543052Y922528D01*
X-540562Y920038D01*
X-537718Y917702D01*
X-527558Y928369D01*
X-529742Y929944D01*
X-531622Y931722D01*
X-534670Y935736D01*
X-535787Y937818D01*
X-536600Y940003D01*
X-537057Y942238D01*
X-537210Y944626D01*
X-537057Y947013D01*
X-536498Y949147D01*
X-535635Y950976D01*
X-534416Y952500D01*
X-533044Y953719D01*
X-531418Y954582D01*
X-529590Y955090D01*
X-526796Y955294D01*
X-524967Y955090D01*
X-523392Y954582D01*
X-521919Y953719D01*
X-520700Y952500D01*
X-519582Y950772D01*
X-518820Y948639D01*
X-518312Y946048D01*
X-518159Y935736D01*
X-503935Y935736D01*
X-503783Y945946D01*
X-503326Y948740D01*
X-502513Y951179D01*
X-501396Y953262D01*
X-499973Y954836D01*
X-498297Y955903D01*
X-496316Y956614D01*
X-493268Y956818D01*
X-490880Y956614D01*
X-488746Y956005D01*
X-486918Y954938D01*
X-485393Y953516D01*
X-484073Y951788D01*
X-483108Y949756D01*
X-482549Y947369D01*
X-482346Y944626D01*
X-482549Y941476D01*
X-483158Y938733D01*
X-484225Y936294D01*
X-485648Y934212D01*
X-487273Y932383D01*
X-491337Y929081D01*
X-493776Y927608D01*
X-483870Y915162D01*
X-480872Y917143D01*
X-478028Y919480D01*
X-475437Y922274D01*
X-473201Y925576D01*
X-471220Y929386D01*
X-469900Y933703D01*
X-468934Y938834D01*
X-468630Y944626D01*
X-469036Y950976D01*
X-470154Y956818D01*
X-472236Y961999D01*
X-474980Y966469D01*
X-478332Y970026D01*
X-482346Y972566D01*
X-484581Y973582D01*
X-486918Y974293D01*
X-489407Y974699D01*
G37*
G36*
X-483616Y910844D02*
G01*
X-483616Y894080D01*
X-549656Y894080D01*
X-549656Y867664D01*
X-524510Y848614D01*
X-515874Y859536D01*
X-537210Y875792D01*
X-537210Y876808D01*
X-483616Y876808D01*
X-483616Y855471D01*
X-469900Y855471D01*
X-469900Y910844D01*
G37*
G36*
X-509778Y838962D02*
G01*
X-514604Y838809D01*
X-519125Y838301D01*
X-523341Y837539D01*
X-527304Y836421D01*
X-530860Y834999D01*
X-534111Y833374D01*
X-537057Y831443D01*
X-539750Y829310D01*
X-542036Y826871D01*
X-544017Y824230D01*
X-545693Y821283D01*
X-547116Y818134D01*
X-548233Y814882D01*
X-548995Y811377D01*
X-549503Y807770D01*
X-549656Y791210D01*
X-534162Y791210D01*
X-534162Y803910D01*
X-533908Y807516D01*
X-533095Y810768D01*
X-531723Y813612D01*
X-529844Y816102D01*
X-527354Y817981D01*
X-524205Y819353D01*
X-520344Y820166D01*
X-515874Y820419D01*
X-503682Y820419D01*
X-499211Y820166D01*
X-495350Y819353D01*
X-492201Y817981D01*
X-489712Y816102D01*
X-487832Y813612D01*
X-486460Y810768D01*
X-485648Y807516D01*
X-485393Y803910D01*
X-485393Y791210D01*
X-549656Y791210D01*
X-549656Y773684D01*
X-469900Y773684D01*
X-469900Y803910D01*
X-470052Y807770D01*
X-470509Y811377D01*
X-471322Y814882D01*
X-472440Y818134D01*
X-473862Y821283D01*
X-475538Y824230D01*
X-477520Y826871D01*
X-479806Y829310D01*
X-482498Y831443D01*
X-485444Y833374D01*
X-488696Y834999D01*
X-492251Y836421D01*
X-496214Y837539D01*
X-500430Y838301D01*
X-504951Y838809D01*
G37*
G36*
X-549656Y758698D02*
G01*
X-549656Y704342D01*
X-469900Y704342D01*
X-469900Y758698D01*
X-485393Y758698D01*
X-485393Y721868D01*
X-502666Y721868D01*
X-502666Y753364D01*
X-517906Y753364D01*
X-517906Y721868D01*
X-534162Y721868D01*
X-534162Y758698D01*
G37*
G36*
X-485393Y691642D02*
G01*
X-485393Y661162D01*
X-549656Y661162D01*
X-549656Y643890D01*
X-469900Y643890D01*
X-469900Y691642D01*
G37*
G36*
X3792626Y-1673098D02*
G01*
X3792626Y-1692910D01*
X3829710Y-1692910D01*
X3829710Y-1727454D01*
X3847236Y-1727454D01*
X3847236Y-1692910D01*
X3865778Y-1692910D01*
X3865778Y-1733296D01*
X3883304Y-1733296D01*
X3883304Y-1673098D01*
G37*
G36*
X3854856Y-1743710D02*
G01*
X3844950Y-1756156D01*
X3869080Y-1774698D01*
X3869080Y-1775968D01*
X3808374Y-1775968D01*
X3808374Y-1751584D01*
X3792626Y-1751584D01*
X3792626Y-1814575D01*
X3808374Y-1814575D01*
X3808374Y-1795525D01*
X3883304Y-1795525D01*
X3883304Y-1765554D01*
G37*
G36*
X2879140Y-1666900D02*
G01*
X2879140Y-1686712D01*
X2916224Y-1686712D01*
X2916224Y-1721002D01*
X2933700Y-1721002D01*
X2933700Y-1686712D01*
X2952292Y-1686712D01*
X2952292Y-1727098D01*
X2969768Y-1727098D01*
X2969768Y-1666900D01*
G37*
G36*
X2948228Y-1738528D02*
G01*
X2941878Y-1755546D01*
X2944317Y-1756257D01*
X2947771Y-1757883D01*
X2949803Y-1759305D01*
X2951581Y-1761083D01*
X2953004Y-1763217D01*
X2953969Y-1765655D01*
X2954477Y-1768449D01*
X2954528Y-1771142D01*
X2953512Y-1775358D01*
X2952597Y-1777238D01*
X2951226Y-1779016D01*
X2949600Y-1780387D01*
X2947670Y-1781403D01*
X2945384Y-1781911D01*
X2942336Y-1781962D01*
X2939491Y-1781759D01*
X2937002Y-1781200D01*
X2934512Y-1780235D01*
X2931972Y-1778914D01*
X2929331Y-1777085D01*
X2923895Y-1771751D01*
X2896870Y-1740306D01*
X2879140Y-1740306D01*
X2879140Y-1804568D01*
X2895396Y-1804568D01*
X2895396Y-1761642D01*
X2914548Y-1785620D01*
X2918358Y-1789887D01*
X2924302Y-1795424D01*
X2928772Y-1798421D01*
X2933496Y-1800758D01*
X2935935Y-1801672D01*
X2941269Y-1802688D01*
X2947009Y-1802688D01*
X2952496Y-1801672D01*
X2955036Y-1800758D01*
X2959658Y-1798116D01*
X2963722Y-1794662D01*
X2966872Y-1790242D01*
X2969310Y-1785010D01*
X2970174Y-1782013D01*
X2971190Y-1775409D01*
X2971342Y-1771802D01*
X2970885Y-1765096D01*
X2970326Y-1761998D01*
X2968548Y-1756410D01*
X2966008Y-1751584D01*
X2962859Y-1747520D01*
X2959150Y-1744065D01*
X2955036Y-1741373D01*
X2950565Y-1739341D01*
G37*
G36*
X1304340Y-1666595D02*
G01*
X1301597Y-1666697D01*
X1296517Y-1667713D01*
X1291945Y-1669643D01*
X1289913Y-1670913D01*
X1288034Y-1672437D01*
X1286306Y-1674215D01*
X1284833Y-1676196D01*
X1282446Y-1680768D01*
X1281430Y-1683359D01*
X1280109Y-1689354D01*
X1279652Y-1696059D01*
X1280109Y-1702714D01*
X1281430Y-1708505D01*
X1283563Y-1713382D01*
X1284833Y-1715516D01*
X1286306Y-1717395D01*
X1288034Y-1719072D01*
X1291945Y-1721713D01*
X1294130Y-1722729D01*
X1299006Y-1724050D01*
X1301597Y-1724406D01*
X1304340Y-1724507D01*
X1308100Y-1724304D01*
X1311503Y-1723643D01*
X1314551Y-1722526D01*
X1317294Y-1720951D01*
X1319682Y-1719021D01*
X1321816Y-1716684D01*
X1323746Y-1714042D01*
X1325422Y-1711045D01*
X1315466Y-1705457D01*
X1313891Y-1708556D01*
X1311706Y-1711299D01*
X1310182Y-1712315D01*
X1308455Y-1713026D01*
X1306474Y-1713433D01*
X1304340Y-1713585D01*
X1301750Y-1713382D01*
X1299514Y-1712772D01*
X1297482Y-1711706D01*
X1295654Y-1710283D01*
X1294333Y-1708302D01*
X1293368Y-1705965D01*
X1292809Y-1703222D01*
X1292656Y-1690979D01*
X1292809Y-1687880D01*
X1293418Y-1685188D01*
X1294333Y-1682953D01*
X1295654Y-1681073D01*
X1297482Y-1679498D01*
X1299514Y-1678381D01*
X1301750Y-1677720D01*
X1304340Y-1677517D01*
X1306474Y-1677619D01*
X1310030Y-1678635D01*
X1311402Y-1679549D01*
X1313383Y-1682089D01*
X1314704Y-1685137D01*
X1325422Y-1679803D01*
X1323746Y-1676603D01*
X1321816Y-1673910D01*
X1319682Y-1671675D01*
X1317294Y-1669897D01*
X1314551Y-1668475D01*
X1311503Y-1667408D01*
X1308100Y-1666798D01*
G37*
G36*
X1350264Y-1666595D02*
G01*
X1346758Y-1666798D01*
X1343710Y-1667357D01*
X1341018Y-1668272D01*
X1336243Y-1670608D01*
X1334312Y-1672183D01*
X1331010Y-1675993D01*
X1338376Y-1683105D01*
X1340662Y-1680260D01*
X1341983Y-1679143D01*
X1344980Y-1677517D01*
X1348130Y-1676603D01*
X1351483Y-1676603D01*
X1354277Y-1677517D01*
X1355394Y-1678279D01*
X1356258Y-1679244D01*
X1356868Y-1680362D01*
X1357274Y-1681683D01*
X1357426Y-1683613D01*
X1356918Y-1686102D01*
X1355394Y-1687931D01*
X1354124Y-1688693D01*
X1350822Y-1689607D01*
X1343456Y-1689709D01*
X1343456Y-1699615D01*
X1350670Y-1699717D01*
X1354226Y-1700631D01*
X1355598Y-1701393D01*
X1356868Y-1702409D01*
X1357731Y-1703628D01*
X1358239Y-1705051D01*
X1358442Y-1706981D01*
X1358290Y-1708657D01*
X1357833Y-1710182D01*
X1357122Y-1711452D01*
X1356156Y-1712569D01*
X1354886Y-1713433D01*
X1353413Y-1714093D01*
X1349806Y-1714601D01*
X1345641Y-1714093D01*
X1343914Y-1713433D01*
X1342440Y-1712569D01*
X1340002Y-1709978D01*
X1337818Y-1706727D01*
X1328978Y-1713839D01*
X1331366Y-1716887D01*
X1334160Y-1719630D01*
X1336344Y-1721205D01*
X1339037Y-1722526D01*
X1342136Y-1723491D01*
X1345742Y-1724253D01*
X1349806Y-1724507D01*
X1354226Y-1724202D01*
X1358442Y-1723237D01*
X1361948Y-1721916D01*
X1365046Y-1719935D01*
X1367485Y-1717649D01*
X1369314Y-1714855D01*
X1370025Y-1713280D01*
X1370787Y-1709877D01*
X1370838Y-1706625D01*
X1370126Y-1702917D01*
X1368958Y-1700733D01*
X1367536Y-1698853D01*
X1365910Y-1697278D01*
X1363980Y-1696059D01*
X1359154Y-1694535D01*
X1359154Y-1694027D01*
X1361338Y-1693570D01*
X1363218Y-1692757D01*
X1365148Y-1691538D01*
X1366824Y-1689963D01*
X1368145Y-1688338D01*
X1369110Y-1686407D01*
X1369669Y-1684070D01*
X1369872Y-1681581D01*
X1369517Y-1678279D01*
X1368552Y-1675485D01*
X1366824Y-1672894D01*
X1364538Y-1670659D01*
X1361643Y-1669034D01*
X1358188Y-1667611D01*
X1354429Y-1666849D01*
G37*
G36*
X1534972Y-683107D02*
G01*
X1531467Y-683209D01*
X1525117Y-684123D01*
X1519580Y-685850D01*
X1517091Y-687019D01*
X1514856Y-688390D01*
X1511046Y-691692D01*
X1509471Y-693521D01*
X1507032Y-697585D01*
X1506118Y-699922D01*
X1505102Y-704850D01*
X1505000Y-707491D01*
X1505356Y-712216D01*
X1506423Y-716432D01*
X1508252Y-720191D01*
X1510842Y-723493D01*
X1514195Y-726236D01*
X1518361Y-728421D01*
X1523441Y-730046D01*
X1537258Y-732383D01*
X1541932Y-733450D01*
X1543608Y-734212D01*
X1544878Y-735177D01*
X1546199Y-737717D01*
X1546656Y-740765D01*
X1546453Y-742848D01*
X1545894Y-744677D01*
X1544929Y-746404D01*
X1543608Y-747877D01*
X1541830Y-748995D01*
X1539646Y-749757D01*
X1537004Y-750265D01*
X1533956Y-750417D01*
X1528216Y-749858D01*
X1523034Y-748131D01*
X1518310Y-745286D01*
X1514144Y-741273D01*
X1502714Y-752957D01*
X1505356Y-755599D01*
X1508353Y-758037D01*
X1511604Y-760171D01*
X1515160Y-762101D01*
X1518920Y-763676D01*
X1523136Y-764743D01*
X1527810Y-765454D01*
X1532940Y-765657D01*
X1536496Y-765556D01*
X1543100Y-764641D01*
X1546148Y-763879D01*
X1548942Y-762863D01*
X1551482Y-761644D01*
X1553768Y-760222D01*
X1557680Y-756818D01*
X1559356Y-754837D01*
X1560728Y-752754D01*
X1561896Y-750417D01*
X1563420Y-745337D01*
X1563928Y-739749D01*
X1563522Y-734822D01*
X1562455Y-730554D01*
X1560626Y-726846D01*
X1558086Y-723747D01*
X1554632Y-721156D01*
X1550466Y-719023D01*
X1545488Y-717346D01*
X1539798Y-716127D01*
X1529537Y-714400D01*
X1527505Y-713841D01*
X1524558Y-712317D01*
X1523542Y-711250D01*
X1522831Y-709879D01*
X1522374Y-708202D01*
X1522272Y-706221D01*
X1522425Y-704545D01*
X1523034Y-703021D01*
X1523949Y-701751D01*
X1525320Y-700633D01*
X1526895Y-699719D01*
X1528876Y-699109D01*
X1531213Y-698703D01*
X1536852Y-698703D01*
X1539544Y-699109D01*
X1541932Y-699719D01*
X1546047Y-701700D01*
X1549501Y-704392D01*
X1550974Y-705967D01*
X1562658Y-694537D01*
X1559966Y-691896D01*
X1557121Y-689660D01*
X1554022Y-687730D01*
X1550720Y-686155D01*
X1547164Y-684834D01*
X1543354Y-683869D01*
X1539290Y-683310D01*
G37*
G36*
X1360728Y-684631D02*
G01*
X1360728Y-699617D01*
X1398066Y-699719D01*
X1399692Y-700125D01*
X1401114Y-700735D01*
X1402384Y-701649D01*
X1403350Y-702767D01*
X1404061Y-704138D01*
X1404518Y-705713D01*
X1404670Y-712571D01*
X1404518Y-714349D01*
X1404061Y-715924D01*
X1403350Y-717296D01*
X1402384Y-718413D01*
X1399692Y-719937D01*
X1396288Y-720445D01*
X1378000Y-720445D01*
X1378000Y-699617D01*
X1360728Y-699617D01*
X1360728Y-764387D01*
X1378000Y-764387D01*
X1378000Y-735177D01*
X1390446Y-735177D01*
X1404416Y-764387D01*
X1423720Y-764387D01*
X1407972Y-733145D01*
X1411376Y-731520D01*
X1414373Y-729538D01*
X1416862Y-727100D01*
X1418894Y-724255D01*
X1420520Y-721055D01*
X1421739Y-717651D01*
X1422450Y-713943D01*
X1422704Y-710031D01*
X1422247Y-704646D01*
X1420926Y-699617D01*
X1419961Y-697382D01*
X1417523Y-693470D01*
X1416100Y-691743D01*
X1414373Y-690067D01*
X1410563Y-687425D01*
X1408480Y-686409D01*
X1403705Y-685088D01*
X1401165Y-684733D01*
G37*
G36*
X1437690Y-684631D02*
G01*
X1437690Y-764387D01*
X1492046Y-764387D01*
X1492046Y-748893D01*
X1454962Y-748893D01*
X1454962Y-731621D01*
X1486712Y-731621D01*
X1486712Y-716381D01*
X1454962Y-716381D01*
X1454962Y-700125D01*
X1492046Y-700125D01*
X1492046Y-684631D01*
G37*
G36*
X1578406Y-684631D02*
G01*
X1578406Y-764387D01*
X1632762Y-764387D01*
X1632762Y-748893D01*
X1595678Y-748893D01*
X1595678Y-731621D01*
X1627428Y-731621D01*
X1627428Y-716381D01*
X1595678Y-716381D01*
X1595678Y-700125D01*
X1632762Y-700125D01*
X1632762Y-684631D01*
G37*
G36*
X1642160Y-684631D02*
G01*
X1642160Y-700125D01*
X1663750Y-700125D01*
X1663750Y-764387D01*
X1681022Y-764387D01*
X1681022Y-700125D01*
X1702612Y-700125D01*
X1702612Y-684631D01*
G37*
G36*
X934719Y-1913991D02*
G01*
X931316Y-1914194D01*
X928116Y-1914753D01*
X925474Y-1915617D01*
X921918Y-1917344D01*
X919784Y-1918716D01*
X917854Y-1920493D01*
X915416Y-1923389D01*
X922782Y-1930501D01*
X925220Y-1927656D01*
X927862Y-1925675D01*
X931011Y-1924354D01*
X932586Y-1923999D01*
X935939Y-1923999D01*
X938733Y-1924913D01*
X940714Y-1926640D01*
X941324Y-1927758D01*
X941730Y-1929079D01*
X941730Y-1932330D01*
X941324Y-1933498D01*
X940714Y-1934464D01*
X938631Y-1936089D01*
X937158Y-1936648D01*
X935329Y-1937004D01*
X928116Y-1937105D01*
X928116Y-1947011D01*
X935126Y-1947113D01*
X937107Y-1947468D01*
X938834Y-1948027D01*
X940308Y-1948789D01*
X941425Y-1949805D01*
X942238Y-1951024D01*
X942695Y-1952447D01*
X942746Y-1956054D01*
X942289Y-1957527D01*
X941578Y-1958848D01*
X940562Y-1959965D01*
X939342Y-1960880D01*
X937869Y-1961489D01*
X936142Y-1961896D01*
X932078Y-1961896D01*
X930097Y-1961489D01*
X928369Y-1960880D01*
X926846Y-1959965D01*
X924509Y-1957374D01*
X922528Y-1954123D01*
X913637Y-1961235D01*
X916686Y-1965299D01*
X918667Y-1967026D01*
X921003Y-1968601D01*
X923544Y-1969922D01*
X926592Y-1970887D01*
X930148Y-1971649D01*
X934212Y-1971903D01*
X938682Y-1971598D01*
X942848Y-1970633D01*
X946403Y-1969312D01*
X949452Y-1967331D01*
X951941Y-1965045D01*
X953769Y-1962251D01*
X954481Y-1960676D01*
X955243Y-1957273D01*
X955294Y-1954022D01*
X954887Y-1951482D01*
X954024Y-1949196D01*
X952753Y-1947164D01*
X951230Y-1945386D01*
X949452Y-1944014D01*
X947318Y-1942998D01*
X943864Y-1941931D01*
X943864Y-1941423D01*
X945896Y-1940966D01*
X947928Y-1940153D01*
X949655Y-1938934D01*
X952601Y-1935683D01*
X953516Y-1933803D01*
X954278Y-1931466D01*
X954532Y-1928977D01*
X954481Y-1927250D01*
X953719Y-1924202D01*
X952195Y-1921510D01*
X950163Y-1919122D01*
X947623Y-1917192D01*
X944575Y-1915668D01*
X940917Y-1914550D01*
X936853Y-1914042D01*
G37*
G36*
X862584Y-1915007D02*
G01*
X862584Y-1925929D01*
X883666Y-1925929D01*
X886307Y-1926132D01*
X888644Y-1926691D01*
X890625Y-1927656D01*
X892302Y-1928977D01*
X893673Y-1930704D01*
X894587Y-1932939D01*
X895197Y-1935530D01*
X895350Y-1947265D01*
X895197Y-1950466D01*
X894587Y-1953158D01*
X893673Y-1955393D01*
X892302Y-1957171D01*
X890625Y-1958390D01*
X888644Y-1959254D01*
X886307Y-1959813D01*
X874776Y-1959965D01*
X874776Y-1925929D01*
X862584Y-1925929D01*
X862584Y-1970887D01*
X886409Y-1970786D01*
X891489Y-1969871D01*
X893826Y-1969109D01*
X896061Y-1968093D01*
X899871Y-1965452D01*
X903020Y-1961997D01*
X904392Y-1959965D01*
X905560Y-1957679D01*
X907338Y-1952396D01*
X907897Y-1949399D01*
X908303Y-1942947D01*
X907897Y-1936496D01*
X907338Y-1933498D01*
X905560Y-1928215D01*
X904392Y-1925929D01*
X903020Y-1923897D01*
X899871Y-1920443D01*
X896061Y-1917801D01*
X893826Y-1916785D01*
X889000Y-1915464D01*
X886409Y-1915109D01*
G37*
G36*
X875284Y-1368907D02*
G01*
X875284Y-1379829D01*
X896416Y-1379829D01*
X898956Y-1380032D01*
X901242Y-1380591D01*
X903274Y-1381556D01*
X905002Y-1382877D01*
X906373Y-1384604D01*
X907338Y-1386840D01*
X907897Y-1389430D01*
X908100Y-1392529D01*
X908100Y-1401165D01*
X907897Y-1404366D01*
X907338Y-1407058D01*
X906373Y-1409293D01*
X905002Y-1411071D01*
X903274Y-1412290D01*
X901242Y-1413154D01*
X898956Y-1413713D01*
X887476Y-1413865D01*
X887476Y-1379829D01*
X875284Y-1379829D01*
X875284Y-1424787D01*
X899109Y-1424686D01*
X904189Y-1423771D01*
X906526Y-1423009D01*
X908761Y-1421993D01*
X912571Y-1419352D01*
X915720Y-1415897D01*
X917092Y-1413865D01*
X918260Y-1411579D01*
X920038Y-1406296D01*
X920597Y-1403299D01*
X921003Y-1396847D01*
X920597Y-1390396D01*
X920038Y-1387398D01*
X918260Y-1382115D01*
X917092Y-1379829D01*
X915720Y-1377797D01*
X912571Y-1374343D01*
X908761Y-1371701D01*
X906526Y-1370685D01*
X901700Y-1369364D01*
X899109Y-1369009D01*
G37*
G36*
X941069Y-1368907D02*
G01*
X927862Y-1386433D01*
X935482Y-1392529D01*
X946962Y-1377543D01*
X947419Y-1377543D01*
X947419Y-1415135D01*
X932434Y-1415135D01*
X932434Y-1424787D01*
X971346Y-1424787D01*
X971346Y-1415135D01*
X959662Y-1415135D01*
X959662Y-1368907D01*
G37*
G36*
X405231Y-1373174D02*
G01*
X400456Y-1373530D01*
X396341Y-1374444D01*
X392785Y-1375968D01*
X389737Y-1378000D01*
X387451Y-1380490D01*
X385673Y-1383334D01*
X384505Y-1386586D01*
X384149Y-1390192D01*
X384403Y-1393596D01*
X385216Y-1396644D01*
X386588Y-1399336D01*
X388467Y-1401622D01*
X390804Y-1403502D01*
X393750Y-1405026D01*
X397256Y-1406194D01*
X407009Y-1407718D01*
X410159Y-1408480D01*
X412089Y-1409750D01*
X413004Y-1411478D01*
X413359Y-1413560D01*
X412851Y-1416304D01*
X411327Y-1418386D01*
X410006Y-1419301D01*
X408482Y-1419910D01*
X406603Y-1420317D01*
X404469Y-1420418D01*
X400558Y-1420012D01*
X396900Y-1418793D01*
X393547Y-1416710D01*
X390499Y-1413814D01*
X382625Y-1421942D01*
X384505Y-1423924D01*
X386537Y-1425651D01*
X388823Y-1427226D01*
X391261Y-1428546D01*
X393954Y-1429664D01*
X396900Y-1430477D01*
X400151Y-1430934D01*
X406298Y-1431036D01*
X410972Y-1430375D01*
X413105Y-1429816D01*
X416814Y-1428140D01*
X419963Y-1426006D01*
X422351Y-1423314D01*
X424027Y-1420164D01*
X425145Y-1416710D01*
X425551Y-1412798D01*
X425297Y-1409446D01*
X424535Y-1406448D01*
X423265Y-1403858D01*
X421487Y-1401622D01*
X419049Y-1399794D01*
X416051Y-1398270D01*
X412546Y-1397101D01*
X408533Y-1396288D01*
X402945Y-1395526D01*
X399999Y-1394663D01*
X397865Y-1393494D01*
X396697Y-1391869D01*
X396341Y-1389430D01*
X396443Y-1388262D01*
X396849Y-1387144D01*
X397459Y-1386230D01*
X398373Y-1385366D01*
X400913Y-1384452D01*
X404469Y-1384096D01*
X408381Y-1384452D01*
X411581Y-1385366D01*
X414172Y-1387094D01*
X416407Y-1389176D01*
X424535Y-1381048D01*
X420827Y-1377696D01*
X416407Y-1375206D01*
X411175Y-1373682D01*
G37*
G36*
X283311Y-1374190D02*
G01*
X283311Y-1430070D01*
X295503Y-1430070D01*
X295503Y-1407210D01*
X316839Y-1407210D01*
X316839Y-1396542D01*
X295503Y-1396542D01*
X295503Y-1385112D01*
X320395Y-1385112D01*
X320395Y-1374190D01*
G37*
G36*
X329793Y-1374190D02*
G01*
X329844Y-1410208D01*
X330504Y-1415542D01*
X331673Y-1420063D01*
X332486Y-1422044D01*
X333552Y-1423771D01*
X336245Y-1426667D01*
X337820Y-1427886D01*
X339648Y-1428851D01*
X343865Y-1430274D01*
X348945Y-1431036D01*
X354685Y-1431036D01*
X359765Y-1430274D01*
X363982Y-1428851D01*
X365709Y-1427886D01*
X367284Y-1426667D01*
X369925Y-1423771D01*
X370992Y-1422044D01*
X371856Y-1420063D01*
X373024Y-1415542D01*
X373634Y-1410208D01*
X373735Y-1374190D01*
X361797Y-1374190D01*
X361797Y-1408480D01*
X361645Y-1411274D01*
X361238Y-1413662D01*
X360476Y-1415694D01*
X359511Y-1417370D01*
X358190Y-1418640D01*
X356463Y-1419504D01*
X354380Y-1420012D01*
X351891Y-1420164D01*
X349300Y-1420012D01*
X347116Y-1419504D01*
X345338Y-1418640D01*
X344017Y-1417370D01*
X343001Y-1415694D01*
X342290Y-1413662D01*
X341884Y-1411274D01*
X341731Y-1408480D01*
X341731Y-1374190D01*
G37*
G36*
X435711Y-1374190D02*
G01*
X435711Y-1430070D01*
X473557Y-1430070D01*
X473557Y-1419148D01*
X447649Y-1419148D01*
X447649Y-1407210D01*
X470001Y-1407210D01*
X470001Y-1396542D01*
X447649Y-1396542D01*
X447649Y-1385112D01*
X473557Y-1385112D01*
X473557Y-1374190D01*
G37*
G36*
X1818893Y-1366774D02*
G01*
X1813814Y-1366977D01*
X1808937Y-1367637D01*
X1804263Y-1368653D01*
X1799843Y-1370076D01*
X1795780Y-1372057D01*
X1792020Y-1374495D01*
X1788566Y-1377289D01*
X1785366Y-1380490D01*
X1782521Y-1384147D01*
X1779981Y-1388110D01*
X1777796Y-1392529D01*
X1775968Y-1397254D01*
X1774545Y-1402537D01*
X1773478Y-1408277D01*
X1772869Y-1414373D01*
X1772666Y-1420876D01*
X1773013Y-1428750D01*
X1797050Y-1428750D01*
X1797050Y-1413002D01*
X1797405Y-1407160D01*
X1798472Y-1401978D01*
X1800199Y-1397508D01*
X1802638Y-1393698D01*
X1805838Y-1390700D01*
X1809648Y-1388567D01*
X1813966Y-1387297D01*
X1818893Y-1386840D01*
X1823821Y-1387297D01*
X1828088Y-1388567D01*
X1831797Y-1390700D01*
X1834896Y-1393698D01*
X1837436Y-1397508D01*
X1839264Y-1401978D01*
X1840382Y-1407160D01*
X1840738Y-1413002D01*
X1840738Y-1428750D01*
X1840382Y-1434642D01*
X1839264Y-1439824D01*
X1837436Y-1444294D01*
X1834896Y-1448054D01*
X1831797Y-1450949D01*
X1828088Y-1453032D01*
X1823821Y-1454251D01*
X1818893Y-1454658D01*
X1813966Y-1454251D01*
X1809648Y-1453032D01*
X1805838Y-1450949D01*
X1802638Y-1448054D01*
X1800199Y-1444294D01*
X1798472Y-1439824D01*
X1797405Y-1434642D01*
X1797050Y-1428750D01*
X1773013Y-1428750D01*
X1773478Y-1433322D01*
X1774545Y-1439011D01*
X1775968Y-1444244D01*
X1777796Y-1449120D01*
X1779981Y-1453591D01*
X1782521Y-1457655D01*
X1785366Y-1461262D01*
X1788566Y-1464462D01*
X1792020Y-1467256D01*
X1795780Y-1469542D01*
X1799843Y-1471422D01*
X1804263Y-1472996D01*
X1808937Y-1474114D01*
X1813814Y-1474774D01*
X1818893Y-1474978D01*
X1823974Y-1474774D01*
X1828800Y-1474114D01*
X1833372Y-1472996D01*
X1837689Y-1471422D01*
X1841855Y-1469542D01*
X1845614Y-1467256D01*
X1849069Y-1464462D01*
X1852168Y-1461262D01*
X1855063Y-1457655D01*
X1857552Y-1453591D01*
X1859737Y-1449120D01*
X1861566Y-1444244D01*
X1863039Y-1439011D01*
X1864055Y-1433322D01*
X1864664Y-1427327D01*
X1864868Y-1420876D01*
X1864664Y-1414373D01*
X1864055Y-1408277D01*
X1863039Y-1402537D01*
X1861566Y-1397254D01*
X1859737Y-1392529D01*
X1857552Y-1388110D01*
X1855063Y-1384147D01*
X1852168Y-1380490D01*
X1849069Y-1377289D01*
X1845614Y-1374495D01*
X1841855Y-1372057D01*
X1837689Y-1370076D01*
X1833372Y-1368653D01*
X1828800Y-1367637D01*
X1823974Y-1366977D01*
G37*
G36*
X1883918Y-1368552D02*
G01*
X1883918Y-1473200D01*
X1905507Y-1473200D01*
X1905507Y-1402588D01*
X1905762Y-1402588D01*
X1915922Y-1423670D01*
X1944624Y-1473200D01*
X1969516Y-1473200D01*
X1969516Y-1368552D01*
X1947925Y-1368552D01*
X1947925Y-1438910D01*
X1947418Y-1438910D01*
X1937512Y-1418082D01*
X1908810Y-1368552D01*
G37*
G36*
X1986788Y-1786483D02*
G01*
X1986788Y-1798675D01*
X2032000Y-1798675D01*
X2031949Y-1812848D01*
X2031288Y-1814880D01*
X2029917Y-1816455D01*
X2027885Y-1817370D01*
X2021789Y-1817370D01*
X2019655Y-1816455D01*
X2018792Y-1815693D01*
X2017877Y-1813915D01*
X2017522Y-1811629D01*
X2017522Y-1798675D01*
X2007362Y-1798675D01*
X2007362Y-1807311D01*
X1986788Y-1817217D01*
X1986788Y-1830679D01*
X2008632Y-1819757D01*
X2009800Y-1822145D01*
X2011273Y-1824228D01*
X2013000Y-1825955D01*
X2014982Y-1827377D01*
X2017115Y-1828495D01*
X2019503Y-1829257D01*
X2022093Y-1829765D01*
X2026767Y-1829816D01*
X2030323Y-1829206D01*
X2033625Y-1828038D01*
X2036419Y-1826412D01*
X2038807Y-1824177D01*
X2040686Y-1821484D01*
X2041956Y-1818436D01*
X2042617Y-1815033D01*
X2042668Y-1786483D01*
G37*
G36*
X2025142Y-1837029D02*
G01*
X2019046Y-1844903D01*
X2034032Y-1856079D01*
X2034032Y-1856841D01*
X1996439Y-1856841D01*
X1996439Y-1841855D01*
X1986788Y-1841855D01*
X1986788Y-1880717D01*
X1996439Y-1880717D01*
X1996439Y-1868779D01*
X2042668Y-1868779D01*
X2042668Y-1850491D01*
G37*
G36*
X2025142Y-1885035D02*
G01*
X2019046Y-1892909D01*
X2034032Y-1904085D01*
X2034032Y-1904847D01*
X1996439Y-1904847D01*
X1996439Y-1889861D01*
X1986788Y-1889861D01*
X1986788Y-1928723D01*
X1996439Y-1928723D01*
X1996439Y-1916785D01*
X2042668Y-1916785D01*
X2042668Y-1898497D01*
G37*
G36*
X-309372Y-842365D02*
G01*
X-309372Y-868781D01*
X-320903Y-854100D01*
X-323291Y-851408D01*
X-328422Y-846988D01*
X-331216Y-845312D01*
X-334162Y-844092D01*
X-337312Y-843483D01*
X-340918Y-843483D01*
X-344373Y-844092D01*
X-347421Y-845362D01*
X-350062Y-847293D01*
X-352348Y-849782D01*
X-354126Y-852678D01*
X-354838Y-854303D01*
X-355752Y-858113D01*
X-356057Y-862431D01*
X-355752Y-866546D01*
X-354838Y-870305D01*
X-353568Y-873404D01*
X-351790Y-876147D01*
X-349605Y-878484D01*
X-347167Y-880465D01*
X-344576Y-881887D01*
X-341833Y-883005D01*
X-337769Y-872591D01*
X-340817Y-871575D01*
X-343712Y-868984D01*
X-344627Y-867714D01*
X-345236Y-866343D01*
X-345643Y-864666D01*
X-345541Y-862228D01*
X-344728Y-859688D01*
X-343052Y-857656D01*
X-342138Y-856843D01*
X-339090Y-856335D01*
X-334772Y-856589D01*
X-333248Y-857199D01*
X-329285Y-859942D01*
X-325831Y-863600D01*
X-310083Y-881989D01*
X-299161Y-881989D01*
X-299161Y-842365D01*
G37*
G36*
X-327101Y-890371D02*
G01*
X-330454Y-890473D01*
X-336550Y-891387D01*
X-339293Y-892149D01*
X-341833Y-893114D01*
X-346151Y-895654D01*
X-349605Y-898855D01*
X-351078Y-900633D01*
X-353314Y-904849D01*
X-354634Y-909675D01*
X-355041Y-915009D01*
X-355041Y-923899D01*
X-344119Y-923899D01*
X-343966Y-912368D01*
X-343408Y-910082D01*
X-342442Y-908050D01*
X-341122Y-906373D01*
X-339344Y-905052D01*
X-337159Y-904087D01*
X-334518Y-903528D01*
X-331419Y-903325D01*
X-322783Y-903325D01*
X-319633Y-903528D01*
X-316890Y-904087D01*
X-314655Y-905052D01*
X-312877Y-906373D01*
X-311658Y-908050D01*
X-310794Y-910082D01*
X-310286Y-912368D01*
X-310083Y-915009D01*
X-310083Y-923899D01*
X-355041Y-923899D01*
X-355041Y-936091D01*
X-299161Y-936091D01*
X-299161Y-915009D01*
X-299618Y-909675D01*
X-300177Y-907186D01*
X-301955Y-902665D01*
X-303174Y-900684D01*
X-304647Y-898855D01*
X-308102Y-895654D01*
X-310083Y-894283D01*
X-312369Y-893114D01*
X-314909Y-892149D01*
X-320649Y-890828D01*
X-323799Y-890473D01*
G37*
G36*
X-192328Y-771245D02*
G01*
X-192328Y-778357D01*
X-228142Y-778357D01*
X-228142Y-789787D01*
X-192328Y-789787D01*
X-192328Y-804773D01*
X-215696Y-790549D01*
X-215696Y-789787D01*
X-228142Y-789787D01*
X-228142Y-792581D01*
X-193090Y-814425D01*
X-182930Y-814425D01*
X-182930Y-789787D01*
X-172262Y-789787D01*
X-172262Y-778357D01*
X-182930Y-778357D01*
X-182930Y-771245D01*
G37*
G36*
X-181914Y-818235D02*
G01*
X-181914Y-830173D01*
X-228142Y-830173D01*
X-228142Y-848461D01*
X-210362Y-861923D01*
X-204520Y-854303D01*
X-219252Y-842873D01*
X-219252Y-842111D01*
X-181914Y-842111D01*
X-181914Y-857097D01*
X-172262Y-857097D01*
X-172262Y-818235D01*
G37*
G36*
X-184708Y-867003D02*
G01*
X-190296Y-876909D01*
X-188671Y-877620D01*
X-185724Y-879652D01*
X-184454Y-880973D01*
X-183438Y-882396D01*
X-182727Y-884021D01*
X-182270Y-885952D01*
X-182168Y-888085D01*
X-182372Y-890625D01*
X-182981Y-892911D01*
X-183997Y-894943D01*
X-185470Y-896721D01*
X-187401Y-898144D01*
X-189788Y-899210D01*
X-192481Y-899820D01*
X-195630Y-900023D01*
X-204520Y-900023D01*
X-207721Y-899820D01*
X-210464Y-899210D01*
X-212801Y-898144D01*
X-214680Y-896721D01*
X-216204Y-894943D01*
X-217322Y-892911D01*
X-217982Y-890625D01*
X-218236Y-888085D01*
X-217728Y-884072D01*
X-217068Y-882497D01*
X-216204Y-881227D01*
X-213563Y-879094D01*
X-210362Y-877671D01*
X-215950Y-867257D01*
X-219100Y-868934D01*
X-221843Y-870813D01*
X-224078Y-872998D01*
X-225856Y-875385D01*
X-227177Y-877976D01*
X-228142Y-880973D01*
X-228701Y-884326D01*
X-228904Y-888085D01*
X-228447Y-893419D01*
X-227126Y-898245D01*
X-224688Y-902512D01*
X-221538Y-906119D01*
X-217271Y-908862D01*
X-212140Y-910945D01*
X-206349Y-912266D01*
X-203098Y-912621D01*
X-196240Y-912621D01*
X-189992Y-911707D01*
X-184658Y-909980D01*
X-182321Y-908862D01*
X-178358Y-906119D01*
X-175209Y-902512D01*
X-173990Y-900430D01*
X-172212Y-895908D01*
X-171653Y-893419D01*
X-171246Y-888085D01*
X-171450Y-884326D01*
X-172110Y-880922D01*
X-173228Y-877824D01*
X-174802Y-875131D01*
X-176631Y-872744D01*
X-178917Y-870559D01*
X-181610Y-868680D01*
G37*
G36*
X-585876Y-1048867D02*
G01*
X-585876Y-1055979D01*
X-621639Y-1055979D01*
X-621639Y-1067409D01*
X-585876Y-1067409D01*
X-585876Y-1082141D01*
X-609244Y-1068171D01*
X-609244Y-1067409D01*
X-621639Y-1067409D01*
X-621639Y-1070203D01*
X-586892Y-1091793D01*
X-576681Y-1091793D01*
X-576681Y-1067409D01*
X-565810Y-1067409D01*
X-565810Y-1055979D01*
X-576681Y-1055979D01*
X-576681Y-1048867D01*
G37*
G36*
X-575970Y-1098143D02*
G01*
X-575970Y-1124559D01*
X-584047Y-1114145D01*
X-591261Y-1105966D01*
X-593699Y-1103731D01*
X-596392Y-1101902D01*
X-599287Y-1100429D01*
X-602488Y-1099667D01*
X-605942Y-1099413D01*
X-609346Y-1099718D01*
X-612495Y-1100683D01*
X-615391Y-1102207D01*
X-617829Y-1104239D01*
X-619912Y-1107033D01*
X-621436Y-1110335D01*
X-622350Y-1114145D01*
X-622655Y-1118463D01*
X-622401Y-1122527D01*
X-621639Y-1126083D01*
X-620217Y-1129385D01*
X-618337Y-1132179D01*
X-616407Y-1134364D01*
X-614070Y-1136243D01*
X-611276Y-1137767D01*
X-608431Y-1138783D01*
X-604418Y-1128369D01*
X-606044Y-1128014D01*
X-608838Y-1126540D01*
X-609955Y-1125575D01*
X-611784Y-1123035D01*
X-612292Y-1119479D01*
X-612140Y-1117447D01*
X-611733Y-1116076D01*
X-610311Y-1113891D01*
X-608736Y-1112621D01*
X-605942Y-1112113D01*
X-602335Y-1112418D01*
X-600811Y-1112774D01*
X-599186Y-1113434D01*
X-597509Y-1114450D01*
X-594360Y-1117498D01*
X-576986Y-1137767D01*
X-565810Y-1137767D01*
X-565810Y-1098143D01*
G37*
G36*
X-565810Y-1145895D02*
G01*
X-587857Y-1156817D01*
X-588924Y-1154430D01*
X-590296Y-1152398D01*
X-591972Y-1150620D01*
X-594004Y-1149197D01*
X-596239Y-1148080D01*
X-598627Y-1147318D01*
X-601167Y-1146810D01*
X-605891Y-1146759D01*
X-609549Y-1147368D01*
X-612851Y-1148537D01*
X-615645Y-1150162D01*
X-617931Y-1152398D01*
X-619709Y-1155090D01*
X-620928Y-1158138D01*
X-621588Y-1161542D01*
X-621639Y-1177899D01*
X-611276Y-1177899D01*
X-611174Y-1163726D01*
X-610412Y-1161694D01*
X-608990Y-1160119D01*
X-608076Y-1159560D01*
X-606958Y-1159205D01*
X-600811Y-1159205D01*
X-599694Y-1159560D01*
X-598779Y-1160119D01*
X-597357Y-1161694D01*
X-596595Y-1163726D01*
X-596544Y-1177899D01*
X-621639Y-1177899D01*
X-621639Y-1190091D01*
X-565810Y-1190091D01*
X-565810Y-1177899D01*
X-586384Y-1177899D01*
X-586384Y-1169263D01*
X-565810Y-1159357D01*
G37*
G36*
X-73050Y-1061567D02*
G01*
X-79502Y-1061872D01*
X-85242Y-1062837D01*
X-90170Y-1064412D01*
X-94386Y-1066647D01*
X-97688Y-1069644D01*
X-100076Y-1073404D01*
X-101498Y-1077772D01*
X-102006Y-1082903D01*
X-91846Y-1082903D01*
X-91592Y-1080668D01*
X-90932Y-1078839D01*
X-89814Y-1077366D01*
X-88290Y-1076299D01*
X-86309Y-1075537D01*
X-84023Y-1074978D01*
X-81381Y-1074623D01*
X-64820Y-1074623D01*
X-59740Y-1075537D01*
X-57810Y-1076299D01*
X-56337Y-1077366D01*
X-55321Y-1078839D01*
X-54711Y-1080668D01*
X-54508Y-1082903D01*
X-54711Y-1085138D01*
X-55321Y-1086967D01*
X-56337Y-1088440D01*
X-57810Y-1089507D01*
X-59740Y-1090422D01*
X-62128Y-1091031D01*
X-64820Y-1091438D01*
X-81381Y-1091438D01*
X-84023Y-1091031D01*
X-86309Y-1090422D01*
X-88290Y-1089507D01*
X-89814Y-1088440D01*
X-90932Y-1086967D01*
X-91592Y-1085138D01*
X-91846Y-1082903D01*
X-102006Y-1082903D01*
X-101498Y-1088034D01*
X-100076Y-1092454D01*
X-97688Y-1096162D01*
X-94386Y-1099159D01*
X-90170Y-1101496D01*
X-85242Y-1103172D01*
X-79502Y-1104138D01*
X-73050Y-1104493D01*
X-66548Y-1104138D01*
X-60909Y-1103172D01*
X-56032Y-1101496D01*
X-51968Y-1099159D01*
X-48615Y-1096162D01*
X-46228Y-1092454D01*
X-44805Y-1088034D01*
X-44348Y-1082903D01*
X-44805Y-1077772D01*
X-46228Y-1073404D01*
X-48615Y-1069644D01*
X-51968Y-1066647D01*
X-56032Y-1064412D01*
X-60909Y-1062837D01*
X-66548Y-1061872D01*
G37*
G36*
X-55270Y-1110843D02*
G01*
X-55270Y-1137259D01*
X-64617Y-1125474D01*
X-69342Y-1119886D01*
X-71780Y-1117498D01*
X-74320Y-1115466D01*
X-77114Y-1113790D01*
X-80162Y-1112672D01*
X-83464Y-1112164D01*
X-86969Y-1112215D01*
X-90271Y-1112824D01*
X-93319Y-1114094D01*
X-95961Y-1115872D01*
X-97180Y-1116939D01*
X-99212Y-1119733D01*
X-100736Y-1123035D01*
X-101650Y-1126845D01*
X-102006Y-1131163D01*
X-101752Y-1135227D01*
X-100990Y-1138783D01*
X-99517Y-1142085D01*
X-97688Y-1144879D01*
X-95707Y-1147064D01*
X-93370Y-1148943D01*
X-90576Y-1150467D01*
X-87782Y-1151483D01*
X-83718Y-1141069D01*
X-85344Y-1140714D01*
X-88138Y-1139240D01*
X-89306Y-1138275D01*
X-91084Y-1135735D01*
X-91592Y-1132179D01*
X-91338Y-1129385D01*
X-90424Y-1127607D01*
X-89611Y-1126591D01*
X-88036Y-1125321D01*
X-85242Y-1124813D01*
X-81686Y-1125118D01*
X-80111Y-1125474D01*
X-78486Y-1126134D01*
X-76860Y-1127150D01*
X-73660Y-1130198D01*
X-56286Y-1150467D01*
X-45110Y-1150467D01*
X-45110Y-1110843D01*
G37*
G36*
X-45110Y-1158595D02*
G01*
X-67208Y-1169517D01*
X-68224Y-1167130D01*
X-69596Y-1165098D01*
X-71272Y-1163320D01*
X-73304Y-1161897D01*
X-75539Y-1160780D01*
X-77927Y-1160018D01*
X-80467Y-1159510D01*
X-85191Y-1159459D01*
X-88849Y-1160068D01*
X-92151Y-1161237D01*
X-94945Y-1162862D01*
X-97231Y-1165098D01*
X-99009Y-1167790D01*
X-100228Y-1170838D01*
X-100888Y-1174242D01*
X-100990Y-1190599D01*
X-90576Y-1190599D01*
X-90474Y-1176426D01*
X-89712Y-1174394D01*
X-88290Y-1172819D01*
X-87376Y-1172260D01*
X-86258Y-1171905D01*
X-80111Y-1171905D01*
X-78994Y-1172260D01*
X-78079Y-1172819D01*
X-76657Y-1174394D01*
X-75895Y-1176426D01*
X-75844Y-1190599D01*
X-100990Y-1190599D01*
X-100990Y-1202791D01*
X-45110Y-1202791D01*
X-45110Y-1190599D01*
X-65684Y-1190599D01*
X-65684Y-1181963D01*
X-45110Y-1172057D01*
G37*
G36*
X622046Y-1606854D02*
G01*
X618185Y-1607210D01*
X614680Y-1608175D01*
X611835Y-1609598D01*
X609346Y-1611477D01*
X607314Y-1613916D01*
X605790Y-1616811D01*
X604875Y-1619910D01*
X604520Y-1623161D01*
X604723Y-1625549D01*
X605282Y-1627733D01*
X613664Y-1627733D01*
X613816Y-1625904D01*
X614273Y-1624279D01*
X614984Y-1622856D01*
X615950Y-1621586D01*
X617220Y-1620621D01*
X618693Y-1619910D01*
X620420Y-1619453D01*
X625754Y-1619453D01*
X627380Y-1619910D01*
X628802Y-1620621D01*
X629920Y-1621586D01*
X630936Y-1622856D01*
X631647Y-1624279D01*
X632104Y-1625904D01*
X632104Y-1629613D01*
X631647Y-1631340D01*
X630936Y-1632813D01*
X629920Y-1634083D01*
X628802Y-1635048D01*
X627380Y-1635760D01*
X625754Y-1636217D01*
X622300Y-1636369D01*
X620420Y-1636217D01*
X618693Y-1635760D01*
X617220Y-1635048D01*
X615950Y-1634083D01*
X614984Y-1632813D01*
X614273Y-1631340D01*
X613816Y-1629613D01*
X613664Y-1627733D01*
X605282Y-1627733D01*
X606196Y-1629613D01*
X607872Y-1632000D01*
X609142Y-1633270D01*
X612902Y-1635607D01*
X612648Y-1636115D01*
X608939Y-1635099D01*
X605282Y-1633575D01*
X601827Y-1631238D01*
X598424Y-1628444D01*
X595122Y-1625193D01*
X588416Y-1617065D01*
X584708Y-1612188D01*
X584708Y-1628749D01*
X587451Y-1632305D01*
X590550Y-1635861D01*
X594360Y-1639214D01*
X598678Y-1642211D01*
X603250Y-1644904D01*
X608330Y-1646986D01*
X613816Y-1648358D01*
X619506Y-1648815D01*
X624179Y-1648409D01*
X628396Y-1647291D01*
X632358Y-1645615D01*
X635508Y-1643227D01*
X636879Y-1641856D01*
X639165Y-1638554D01*
X640791Y-1634591D01*
X641553Y-1630172D01*
X641553Y-1625346D01*
X640791Y-1621028D01*
X639267Y-1617218D01*
X637235Y-1613916D01*
X634695Y-1611172D01*
X631647Y-1609140D01*
X628142Y-1607718D01*
X624179Y-1606956D01*
G37*
G36*
X628142Y-1654403D02*
G01*
X622554Y-1664309D01*
X625703Y-1665935D01*
X628396Y-1668322D01*
X629412Y-1669745D01*
X630123Y-1671370D01*
X630580Y-1673301D01*
X630682Y-1675485D01*
X630478Y-1678025D01*
X629869Y-1680311D01*
X628853Y-1682292D01*
X627380Y-1684070D01*
X625449Y-1685543D01*
X623062Y-1686560D01*
X620369Y-1687169D01*
X617220Y-1687372D01*
X608076Y-1687372D01*
X605028Y-1687169D01*
X602335Y-1686560D01*
X600049Y-1685543D01*
X598170Y-1684070D01*
X596646Y-1682343D01*
X595528Y-1680311D01*
X594868Y-1678025D01*
X594614Y-1675485D01*
X595122Y-1671472D01*
X595782Y-1669897D01*
X596646Y-1668627D01*
X597865Y-1667408D01*
X600659Y-1665630D01*
X602234Y-1665020D01*
X596900Y-1654657D01*
X593750Y-1656283D01*
X591007Y-1658213D01*
X588772Y-1660347D01*
X586994Y-1662785D01*
X585571Y-1665376D01*
X584555Y-1668373D01*
X583946Y-1671726D01*
X583692Y-1675485D01*
X584200Y-1680819D01*
X585724Y-1685594D01*
X586740Y-1687830D01*
X588010Y-1689862D01*
X589534Y-1691741D01*
X591312Y-1693519D01*
X595528Y-1696212D01*
X600456Y-1698294D01*
X603351Y-1699107D01*
X606450Y-1699666D01*
X613156Y-1700072D01*
X619861Y-1699666D01*
X622858Y-1699107D01*
X628192Y-1697329D01*
X630529Y-1696212D01*
X634492Y-1693519D01*
X637641Y-1689862D01*
X638860Y-1687830D01*
X640638Y-1683257D01*
X641197Y-1680819D01*
X641604Y-1675485D01*
X641400Y-1671675D01*
X640740Y-1668272D01*
X639622Y-1665224D01*
X638048Y-1662480D01*
X636117Y-1660093D01*
X633831Y-1657959D01*
X631190Y-1656029D01*
G37*
G36*
X-215392Y-401675D02*
G01*
X-215392Y-441299D01*
X-195326Y-441299D01*
X-195326Y-431139D01*
X-205486Y-431139D01*
X-205486Y-413613D01*
X-159512Y-432409D01*
X-159512Y-419709D01*
X-204978Y-401675D01*
G37*
G36*
X-171958Y-447903D02*
G01*
X-177546Y-457809D01*
X-175920Y-458520D01*
X-172974Y-460552D01*
X-171704Y-461873D01*
X-170688Y-463296D01*
X-169976Y-464921D01*
X-169519Y-466851D01*
X-169418Y-468985D01*
X-169621Y-471525D01*
X-170230Y-473811D01*
X-171246Y-475843D01*
X-172720Y-477621D01*
X-174650Y-479043D01*
X-177038Y-480110D01*
X-179730Y-480720D01*
X-182880Y-480923D01*
X-192024Y-480923D01*
X-195072Y-480720D01*
X-197764Y-480110D01*
X-200050Y-479043D01*
X-201930Y-477621D01*
X-203454Y-475843D01*
X-204571Y-473811D01*
X-205232Y-471525D01*
X-205486Y-468985D01*
X-204978Y-464972D01*
X-204317Y-463397D01*
X-203454Y-462127D01*
X-200914Y-459993D01*
X-197866Y-458571D01*
X-203200Y-448157D01*
X-206349Y-449834D01*
X-209092Y-451713D01*
X-211328Y-453898D01*
X-213106Y-456285D01*
X-214528Y-458876D01*
X-215544Y-461873D01*
X-216154Y-465226D01*
X-216408Y-468985D01*
X-215900Y-474319D01*
X-214375Y-479145D01*
X-213360Y-481330D01*
X-212090Y-483412D01*
X-210566Y-485292D01*
X-208788Y-487019D01*
X-204571Y-489762D01*
X-199644Y-491845D01*
X-193649Y-493166D01*
X-190398Y-493522D01*
X-183489Y-493522D01*
X-177241Y-492607D01*
X-171907Y-490880D01*
X-169570Y-489762D01*
X-165608Y-487019D01*
X-162458Y-483412D01*
X-161239Y-481330D01*
X-159461Y-476808D01*
X-158902Y-474319D01*
X-158496Y-468985D01*
X-158699Y-465226D01*
X-159359Y-461822D01*
X-160477Y-458724D01*
X-162052Y-456031D01*
X-163982Y-453643D01*
X-166268Y-451459D01*
X-168910Y-449580D01*
G37*
G36*
X1748789Y-1672742D02*
G01*
X1746097Y-1672843D01*
X1743456Y-1673250D01*
X1738630Y-1674774D01*
X1736445Y-1675790D01*
X1734413Y-1677060D01*
X1732483Y-1678584D01*
X1730756Y-1680362D01*
X1728063Y-1684528D01*
X1726895Y-1686915D01*
X1725930Y-1689506D01*
X1724609Y-1695399D01*
X1724152Y-1701952D01*
X1724609Y-1708607D01*
X1725930Y-1714398D01*
X1726895Y-1716938D01*
X1729333Y-1721408D01*
X1730756Y-1723288D01*
X1732483Y-1724964D01*
X1736445Y-1727606D01*
X1741017Y-1729536D01*
X1746097Y-1730552D01*
X1748789Y-1730654D01*
X1752549Y-1730451D01*
X1756003Y-1729790D01*
X1759051Y-1728673D01*
X1761743Y-1727098D01*
X1764182Y-1725168D01*
X1766316Y-1722831D01*
X1768246Y-1720189D01*
X1769872Y-1717192D01*
X1759966Y-1711350D01*
X1758340Y-1714601D01*
X1755902Y-1717192D01*
X1754530Y-1718310D01*
X1752854Y-1719122D01*
X1750974Y-1719580D01*
X1748789Y-1719732D01*
X1746250Y-1719529D01*
X1743964Y-1718868D01*
X1741932Y-1717751D01*
X1740154Y-1716176D01*
X1738731Y-1714296D01*
X1737715Y-1712061D01*
X1737055Y-1709369D01*
X1736852Y-1706270D01*
X1736852Y-1697126D01*
X1737055Y-1694027D01*
X1737715Y-1691284D01*
X1738731Y-1688947D01*
X1740154Y-1686966D01*
X1741932Y-1685543D01*
X1743964Y-1684477D01*
X1746250Y-1683867D01*
X1748789Y-1683664D01*
X1752803Y-1684172D01*
X1754378Y-1684832D01*
X1756867Y-1686814D01*
X1758645Y-1689607D01*
X1759204Y-1691284D01*
X1769618Y-1685950D01*
X1767992Y-1682750D01*
X1766062Y-1680057D01*
X1763928Y-1677822D01*
X1761489Y-1676044D01*
X1758899Y-1674622D01*
X1755902Y-1673555D01*
X1752549Y-1672945D01*
G37*
G36*
X1796288Y-1672742D02*
G01*
X1791817Y-1672996D01*
X1787906Y-1673758D01*
X1784705Y-1675180D01*
X1782064Y-1676806D01*
X1779879Y-1679041D01*
X1778254Y-1681632D01*
X1777339Y-1684477D01*
X1776984Y-1687474D01*
X1777230Y-1690014D01*
X1788414Y-1690014D01*
X1788566Y-1687271D01*
X1788922Y-1685950D01*
X1790446Y-1683664D01*
X1791512Y-1682902D01*
X1792833Y-1682343D01*
X1794408Y-1681988D01*
X1798116Y-1681988D01*
X1799691Y-1682343D01*
X1801012Y-1682902D01*
X1802130Y-1683664D01*
X1802942Y-1684731D01*
X1803501Y-1685950D01*
X1803907Y-1688744D01*
X1803806Y-1691436D01*
X1803501Y-1692757D01*
X1802942Y-1693875D01*
X1802130Y-1694840D01*
X1801012Y-1695602D01*
X1799691Y-1696161D01*
X1798116Y-1696516D01*
X1794408Y-1696516D01*
X1792833Y-1696161D01*
X1791512Y-1695602D01*
X1790446Y-1694840D01*
X1788922Y-1692757D01*
X1788414Y-1690014D01*
X1777230Y-1690014D01*
X1777644Y-1691944D01*
X1778457Y-1693875D01*
X1779524Y-1695602D01*
X1782673Y-1698294D01*
X1786382Y-1700174D01*
X1786382Y-1700682D01*
X1783994Y-1701546D01*
X1781810Y-1702663D01*
X1779930Y-1703984D01*
X1778254Y-1705508D01*
X1777034Y-1707388D01*
X1776171Y-1709521D01*
X1775663Y-1711858D01*
X1775480Y-1714144D01*
X1787906Y-1714144D01*
X1788058Y-1711045D01*
X1788414Y-1709623D01*
X1789938Y-1707286D01*
X1791207Y-1706524D01*
X1792681Y-1705965D01*
X1794408Y-1705610D01*
X1798116Y-1705610D01*
X1801164Y-1706524D01*
X1802384Y-1707286D01*
X1803298Y-1708404D01*
X1803907Y-1709623D01*
X1804314Y-1711045D01*
X1804314Y-1715820D01*
X1803907Y-1717243D01*
X1803298Y-1718462D01*
X1802384Y-1719478D01*
X1801164Y-1720240D01*
X1798116Y-1721154D01*
X1794408Y-1721154D01*
X1792681Y-1720799D01*
X1791207Y-1720240D01*
X1789938Y-1719478D01*
X1789074Y-1718462D01*
X1788414Y-1717243D01*
X1787906Y-1714144D01*
X1775480Y-1714144D01*
X1775561Y-1716125D01*
X1776171Y-1719325D01*
X1777593Y-1722221D01*
X1779625Y-1724761D01*
X1782165Y-1726895D01*
X1785467Y-1728673D01*
X1789379Y-1729943D01*
X1793849Y-1730552D01*
X1798675Y-1730552D01*
X1802993Y-1729943D01*
X1806905Y-1728673D01*
X1810207Y-1726895D01*
X1812747Y-1724761D01*
X1814779Y-1722221D01*
X1816150Y-1719325D01*
X1816811Y-1716125D01*
X1816709Y-1711858D01*
X1816201Y-1709521D01*
X1815287Y-1707388D01*
X1814068Y-1705508D01*
X1812442Y-1703984D01*
X1810512Y-1702663D01*
X1808378Y-1701546D01*
X1805939Y-1700682D01*
X1805939Y-1700174D01*
X1809699Y-1698294D01*
X1812798Y-1695602D01*
X1813915Y-1693875D01*
X1814728Y-1691944D01*
X1815185Y-1689811D01*
X1815287Y-1685950D01*
X1814626Y-1683054D01*
X1813356Y-1680260D01*
X1811477Y-1677873D01*
X1809038Y-1675942D01*
X1806143Y-1674418D01*
X1802587Y-1673301D01*
X1798523Y-1672793D01*
G37*
G36*
X351790Y1311808D02*
G01*
X346456Y1311300D01*
X341630Y1309776D01*
X339445Y1308760D01*
X337413Y1307490D01*
X335534Y1305966D01*
X333756Y1304188D01*
X331063Y1299972D01*
X328930Y1295044D01*
X327609Y1289050D01*
X327152Y1282344D01*
X327609Y1275689D01*
X328930Y1269898D01*
X331063Y1265021D01*
X332333Y1262888D01*
X333756Y1261008D01*
X335534Y1259332D01*
X339445Y1256690D01*
X341630Y1255674D01*
X346456Y1254353D01*
X349097Y1253998D01*
X351790Y1253896D01*
X355600Y1254099D01*
X359003Y1254760D01*
X362051Y1255877D01*
X364744Y1257452D01*
X367182Y1259382D01*
X369316Y1261719D01*
X371246Y1264361D01*
X372872Y1267358D01*
X362966Y1272946D01*
X361340Y1269847D01*
X358902Y1267104D01*
X357530Y1266088D01*
X355854Y1265377D01*
X353974Y1264970D01*
X351790Y1264818D01*
X349250Y1265021D01*
X346964Y1265631D01*
X344932Y1266647D01*
X343154Y1268120D01*
X341731Y1270101D01*
X340715Y1272438D01*
X340106Y1275181D01*
X339852Y1278280D01*
X339852Y1287424D01*
X340106Y1290523D01*
X340715Y1293215D01*
X341731Y1295450D01*
X343154Y1297330D01*
X344932Y1298854D01*
X346964Y1299972D01*
X349250Y1300632D01*
X351790Y1300886D01*
X355803Y1300378D01*
X357378Y1299718D01*
X358648Y1298854D01*
X359867Y1297635D01*
X361645Y1294841D01*
X362204Y1293266D01*
X372618Y1298600D01*
X370992Y1301800D01*
X369062Y1304493D01*
X366928Y1306728D01*
X364490Y1308506D01*
X361899Y1309928D01*
X358902Y1310995D01*
X355549Y1311605D01*
G37*
G36*
X447293Y1311808D02*
G01*
X442112Y1311300D01*
X437642Y1309878D01*
X433984Y1307490D01*
X431038Y1304188D01*
X428751Y1299972D01*
X427075Y1295044D01*
X426059Y1289304D01*
X425704Y1282852D01*
X425995Y1277518D01*
X438658Y1277518D01*
X438810Y1291183D01*
X439115Y1293825D01*
X439674Y1296111D01*
X440435Y1298092D01*
X441655Y1299616D01*
X443179Y1300734D01*
X445058Y1301394D01*
X447293Y1301648D01*
X449427Y1301394D01*
X451256Y1300734D01*
X452729Y1299616D01*
X453898Y1298092D01*
X454710Y1296111D01*
X455269Y1293825D01*
X455676Y1288186D01*
X455574Y1274521D01*
X455269Y1271879D01*
X454710Y1269542D01*
X453898Y1267612D01*
X452729Y1266037D01*
X451256Y1264920D01*
X449427Y1264259D01*
X447293Y1264056D01*
X445058Y1264259D01*
X443179Y1264920D01*
X441655Y1266037D01*
X440435Y1267612D01*
X439674Y1269542D01*
X439115Y1271879D01*
X438658Y1277518D01*
X425995Y1277518D01*
X427075Y1270660D01*
X428751Y1265682D01*
X431038Y1261516D01*
X433984Y1258163D01*
X437642Y1255776D01*
X442112Y1254353D01*
X447293Y1253896D01*
X452424Y1254353D01*
X456793Y1255776D01*
X460400Y1258163D01*
X463296Y1261516D01*
X465632Y1265682D01*
X467309Y1270660D01*
X468325Y1276350D01*
X468630Y1282852D01*
X468325Y1289304D01*
X467309Y1295044D01*
X465632Y1299972D01*
X463296Y1304188D01*
X460400Y1307490D01*
X456793Y1309878D01*
X452424Y1311300D01*
G37*
G36*
X391414Y1310792D02*
G01*
X377952Y1293266D01*
X385572Y1287170D01*
X397002Y1302156D01*
X397764Y1302156D01*
X397764Y1264564D01*
X382778Y1264564D01*
X382778Y1254912D01*
X421640Y1254912D01*
X421640Y1264564D01*
X409701Y1264564D01*
X409701Y1310792D01*
G37*
G36*
X351790Y1184808D02*
G01*
X346456Y1184300D01*
X341630Y1182776D01*
X339445Y1181760D01*
X337413Y1180490D01*
X335534Y1178966D01*
X333756Y1177188D01*
X331063Y1172972D01*
X328930Y1168044D01*
X327609Y1162050D01*
X327152Y1155344D01*
X327609Y1148689D01*
X328930Y1142898D01*
X331063Y1138021D01*
X332333Y1135888D01*
X333756Y1134008D01*
X335534Y1132332D01*
X339445Y1129690D01*
X341630Y1128674D01*
X346456Y1127353D01*
X349097Y1126998D01*
X351790Y1126896D01*
X355600Y1127099D01*
X359003Y1127760D01*
X362051Y1128877D01*
X364744Y1130452D01*
X367182Y1132382D01*
X369316Y1134719D01*
X371246Y1137361D01*
X372872Y1140358D01*
X362966Y1145946D01*
X361340Y1142847D01*
X358902Y1140104D01*
X357530Y1139088D01*
X355854Y1138377D01*
X353974Y1137970D01*
X351790Y1137818D01*
X349250Y1138021D01*
X346964Y1138631D01*
X344932Y1139647D01*
X343154Y1141120D01*
X341731Y1143101D01*
X340715Y1145438D01*
X340106Y1148181D01*
X339852Y1151280D01*
X339852Y1160424D01*
X340106Y1163523D01*
X340715Y1166215D01*
X341731Y1168450D01*
X343154Y1170330D01*
X344932Y1171854D01*
X346964Y1172972D01*
X349250Y1173632D01*
X351790Y1173886D01*
X355803Y1173378D01*
X357378Y1172718D01*
X358648Y1171854D01*
X359867Y1170635D01*
X361645Y1167841D01*
X362204Y1166266D01*
X372618Y1171600D01*
X370992Y1174800D01*
X369062Y1177493D01*
X366928Y1179728D01*
X364490Y1181506D01*
X361899Y1182928D01*
X358902Y1183995D01*
X355549Y1184605D01*
G37*
G36*
X391414Y1183792D02*
G01*
X377952Y1166266D01*
X385572Y1160170D01*
X397002Y1175156D01*
X397764Y1175156D01*
X397764Y1137564D01*
X382778Y1137564D01*
X382778Y1127912D01*
X421640Y1127912D01*
X421640Y1137564D01*
X409701Y1137564D01*
X409701Y1183792D01*
G37*
G36*
X439420Y1183792D02*
G01*
X425958Y1166266D01*
X433578Y1160170D01*
X445008Y1175156D01*
X445770Y1175156D01*
X445770Y1137564D01*
X430784Y1137564D01*
X430784Y1127912D01*
X469646Y1127912D01*
X469646Y1137564D01*
X457708Y1137564D01*
X457708Y1183792D01*
G37*
G36*
X605790Y575208D02*
G01*
X600456Y574700D01*
X595630Y573176D01*
X593445Y572160D01*
X591413Y570890D01*
X589534Y569366D01*
X587756Y567588D01*
X586333Y565607D01*
X583946Y561035D01*
X582930Y558444D01*
X581609Y552450D01*
X581152Y545744D01*
X581609Y539089D01*
X582930Y533298D01*
X585063Y528421D01*
X586333Y526288D01*
X587756Y524408D01*
X589534Y522732D01*
X593445Y520090D01*
X595630Y519074D01*
X600456Y517753D01*
X603097Y517398D01*
X605790Y517296D01*
X609600Y517499D01*
X613003Y518159D01*
X616051Y519277D01*
X618744Y520852D01*
X621182Y522782D01*
X623316Y525119D01*
X625246Y527761D01*
X626872Y530758D01*
X616966Y536346D01*
X615340Y533247D01*
X612902Y530504D01*
X611530Y529488D01*
X609854Y528777D01*
X607974Y528370D01*
X605790Y528218D01*
X603250Y528421D01*
X600964Y529031D01*
X598932Y530047D01*
X597154Y531520D01*
X595731Y533501D01*
X594715Y535838D01*
X594106Y538581D01*
X593852Y541680D01*
X593852Y550824D01*
X594106Y553923D01*
X594715Y556615D01*
X595731Y558850D01*
X597154Y560730D01*
X598932Y562305D01*
X600964Y563372D01*
X603250Y564083D01*
X605790Y564286D01*
X609803Y563778D01*
X611378Y563118D01*
X612648Y562254D01*
X613867Y561035D01*
X615645Y558241D01*
X616204Y556666D01*
X626618Y562000D01*
X624992Y565200D01*
X623062Y567893D01*
X620928Y570128D01*
X618490Y571906D01*
X615899Y573328D01*
X612902Y574395D01*
X609549Y575005D01*
G37*
G36*
X701040Y575208D02*
G01*
X696976Y574903D01*
X693420Y573938D01*
X690118Y572668D01*
X687324Y570890D01*
X685038Y568706D01*
X683260Y566318D01*
X681685Y563727D01*
X680466Y560984D01*
X691134Y556920D01*
X692150Y559968D01*
X693928Y562254D01*
X695096Y563321D01*
X696468Y564032D01*
X698144Y564591D01*
X700024Y564794D01*
X703986Y563829D01*
X706018Y562203D01*
X707237Y559816D01*
X707390Y556310D01*
X707136Y554634D01*
X706272Y552348D01*
X703580Y548386D01*
X700125Y544931D01*
X681736Y529234D01*
X681736Y518312D01*
X721360Y518312D01*
X721360Y528472D01*
X694944Y528472D01*
X709574Y540004D01*
X712317Y542442D01*
X714756Y544982D01*
X716737Y547573D01*
X718261Y550367D01*
X719378Y553262D01*
X720039Y556463D01*
X720039Y560019D01*
X719378Y563473D01*
X718108Y566521D01*
X716229Y569163D01*
X713790Y571449D01*
X710895Y573227D01*
X707339Y574497D01*
X703275Y575106D01*
G37*
G36*
X645414Y574192D02*
G01*
X631952Y556666D01*
X639572Y550570D01*
X651002Y565556D01*
X651764Y565556D01*
X651764Y527964D01*
X636778Y527964D01*
X636778Y518312D01*
X675640Y518312D01*
X675640Y527964D01*
X663702Y527964D01*
X663702Y574192D01*
G37*
G36*
X445008Y1070508D02*
G01*
X440943Y1070203D01*
X437388Y1069238D01*
X434085Y1067968D01*
X431292Y1066190D01*
X429006Y1064006D01*
X427228Y1061618D01*
X425653Y1059027D01*
X424434Y1056284D01*
X435101Y1052220D01*
X436118Y1055268D01*
X437896Y1057554D01*
X439064Y1058621D01*
X440435Y1059332D01*
X442112Y1059891D01*
X443992Y1060094D01*
X447954Y1059129D01*
X449986Y1057503D01*
X451205Y1055116D01*
X451358Y1051610D01*
X451104Y1049934D01*
X450240Y1047648D01*
X447548Y1043686D01*
X444093Y1040231D01*
X425704Y1024534D01*
X425704Y1013612D01*
X465328Y1013612D01*
X465328Y1023772D01*
X438912Y1023772D01*
X453542Y1035303D01*
X456285Y1037742D01*
X458724Y1040282D01*
X460705Y1042873D01*
X462229Y1045667D01*
X463346Y1048562D01*
X464007Y1051763D01*
X464007Y1055319D01*
X463346Y1058773D01*
X462127Y1061821D01*
X460349Y1064463D01*
X457911Y1066749D01*
X454863Y1068527D01*
X451307Y1069797D01*
X447243Y1070406D01*
G37*
G36*
X497840Y1070508D02*
G01*
X492506Y1070000D01*
X487680Y1068476D01*
X485495Y1067460D01*
X483463Y1066190D01*
X481584Y1064666D01*
X479806Y1062888D01*
X478383Y1060907D01*
X475996Y1056335D01*
X474980Y1053744D01*
X473659Y1047750D01*
X473201Y1041044D01*
X473659Y1034389D01*
X474980Y1028598D01*
X477113Y1023721D01*
X478383Y1021587D01*
X479806Y1019708D01*
X481584Y1018032D01*
X485495Y1015390D01*
X487680Y1014374D01*
X492506Y1013053D01*
X495147Y1012698D01*
X497840Y1012596D01*
X501650Y1012799D01*
X505053Y1013460D01*
X508101Y1014577D01*
X510793Y1016152D01*
X513232Y1018082D01*
X515366Y1020419D01*
X517296Y1023061D01*
X518922Y1026058D01*
X509016Y1031646D01*
X507390Y1028547D01*
X504951Y1025804D01*
X503580Y1024788D01*
X501904Y1024077D01*
X500024Y1023670D01*
X497840Y1023518D01*
X495300Y1023721D01*
X493014Y1024331D01*
X490982Y1025347D01*
X489204Y1026820D01*
X487781Y1028801D01*
X486765Y1031138D01*
X486156Y1033881D01*
X485901Y1036980D01*
X485901Y1046124D01*
X486156Y1049223D01*
X486765Y1051915D01*
X487781Y1054150D01*
X489204Y1056030D01*
X490982Y1057605D01*
X493014Y1058672D01*
X495300Y1059383D01*
X497840Y1059586D01*
X501853Y1059078D01*
X503428Y1058418D01*
X504698Y1057554D01*
X505917Y1056335D01*
X507695Y1053541D01*
X508254Y1051966D01*
X518668Y1057300D01*
X517042Y1060500D01*
X515213Y1063193D01*
X513130Y1065428D01*
X510793Y1067206D01*
X508101Y1068628D01*
X505053Y1069695D01*
X501650Y1070305D01*
G37*
G36*
X390652Y1069492D02*
G01*
X390652Y1059840D01*
X397764Y1059840D01*
X397764Y1023264D01*
X390652Y1023264D01*
X390652Y1013612D01*
X417068Y1013612D01*
X417068Y1023264D01*
X409956Y1023264D01*
X409956Y1059840D01*
X417068Y1059840D01*
X417068Y1069492D01*
G37*
G36*
X1186535Y391617D02*
G01*
X1161030Y341579D01*
X1173073Y341579D01*
X1183741Y361137D01*
X1192631Y351993D01*
X1173327Y341325D01*
X1173073Y341579D01*
X1161030Y341579D01*
X1159865Y339293D01*
X1170533Y328625D01*
X1222857Y355041D01*
X1214221Y363677D01*
X1202029Y357327D01*
X1188821Y370281D01*
X1195425Y382727D01*
G37*
G36*
X1226921Y344627D02*
G01*
X1223162Y344220D01*
X1219555Y343103D01*
X1216101Y341172D01*
X1212951Y338531D01*
X1210360Y335534D01*
X1208633Y332181D01*
X1207465Y328930D01*
X1207109Y325831D01*
X1207465Y322580D01*
X1208633Y319481D01*
X1210208Y316534D01*
X1212443Y313893D01*
X1214424Y312166D01*
X1218031Y310337D01*
X1221587Y310032D01*
X1225346Y310896D01*
X1227175Y311607D01*
X1227683Y311099D01*
X1214475Y299415D01*
X1196441Y317449D01*
X1189075Y310083D01*
X1213205Y285953D01*
X1237081Y306781D01*
X1230985Y314655D01*
X1229055Y314756D01*
X1225651Y315518D01*
X1223264Y316941D01*
X1220876Y319379D01*
X1220012Y320852D01*
X1219454Y322427D01*
X1219301Y324053D01*
X1219454Y325577D01*
X1220012Y327050D01*
X1220876Y328472D01*
X1222603Y330403D01*
X1224026Y331622D01*
X1225499Y332536D01*
X1227074Y333146D01*
X1228699Y333451D01*
X1230325Y333248D01*
X1231950Y332689D01*
X1233525Y331724D01*
X1235049Y330403D01*
X1236370Y328879D01*
X1237386Y327304D01*
X1238046Y325678D01*
X1238351Y324053D01*
X1238300Y320497D01*
X1237589Y316941D01*
X1248511Y315671D01*
X1249273Y320751D01*
X1248765Y326085D01*
X1247800Y328879D01*
X1246479Y331673D01*
X1244549Y334467D01*
X1240129Y339039D01*
X1236421Y341833D01*
X1232611Y343611D01*
X1228801Y344525D01*
G37*
G36*
X1247749Y303733D02*
G01*
X1239621Y295605D01*
X1256385Y278841D01*
X1264767Y286969D01*
G37*
G36*
X1282039Y296113D02*
G01*
X1275181Y289255D01*
X1283563Y280873D01*
X1250797Y248107D01*
X1263751Y235153D01*
X1285849Y238201D01*
X1284579Y247853D01*
X1266037Y245313D01*
X1265529Y245821D01*
X1291945Y272491D01*
X1302613Y261823D01*
X1309471Y268681D01*
G37*
G36*
X1317599Y260553D02*
G01*
X1310487Y253441D01*
X1329029Y234645D01*
X1310487Y236778D01*
X1306931Y237032D01*
X1301851Y236931D01*
X1298600Y236220D01*
X1295501Y235153D01*
X1292758Y233578D01*
X1290167Y231343D01*
X1287729Y228650D01*
X1286103Y225755D01*
X1285189Y222656D01*
X1285087Y219405D01*
X1285646Y216103D01*
X1286865Y212801D01*
X1288846Y209296D01*
X1291691Y205943D01*
X1294739Y203250D01*
X1297787Y201371D01*
X1301089Y200101D01*
X1304391Y199339D01*
X1307439Y199136D01*
X1310487Y199593D01*
X1313484Y200456D01*
X1316329Y201625D01*
X1311757Y211785D01*
X1309471Y210769D01*
X1307185Y210108D01*
X1304137Y210108D01*
X1302613Y210515D01*
X1301140Y211378D01*
X1298854Y213614D01*
X1297787Y215442D01*
X1297279Y217982D01*
X1297838Y220522D01*
X1298600Y221792D01*
X1299819Y223215D01*
X1302613Y225247D01*
X1303985Y225856D01*
X1307541Y226618D01*
X1312214Y226720D01*
X1337665Y224739D01*
X1345539Y232613D01*
G37*
G36*
X1349857Y228295D02*
G01*
X1342999Y221437D01*
X1351381Y213055D01*
X1318615Y180289D01*
X1331823Y167335D01*
X1353667Y170383D01*
X1352397Y180035D01*
X1333855Y177495D01*
X1333347Y178003D01*
X1359763Y204419D01*
X1370431Y193751D01*
X1377289Y200609D01*
G37*
G36*
X1385163Y192735D02*
G01*
X1377543Y169621D01*
X1375003Y170535D01*
X1372514Y170992D01*
X1370076Y171043D01*
X1367637Y170637D01*
X1365300Y169824D01*
X1363065Y168656D01*
X1360982Y167132D01*
X1357579Y163880D01*
X1355445Y160985D01*
X1353972Y157835D01*
X1353108Y154635D01*
X1352905Y153111D01*
X1352980Y151333D01*
X1364589Y151333D01*
X1364691Y152349D01*
X1365707Y154381D01*
X1368907Y157683D01*
X1370939Y159156D01*
X1371955Y159461D01*
X1373987Y159308D01*
X1375003Y158953D01*
X1377035Y157429D01*
X1386179Y148539D01*
X1375765Y138125D01*
X1365961Y148183D01*
X1364843Y150215D01*
X1364589Y151333D01*
X1352980Y151333D01*
X1353616Y148285D01*
X1354886Y145135D01*
X1356918Y142240D01*
X1377035Y122123D01*
X1416405Y161493D01*
X1407769Y170129D01*
X1393291Y155651D01*
X1387195Y162001D01*
X1394815Y183337D01*
G37*
G36*
X1409903Y134112D02*
G01*
X1406753Y133959D01*
X1403553Y133197D01*
X1400403Y131673D01*
X1397508Y129539D01*
X1394764Y126796D01*
X1392580Y123901D01*
X1391107Y120751D01*
X1390345Y117551D01*
X1390207Y114249D01*
X1401927Y114249D01*
X1401927Y115265D01*
X1402232Y116230D01*
X1403705Y118059D01*
X1407160Y121462D01*
X1408074Y122072D01*
X1409039Y122377D01*
X1411173Y122224D01*
X1412189Y121869D01*
X1414119Y120345D01*
X1423263Y111455D01*
X1412849Y101041D01*
X1403045Y111099D01*
X1402029Y113131D01*
X1401927Y114249D01*
X1390207Y114249D01*
X1390700Y111201D01*
X1391970Y108051D01*
X1394002Y105003D01*
X1414119Y85039D01*
X1453489Y124409D01*
X1444853Y133045D01*
X1430629Y118821D01*
X1419301Y130302D01*
X1416253Y132334D01*
X1413103Y133604D01*
G37*
G36*
X1462125Y115773D02*
G01*
X1422755Y76403D01*
X1431899Y67259D01*
X1460093Y76149D01*
X1451203Y47701D01*
X1460347Y38557D01*
X1499971Y78181D01*
X1491843Y86309D01*
X1465427Y59893D01*
X1465173Y60147D01*
X1468475Y69291D01*
X1474825Y90881D01*
X1444345Y81737D01*
X1470253Y107645D01*
G37*
G36*
X634492Y995578D02*
G01*
X630631Y995171D01*
X627126Y994054D01*
X623925Y992530D01*
X621284Y990498D01*
X619455Y987958D01*
X617982Y984910D01*
X617067Y981710D01*
X616712Y978306D01*
X616915Y975766D01*
X617778Y972769D01*
X618693Y971092D01*
X619810Y969822D01*
X621233Y968654D01*
X623722Y967181D01*
X625602Y966368D01*
X625602Y965606D01*
X607822Y966876D01*
X607822Y992276D01*
X597408Y992276D01*
X597408Y957986D01*
X629158Y955954D01*
X630428Y965860D01*
X629158Y967130D01*
X627888Y968908D01*
X626770Y971448D01*
X626364Y974496D01*
X626516Y976325D01*
X626973Y977900D01*
X627684Y979373D01*
X628650Y980592D01*
X629920Y981608D01*
X631342Y982319D01*
X632968Y982726D01*
X635508Y982878D01*
X637489Y982726D01*
X639216Y982319D01*
X640791Y981608D01*
X642112Y980592D01*
X643128Y979322D01*
X643839Y977798D01*
X644296Y976020D01*
X644296Y971956D01*
X643839Y970127D01*
X643128Y968502D01*
X640943Y965911D01*
X638149Y963726D01*
X636524Y962812D01*
X643636Y954176D01*
X647700Y957224D01*
X649427Y959103D01*
X651002Y961288D01*
X652373Y963930D01*
X654050Y970178D01*
X654304Y973988D01*
X654253Y976477D01*
X653491Y981049D01*
X651967Y985062D01*
X649935Y988517D01*
X647293Y991311D01*
X644144Y993343D01*
X640588Y994714D01*
X636625Y995476D01*
G37*
G36*
X643636Y948842D02*
G01*
X643636Y936904D01*
X597408Y936904D01*
X597408Y918616D01*
X614934Y905154D01*
X621030Y913028D01*
X606044Y924204D01*
X606044Y924966D01*
X643636Y924966D01*
X643636Y909980D01*
X653288Y909980D01*
X653288Y948842D01*
G37*
G36*
X653288Y898804D02*
G01*
X631444Y887882D01*
X630326Y890269D01*
X628853Y892302D01*
X627126Y894080D01*
X625094Y895502D01*
X622960Y896619D01*
X620623Y897382D01*
X618032Y897890D01*
X613359Y897940D01*
X609803Y897331D01*
X606501Y896162D01*
X603707Y894537D01*
X601319Y892251D01*
X599440Y889609D01*
X598678Y888136D01*
X597763Y884885D01*
X597408Y881278D01*
X597408Y866800D01*
X608076Y866800D01*
X608177Y880973D01*
X608838Y883005D01*
X609346Y883818D01*
X611124Y885139D01*
X612241Y885494D01*
X618286Y885494D01*
X620471Y884580D01*
X621842Y883005D01*
X622503Y880973D01*
X622554Y866800D01*
X597408Y866800D01*
X597408Y854608D01*
X653288Y854608D01*
X653288Y866800D01*
X632714Y866800D01*
X632714Y875436D01*
X653288Y885342D01*
G37*
G36*
X1586484Y-1673809D02*
G01*
X1586484Y-1684274D01*
X1612849Y-1684324D01*
X1614881Y-1685086D01*
X1616506Y-1686509D01*
X1617065Y-1687423D01*
X1617472Y-1689811D01*
X1617370Y-1694688D01*
X1617065Y-1695805D01*
X1616506Y-1696720D01*
X1614881Y-1698142D01*
X1612849Y-1698904D01*
X1598676Y-1699006D01*
X1598676Y-1684274D01*
X1586484Y-1684274D01*
X1586484Y-1729435D01*
X1598676Y-1729435D01*
X1598676Y-1709166D01*
X1607312Y-1709166D01*
X1617218Y-1729435D01*
X1630680Y-1729435D01*
X1619758Y-1707642D01*
X1622145Y-1706575D01*
X1624228Y-1705203D01*
X1625955Y-1703527D01*
X1627378Y-1701546D01*
X1628495Y-1699260D01*
X1629308Y-1696872D01*
X1629765Y-1694332D01*
X1629867Y-1689607D01*
X1629206Y-1685950D01*
X1628089Y-1682648D01*
X1626412Y-1679854D01*
X1624177Y-1677568D01*
X1621485Y-1675790D01*
X1618437Y-1674571D01*
X1615033Y-1673910D01*
G37*
G36*
X1641856Y-1673809D02*
G01*
X1639824Y-1705356D01*
X1649730Y-1706575D01*
X1651101Y-1705305D01*
X1653032Y-1704035D01*
X1655419Y-1703120D01*
X1658366Y-1702816D01*
X1660194Y-1702917D01*
X1661820Y-1703374D01*
X1663242Y-1704086D01*
X1664462Y-1705051D01*
X1665478Y-1706321D01*
X1666189Y-1707743D01*
X1666646Y-1709369D01*
X1666646Y-1713636D01*
X1666189Y-1715363D01*
X1665478Y-1716938D01*
X1663344Y-1719376D01*
X1661871Y-1720189D01*
X1660143Y-1720646D01*
X1658112Y-1720850D01*
X1656080Y-1720697D01*
X1654200Y-1720240D01*
X1652524Y-1719529D01*
X1651000Y-1718564D01*
X1648663Y-1716024D01*
X1646682Y-1712925D01*
X1638046Y-1719783D01*
X1639468Y-1721967D01*
X1642059Y-1724863D01*
X1645157Y-1727454D01*
X1650746Y-1729739D01*
X1654048Y-1730298D01*
X1660347Y-1730400D01*
X1664919Y-1729638D01*
X1668983Y-1728216D01*
X1672386Y-1726184D01*
X1675180Y-1723542D01*
X1676298Y-1722120D01*
X1677924Y-1718767D01*
X1678635Y-1716836D01*
X1679397Y-1712772D01*
X1679397Y-1708657D01*
X1678635Y-1705000D01*
X1677263Y-1701698D01*
X1675485Y-1698904D01*
X1673199Y-1696618D01*
X1670405Y-1694840D01*
X1667256Y-1693722D01*
X1663954Y-1693214D01*
X1660855Y-1693164D01*
X1658569Y-1693418D01*
X1656638Y-1694027D01*
X1655013Y-1694942D01*
X1653692Y-1696059D01*
X1652016Y-1698193D01*
X1650238Y-1702054D01*
X1649475Y-1702054D01*
X1650746Y-1684274D01*
X1676146Y-1684274D01*
X1676146Y-1673809D01*
G37*
G36*
X-327304Y-398881D02*
G01*
X-329844Y-399084D01*
X-332130Y-399643D01*
X-334162Y-400608D01*
X-335940Y-401929D01*
X-337464Y-403555D01*
X-338785Y-405434D01*
X-340766Y-409803D01*
X-341274Y-409803D01*
X-342138Y-407873D01*
X-343204Y-406146D01*
X-344525Y-404571D01*
X-347726Y-402082D01*
X-349554Y-401320D01*
X-351637Y-400812D01*
X-355549Y-400761D01*
X-358495Y-401370D01*
X-361137Y-402640D01*
X-363575Y-404418D01*
X-364642Y-405485D01*
X-366420Y-408279D01*
X-367690Y-411581D01*
X-368452Y-415391D01*
X-368706Y-419709D01*
X-359562Y-419709D01*
X-359105Y-416356D01*
X-358546Y-414985D01*
X-357784Y-413867D01*
X-355600Y-412343D01*
X-352704Y-411835D01*
X-349961Y-411988D01*
X-348691Y-412343D01*
X-346608Y-413867D01*
X-345795Y-414985D01*
X-345236Y-416356D01*
X-344830Y-419709D01*
X-335940Y-419709D01*
X-335483Y-416153D01*
X-334924Y-414782D01*
X-334162Y-413613D01*
X-331774Y-412089D01*
X-328828Y-411581D01*
X-325729Y-411734D01*
X-324307Y-412089D01*
X-323037Y-412750D01*
X-321970Y-413613D01*
X-321157Y-414782D01*
X-320598Y-416153D01*
X-320192Y-419709D01*
X-320598Y-423265D01*
X-321157Y-424688D01*
X-321970Y-425805D01*
X-323037Y-426821D01*
X-324307Y-427532D01*
X-325729Y-427939D01*
X-328828Y-428091D01*
X-330352Y-427939D01*
X-331774Y-427532D01*
X-333044Y-426821D01*
X-334162Y-425805D01*
X-334924Y-424688D01*
X-335483Y-423265D01*
X-335940Y-419709D01*
X-344830Y-419709D01*
X-345236Y-423062D01*
X-345795Y-424434D01*
X-347573Y-426466D01*
X-349961Y-427482D01*
X-354228Y-427482D01*
X-355600Y-427075D01*
X-356768Y-426466D01*
X-357784Y-425551D01*
X-358546Y-424434D01*
X-359105Y-423062D01*
X-359562Y-419709D01*
X-368706Y-419709D01*
X-368452Y-424078D01*
X-367690Y-428091D01*
X-366420Y-431342D01*
X-364642Y-433933D01*
X-362407Y-436168D01*
X-359816Y-437743D01*
X-357073Y-438708D01*
X-353974Y-439013D01*
X-351637Y-438861D01*
X-349554Y-438302D01*
X-347726Y-437438D01*
X-344525Y-434848D01*
X-343204Y-433324D01*
X-341274Y-429615D01*
X-340766Y-429615D01*
X-338785Y-434136D01*
X-337464Y-435965D01*
X-335940Y-437489D01*
X-334162Y-438810D01*
X-332130Y-439775D01*
X-329844Y-440334D01*
X-327304Y-440537D01*
X-323850Y-440232D01*
X-320700Y-439267D01*
X-317906Y-437489D01*
X-315620Y-435203D01*
X-313639Y-432155D01*
X-312318Y-428599D01*
X-311353Y-424484D01*
X-311048Y-419709D01*
X-311353Y-415086D01*
X-312318Y-410819D01*
X-313639Y-407314D01*
X-316687Y-403148D01*
X-319227Y-401116D01*
X-322224Y-399745D01*
X-325526Y-398983D01*
G37*
G36*
X-311810Y-447395D02*
G01*
X-333908Y-458317D01*
X-334924Y-455930D01*
X-336296Y-453898D01*
X-337972Y-452120D01*
X-340004Y-450697D01*
X-342239Y-449580D01*
X-344627Y-448818D01*
X-347167Y-448309D01*
X-351891Y-448259D01*
X-355549Y-448868D01*
X-358851Y-450037D01*
X-361645Y-451662D01*
X-363931Y-453898D01*
X-365709Y-456590D01*
X-366928Y-459638D01*
X-367588Y-463042D01*
X-367690Y-479399D01*
X-357276Y-479399D01*
X-357174Y-465226D01*
X-356412Y-463194D01*
X-354990Y-461619D01*
X-354076Y-461060D01*
X-352958Y-460705D01*
X-346811Y-460705D01*
X-345694Y-461060D01*
X-344779Y-461619D01*
X-343357Y-463194D01*
X-342595Y-465226D01*
X-342544Y-479399D01*
X-367690Y-479399D01*
X-367690Y-491591D01*
X-311810Y-491591D01*
X-311810Y-479399D01*
X-332384Y-479399D01*
X-332384Y-470763D01*
X-311810Y-460857D01*
G37*
G36*
X-487070Y-351637D02*
G01*
X-487070Y-378053D01*
X-495147Y-367639D01*
X-502361Y-359460D01*
X-504799Y-357225D01*
X-507492Y-355396D01*
X-510387Y-353923D01*
X-513588Y-353161D01*
X-517042Y-352907D01*
X-520446Y-353212D01*
X-523595Y-354177D01*
X-526491Y-355701D01*
X-528929Y-357733D01*
X-531012Y-360527D01*
X-532536Y-363829D01*
X-533450Y-367639D01*
X-533755Y-371957D01*
X-533501Y-376021D01*
X-532739Y-379577D01*
X-531317Y-382879D01*
X-529437Y-385673D01*
X-527507Y-387959D01*
X-525170Y-389737D01*
X-522376Y-391312D01*
X-519531Y-392531D01*
X-515518Y-381863D01*
X-517143Y-381508D01*
X-519938Y-380034D01*
X-522020Y-377952D01*
X-522884Y-376529D01*
X-523392Y-372973D01*
X-523240Y-370941D01*
X-522833Y-369570D01*
X-522224Y-368401D01*
X-521411Y-367436D01*
X-519176Y-366014D01*
X-517753Y-365658D01*
X-514197Y-365760D01*
X-511098Y-366572D01*
X-509371Y-367385D01*
X-507847Y-368604D01*
X-504596Y-371906D01*
X-488086Y-391261D01*
X-476910Y-391261D01*
X-476910Y-351637D01*
G37*
G36*
X-486765Y-397357D02*
G01*
X-486765Y-409295D01*
X-532739Y-409295D01*
X-532739Y-427583D01*
X-515213Y-441045D01*
X-509168Y-433171D01*
X-524154Y-421995D01*
X-524154Y-421233D01*
X-486765Y-421233D01*
X-486765Y-436219D01*
X-476910Y-436219D01*
X-476910Y-397357D01*
G37*
G36*
X-476910Y-447395D02*
G01*
X-498957Y-458317D01*
X-500024Y-455930D01*
X-501396Y-453898D01*
X-503072Y-452120D01*
X-505104Y-450697D01*
X-507339Y-449580D01*
X-509727Y-448818D01*
X-512267Y-448309D01*
X-516991Y-448259D01*
X-520649Y-448868D01*
X-523951Y-450037D01*
X-526745Y-451662D01*
X-529031Y-453898D01*
X-530809Y-456590D01*
X-532028Y-459638D01*
X-532688Y-463042D01*
X-532739Y-479399D01*
X-522376Y-479399D01*
X-522274Y-465226D01*
X-521512Y-463194D01*
X-520090Y-461619D01*
X-519176Y-461060D01*
X-518058Y-460705D01*
X-511911Y-460705D01*
X-510793Y-461060D01*
X-509879Y-461619D01*
X-508457Y-463194D01*
X-507695Y-465226D01*
X-507644Y-479399D01*
X-532739Y-479399D01*
X-532739Y-491591D01*
X-476910Y-491591D01*
X-476910Y-479399D01*
X-497484Y-479399D01*
X-497484Y-470763D01*
X-476910Y-460857D01*
G37*
G36*
X252272Y-499973D02*
G01*
X252272Y-507085D01*
X216458Y-507085D01*
X216458Y-518515D01*
X252272Y-518515D01*
X252272Y-533247D01*
X228854Y-519277D01*
X228854Y-518515D01*
X216458Y-518515D01*
X216458Y-521309D01*
X251256Y-542899D01*
X261620Y-542899D01*
X261620Y-518515D01*
X272338Y-518515D01*
X272338Y-507085D01*
X261620Y-507085D01*
X261620Y-499973D01*
G37*
G36*
X272338Y-548995D02*
G01*
X250444Y-559917D01*
X249326Y-557530D01*
X247853Y-555447D01*
X246125Y-553720D01*
X244094Y-552297D01*
X241960Y-551180D01*
X239623Y-550418D01*
X237032Y-549910D01*
X232359Y-549859D01*
X228803Y-550468D01*
X225501Y-551637D01*
X222707Y-553262D01*
X220319Y-555498D01*
X218440Y-558190D01*
X217678Y-559663D01*
X216763Y-562914D01*
X216458Y-566521D01*
X216458Y-580999D01*
X227075Y-580999D01*
X227177Y-566826D01*
X227838Y-564794D01*
X228346Y-563981D01*
X230174Y-562660D01*
X231241Y-562305D01*
X237286Y-562305D01*
X239471Y-563219D01*
X240842Y-564794D01*
X241503Y-566826D01*
X241554Y-580999D01*
X216458Y-580999D01*
X216458Y-593191D01*
X272338Y-593191D01*
X272338Y-580999D01*
X251764Y-580999D01*
X251764Y-572363D01*
X272338Y-562457D01*
G37*
G36*
X139446Y-499973D02*
G01*
X135585Y-500278D01*
X132130Y-501243D01*
X129235Y-502767D01*
X126746Y-504799D01*
X124764Y-507238D01*
X123240Y-509879D01*
X122275Y-513029D01*
X121920Y-516483D01*
X122123Y-518922D01*
X122732Y-521055D01*
X131114Y-521055D01*
X131216Y-519125D01*
X131673Y-517448D01*
X132384Y-515975D01*
X133400Y-514705D01*
X134620Y-513842D01*
X136093Y-513181D01*
X139750Y-512673D01*
X143154Y-512826D01*
X144830Y-513181D01*
X146202Y-513842D01*
X147320Y-514705D01*
X148336Y-515975D01*
X149047Y-517448D01*
X149504Y-519125D01*
X149656Y-521055D01*
X149504Y-522985D01*
X149047Y-524662D01*
X148336Y-526135D01*
X147320Y-527405D01*
X146202Y-528269D01*
X144830Y-528929D01*
X141274Y-529437D01*
X137820Y-529285D01*
X136093Y-528929D01*
X134620Y-528269D01*
X133400Y-527405D01*
X132384Y-526135D01*
X131673Y-524662D01*
X131216Y-522985D01*
X131114Y-521055D01*
X122732Y-521055D01*
X123596Y-522935D01*
X125882Y-525830D01*
X130302Y-528675D01*
X130098Y-529437D01*
X126339Y-528370D01*
X122732Y-526643D01*
X119227Y-524408D01*
X115874Y-521817D01*
X112572Y-518515D01*
X109220Y-514705D01*
X102158Y-505561D01*
X102158Y-522071D01*
X104851Y-525627D01*
X108000Y-529183D01*
X111810Y-532536D01*
X116078Y-535533D01*
X120700Y-538073D01*
X125780Y-540105D01*
X131216Y-541426D01*
X134061Y-541782D01*
X139293Y-541782D01*
X143764Y-541172D01*
X147878Y-539800D01*
X151434Y-537768D01*
X152958Y-536549D01*
X155448Y-533501D01*
X157530Y-529945D01*
X158648Y-525678D01*
X158953Y-523443D01*
X158953Y-518718D01*
X158191Y-514400D01*
X156667Y-510590D01*
X154635Y-507288D01*
X152095Y-504494D01*
X150672Y-503326D01*
X147320Y-501497D01*
X143611Y-500380D01*
G37*
G36*
X158038Y-548995D02*
G01*
X136144Y-559917D01*
X135026Y-557530D01*
X133553Y-555447D01*
X131826Y-553720D01*
X129794Y-552297D01*
X127660Y-551180D01*
X125323Y-550418D01*
X122732Y-549910D01*
X118059Y-549859D01*
X114503Y-550468D01*
X111201Y-551637D01*
X108407Y-553262D01*
X106019Y-555498D01*
X104139Y-558190D01*
X103378Y-559663D01*
X102463Y-562914D01*
X102158Y-566521D01*
X102158Y-580999D01*
X112776Y-580999D01*
X112877Y-566826D01*
X113537Y-564794D01*
X114046Y-563981D01*
X115874Y-562660D01*
X116941Y-562305D01*
X122986Y-562305D01*
X125171Y-563219D01*
X126542Y-564794D01*
X127203Y-566826D01*
X127254Y-580999D01*
X102158Y-580999D01*
X102158Y-593191D01*
X158038Y-593191D01*
X158038Y-580999D01*
X137464Y-580999D01*
X137464Y-572363D01*
X158038Y-562457D01*
G37*
G36*
X135636Y-1118209D02*
G01*
X135636Y-1130147D01*
X89408Y-1130147D01*
X89408Y-1148435D01*
X106933Y-1161897D01*
X113030Y-1154023D01*
X98044Y-1142847D01*
X98044Y-1142085D01*
X135636Y-1142085D01*
X135636Y-1157071D01*
X145288Y-1157071D01*
X145288Y-1118209D01*
G37*
G36*
X145288Y-1165961D02*
G01*
X116585Y-1183995D01*
X89408Y-1166977D01*
X89408Y-1179931D01*
X108204Y-1191107D01*
X108204Y-1191361D01*
X89408Y-1202029D01*
X89408Y-1216253D01*
X116332Y-1199235D01*
X145288Y-1217269D01*
X145288Y-1204061D01*
X124714Y-1192377D01*
X124714Y-1192123D01*
X145288Y-1179931D01*
G37*
G36*
X145288Y-1222095D02*
G01*
X123444Y-1233017D01*
X122326Y-1230630D01*
X120853Y-1228598D01*
X119126Y-1226820D01*
X117094Y-1225397D01*
X114960Y-1224280D01*
X112623Y-1223518D01*
X110032Y-1223010D01*
X105359Y-1222959D01*
X101803Y-1223568D01*
X98501Y-1224737D01*
X95707Y-1226362D01*
X93319Y-1228598D01*
X91440Y-1231290D01*
X90678Y-1232763D01*
X89763Y-1236014D01*
X89408Y-1239621D01*
X89408Y-1254099D01*
X100076Y-1254099D01*
X100177Y-1239926D01*
X100838Y-1237894D01*
X101346Y-1237081D01*
X103124Y-1235760D01*
X104241Y-1235405D01*
X110286Y-1235405D01*
X112471Y-1236319D01*
X113842Y-1237894D01*
X114503Y-1239926D01*
X114554Y-1254099D01*
X89408Y-1254099D01*
X89408Y-1266291D01*
X145288Y-1266291D01*
X145288Y-1254099D01*
X124714Y-1254099D01*
X124714Y-1245463D01*
X145288Y-1235557D01*
G37*
G36*
X262636Y-1125321D02*
G01*
X262636Y-1137259D01*
X216408Y-1137259D01*
X216408Y-1155547D01*
X233934Y-1169009D01*
X240029Y-1161389D01*
X225044Y-1149959D01*
X225044Y-1149197D01*
X262636Y-1149197D01*
X262636Y-1164183D01*
X272288Y-1164183D01*
X272288Y-1125321D01*
G37*
G36*
X272288Y-1173073D02*
G01*
X243586Y-1191361D01*
X216408Y-1174089D01*
X216408Y-1187297D01*
X235204Y-1198219D01*
X235204Y-1198473D01*
X216408Y-1209395D01*
X216408Y-1223619D01*
X243332Y-1206347D01*
X272288Y-1224381D01*
X272288Y-1211173D01*
X251714Y-1199489D01*
X251714Y-1199235D01*
X272288Y-1187297D01*
G37*
G36*
X216408Y-1227937D02*
G01*
X216408Y-1270101D01*
X227329Y-1270101D01*
X227329Y-1255115D01*
X272288Y-1255115D01*
X272288Y-1242923D01*
X227329Y-1242923D01*
X227329Y-1227937D01*
G37*
G36*
X1282192Y-371094D02*
G01*
X1282192Y-389382D01*
X1295654Y-389382D01*
X1295654Y-457708D01*
X1282192Y-457708D01*
X1282192Y-475742D01*
X1331976Y-475742D01*
X1331976Y-457708D01*
X1318260Y-457708D01*
X1318260Y-389382D01*
X1331976Y-389382D01*
X1331976Y-371094D01*
G37*
G36*
X1351026Y-371094D02*
G01*
X1351026Y-475742D01*
X1372362Y-475742D01*
X1372362Y-405384D01*
X1372870Y-405384D01*
X1382776Y-426466D01*
X1411478Y-475742D01*
X1436370Y-475742D01*
X1436370Y-371094D01*
X1415034Y-371094D01*
X1415034Y-441706D01*
X1414526Y-441706D01*
X1404366Y-420624D01*
X1375918Y-371094D01*
G37*
G36*
X1452118Y-371094D02*
G01*
X1452118Y-391414D01*
X1480312Y-391414D01*
X1480312Y-475742D01*
X1503172Y-475742D01*
X1503172Y-391414D01*
X1531620Y-391414D01*
X1531620Y-371094D01*
G37*
D10*
X1879864Y182760D02*
G01*
X1956915Y259811D01*
X1879864Y182760D02*
G01*
X1846816Y215808D01*
X1839452Y230355D01*
X1839452Y237898D01*
X1843224Y248856D01*
X1854179Y259811D01*
X1865134Y263583D01*
X1872500Y263403D01*
X1887227Y256219D01*
X1920275Y223172D01*
X1804248Y258373D02*
G01*
X1881299Y335424D01*
X1743184Y356080D02*
G01*
X1739412Y345122D01*
X1739412Y330395D01*
X1743184Y319440D01*
X1757911Y304713D01*
X1768866Y300941D01*
X1783595Y300941D01*
X1794550Y304713D01*
X1809457Y312077D01*
X1827778Y330395D01*
X1834962Y345122D01*
X1838733Y356080D01*
X1838733Y370806D01*
X1834962Y381761D01*
X1820235Y396491D01*
X1809277Y400263D01*
X1794550Y400263D01*
X1783595Y396491D01*
X1678525Y384098D02*
G01*
X1689480Y380326D01*
X1704210Y380326D01*
X1715165Y384098D01*
X1730072Y391462D01*
X1748391Y409780D01*
X1755576Y424510D01*
X1759348Y435465D01*
X1759348Y450192D01*
X1755576Y461149D01*
X1740849Y475876D01*
X1729892Y479648D01*
X1715165Y479648D01*
X1704210Y475876D01*
X1689661Y468513D01*
X1671342Y450192D01*
X1663799Y435465D01*
X1660027Y424510D01*
X1660027Y409780D01*
X1663799Y398825D01*
X1678525Y384098D01*
X1617639Y444985D02*
G01*
X1694690Y522033D01*
X1617639Y444985D02*
G01*
X1584413Y478210D01*
X1577047Y492760D01*
X1577228Y500123D01*
X1580819Y511258D01*
X1588185Y518622D01*
X1599321Y522213D01*
X1606504Y522213D01*
X1621053Y514850D01*
X1654279Y481624D02*
G01*
X1621053Y514850D01*
X1613867Y529577D01*
X1613867Y536762D01*
X1617459Y547898D01*
X1628594Y559033D01*
X1639730Y562625D01*
X1646915Y562625D01*
X1661462Y555261D01*
X1694690Y522033D01*
X1541846Y520776D02*
G01*
X1618896Y597827D01*
X1618896Y597827D02*
G01*
X1574893Y641830D01*
X1444142Y618482D02*
G01*
X1550647Y666076D01*
X1444142Y618482D02*
G01*
X1491736Y724989D01*
X1513827Y651530D02*
G01*
X1477187Y688169D01*
X1390439Y672185D02*
G01*
X1467490Y749233D01*
X1390439Y672185D02*
G01*
X1364754Y697867D01*
X1357391Y712416D01*
X1357391Y727143D01*
X1361163Y738098D01*
X1368526Y753005D01*
X1386847Y771326D01*
X1401574Y778510D01*
X1412529Y782281D01*
X1427259Y782281D01*
X1441805Y774918D01*
X1467490Y749233D01*
X1314825Y747798D02*
G01*
X1391876Y824849D01*
X1314825Y747798D02*
G01*
X1267051Y795573D01*
X1351465Y784438D02*
G01*
X1322009Y813892D01*
X1391876Y824849D02*
G01*
X1344101Y872624D01*
X334794Y111907D02*
G01*
X443760Y184551D01*
X334794Y184551D02*
G01*
X443760Y111907D01*
X355622Y218841D02*
G01*
X350288Y229255D01*
X334794Y245003D01*
X443760Y245003D01*
X-451586Y-1813915D02*
G01*
X-451586Y-1868525D01*
X-448030Y-1879447D01*
X-440664Y-1886813D01*
X-429742Y-1890369D01*
X-422376Y-1890369D01*
X-411708Y-1886813D01*
X-404342Y-1879447D01*
X-400786Y-1868525D01*
X-400786Y-1813915D01*
X-325856Y-1824837D02*
G01*
X-332968Y-1817471D01*
X-343890Y-1813915D01*
X-358622Y-1813915D01*
X-369290Y-1817471D01*
X-376656Y-1824837D01*
X-376656Y-1832203D01*
X-373100Y-1839315D01*
X-369290Y-1843125D01*
X-362178Y-1846681D01*
X-340334Y-1854047D01*
X-332968Y-1857603D01*
X-329412Y-1861159D01*
X-325856Y-1868525D01*
X-325856Y-1879447D01*
X-332968Y-1886813D01*
X-343890Y-1890369D01*
X-358622Y-1890369D01*
X-369290Y-1886813D01*
X-376656Y-1879447D01*
X-301726Y-1813915D02*
G01*
X-301726Y-1890369D01*
X-301726Y-1813915D02*
G01*
X-268960Y-1813915D01*
X-258038Y-1817471D01*
X-254482Y-1821281D01*
X-250926Y-1828393D01*
X-250926Y-1835759D01*
X-254482Y-1843125D01*
X-258038Y-1846681D01*
X-268960Y-1850237D01*
X-301726Y-1850237D02*
G01*
X-268960Y-1850237D01*
X-258038Y-1854047D01*
X-254482Y-1857603D01*
X-250926Y-1864969D01*
X-250926Y-1875891D01*
X-254482Y-1883003D01*
X-258038Y-1886813D01*
X-268960Y-1890369D01*
X-301726Y-1890369D01*
X-223240Y-1832203D02*
G01*
X-223240Y-1828393D01*
X-219684Y-1821281D01*
X-215874Y-1817471D01*
X-208762Y-1813915D01*
X-194030Y-1813915D01*
X-186918Y-1817471D01*
X-183108Y-1821281D01*
X-179552Y-1828393D01*
X-179552Y-1835759D01*
X-183108Y-1843125D01*
X-190474Y-1854047D01*
X-226796Y-1890369D01*
X-175996Y-1890369D01*
G36*
X-844600Y895807D02*
G01*
X-844600Y826566D01*
X-829310Y826566D01*
X-829310Y895807D01*
G37*
G36*
X-321106Y2765501D02*
G01*
X-321106Y2750261D01*
X-251866Y2750261D01*
X-251866Y2765501D01*
G37*
G36*
X3863136Y-1364792D02*
G01*
X3863136Y-1434033D01*
X3878376Y-1434033D01*
X3878376Y-1364792D01*
G37*
G36*
X2936036Y-1364792D02*
G01*
X2936036Y-1434033D01*
X2951276Y-1434033D01*
X2951276Y-1364792D01*
G37*
G36*
X-321106Y1927301D02*
G01*
X-321106Y1912061D01*
X-251866Y1912061D01*
X-251866Y1927301D01*
G37*
G36*
X402793Y2054301D02*
G01*
X402793Y2039061D01*
X472033Y2039061D01*
X472033Y2054301D01*
G37*
G36*
X1419148Y-1851507D02*
G01*
X1419148Y-1897227D01*
X1434338Y-1897227D01*
X1434338Y-1851507D01*
G37*
G36*
X1243888Y-1851507D02*
G01*
X1243888Y-1897227D01*
X1259078Y-1897227D01*
X1259078Y-1851507D01*
G37*
G36*
X1049985Y-1856333D02*
G01*
X1049985Y-1893316D01*
X1080465Y-1893316D01*
X1080465Y-1856333D01*
G37*
G36*
X1049985Y-1692859D02*
G01*
X1049985Y-1729841D01*
X1080465Y-1729841D01*
X1080465Y-1692859D01*
G37*
G36*
X907287Y-1742287D02*
G01*
X907287Y-1843887D01*
X958087Y-1793087D01*
G37*
G36*
X2003348Y-1527454D02*
G01*
X2003348Y-1596694D01*
X2018588Y-1596694D01*
X2018588Y-1527454D01*
G37*
G36*
X2043887Y348081D02*
G01*
X2042464Y346659D01*
X2042464Y294894D01*
X2095195Y294182D01*
X2043887Y345490D01*
G37*
G36*
X85293Y-853998D02*
G01*
X85293Y-869238D01*
X154533Y-869238D01*
X154533Y-853998D01*
G37*
G36*
X212293Y-853998D02*
G01*
X212293Y-869238D01*
X281533Y-869238D01*
X281533Y-853998D01*
G37*
G36*
X1208836Y-386892D02*
G01*
X1208836Y-456133D01*
X1224076Y-456133D01*
X1224076Y-386892D01*
G37*
D11*
X-896086Y-2008987D02*
G01*
X-805916Y-2069947D01*
X-695426Y-2092299D01*
X3415055Y-2092299D01*
X4423435Y-2092299D01*
X4523765Y-2075027D01*
X4631461Y-2003145D01*
X4697247Y-1884019D01*
X4707915Y-1784959D01*
X4683023Y-1690725D01*
X4624095Y-1607667D01*
X2613685Y402488D01*
X-494766Y3511194D01*
X-577824Y3570122D01*
X-704824Y3595268D01*
X-835634Y3557676D01*
X-913104Y3494938D01*
X-962126Y3410864D01*
X-979398Y3310534D01*
X-979398Y-1808327D01*
X-957046Y-1918817D01*
X-896086Y-2008987D01*
D12*
X-816383Y2338019D02*
G01*
X-816383Y2528011D01*
X-726213Y2618181D01*
X-546381Y2618181D01*
X-446305Y2518105D01*
X-446305Y2348179D01*
X-536475Y2258009D01*
X-736373Y2258009D01*
X-816383Y2338019D01*
X-891313Y2565603D02*
G01*
X-801806Y2655110D01*
X-753137Y2693111D02*
G01*
X-519457Y2693111D01*
X-470788Y2655110D02*
G01*
X-381281Y2565603D01*
X-753137Y2183079D02*
G01*
X-519457Y2183079D01*
X-470788Y2221080D02*
G01*
X-381281Y2310587D01*
X-891313Y2310587D02*
G01*
X-801806Y2221080D01*
X-381281Y2310587D02*
G01*
X-381281Y2565603D01*
X-891313Y2310587D02*
G01*
X-891313Y2565603D01*
X-822172Y1421528D02*
G01*
X-822172Y1611520D01*
X-732002Y1701690D01*
X-552170Y1701690D01*
X-452094Y1601614D01*
X-452094Y1431688D01*
X-542264Y1341518D01*
X-742162Y1341518D01*
X-822172Y1421528D01*
X-897102Y1649112D02*
G01*
X-807595Y1738619D01*
X-758926Y1776620D02*
G01*
X-525246Y1776620D01*
X-476577Y1738619D02*
G01*
X-387070Y1649112D01*
X-758926Y1266588D02*
G01*
X-525246Y1266588D01*
X-476577Y1304589D02*
G01*
X-387070Y1394096D01*
X-897102Y1394096D02*
G01*
X-807595Y1304589D01*
X-387070Y1394096D02*
G01*
X-387070Y1649112D01*
X-897102Y1394096D02*
G01*
X-897102Y1649112D01*
X261899Y1888388D02*
G01*
X261899Y1698396D01*
X171729Y1608226D01*
X-8102Y1608226D01*
X-108178Y1708302D01*
X-108178Y1878228D01*
X-18008Y1968398D01*
X181889Y1968398D01*
X261899Y1888388D01*
X336829Y1660804D02*
G01*
X247322Y1571297D01*
X198653Y1533296D02*
G01*
X-35026Y1533296D01*
X-83695Y1571297D02*
G01*
X-173202Y1660804D01*
X198653Y2043328D02*
G01*
X-35026Y2043328D01*
X-83695Y2005327D02*
G01*
X-173202Y1915820D01*
X336829Y1915820D02*
G01*
X247322Y2005327D01*
X-173202Y1915820D02*
G01*
X-173202Y1660804D01*
X336829Y1915820D02*
G01*
X336829Y1660804D01*
D10*
X-675967Y811347D02*
G01*
X-597077Y811347D01*
X-597077Y911067D01*
X-675967Y911067D01*
X-735205Y811347D02*
G01*
X-798855Y811347D01*
X-814095Y826587D01*
X-814095Y895827D01*
X-798855Y911067D01*
X-735205Y911067D01*
X-682965Y809467D02*
G01*
X-611162Y809467D01*
X-611162Y709747D01*
X-682965Y709747D01*
X-728207Y809467D02*
G01*
X-800011Y809467D01*
X-800011Y709747D01*
X-728207Y709747D01*
X-336349Y2596883D02*
G01*
X-336349Y2517993D01*
X-236628Y2517993D01*
X-236628Y2596883D01*
X-336349Y2656121D02*
G01*
X-336349Y2719771D01*
X-321109Y2735011D01*
X-251868Y2735011D01*
X-236628Y2719771D01*
X-236628Y2656121D01*
X3709781Y-1349529D02*
G01*
X3630891Y-1349529D01*
X3630891Y-1449250D01*
X3709781Y-1449250D01*
X3769019Y-1349529D02*
G01*
X3832669Y-1349529D01*
X3847909Y-1364769D01*
X3847909Y-1434010D01*
X3832669Y-1449250D01*
X3769019Y-1449250D01*
X2782686Y-1349529D02*
G01*
X2703796Y-1349529D01*
X2703796Y-1449250D01*
X2782686Y-1449250D01*
X2841924Y-1349529D02*
G01*
X2905574Y-1349529D01*
X2920814Y-1364769D01*
X2920814Y-1434010D01*
X2905574Y-1449250D01*
X2841924Y-1449250D01*
X-336349Y1758685D02*
G01*
X-336349Y1679795D01*
X-236628Y1679795D01*
X-236628Y1758685D01*
X-336349Y1817923D02*
G01*
X-336349Y1881573D01*
X-321109Y1896813D01*
X-251868Y1896813D01*
X-236628Y1881573D01*
X-236628Y1817923D01*
X387550Y1885685D02*
G01*
X387550Y1806795D01*
X487271Y1806795D01*
X487271Y1885685D01*
X387550Y1944923D02*
G01*
X387550Y2008573D01*
X402790Y2023813D01*
X472031Y2023813D01*
X487271Y2008573D01*
X487271Y1944923D01*
D12*
X3585479Y-1922373D02*
G01*
X3395487Y-1922373D01*
X3305317Y-1832203D01*
X3305317Y-1652371D01*
X3405393Y-1552295D01*
X3575319Y-1552295D01*
X3665489Y-1642465D01*
X3665489Y-1842363D01*
X3585479Y-1922373D01*
X3357895Y-1997303D02*
G01*
X3268388Y-1907796D01*
X3230387Y-1859127D02*
G01*
X3230387Y-1625447D01*
X3268388Y-1576778D02*
G01*
X3357895Y-1487271D01*
X3740419Y-1859127D02*
G01*
X3740419Y-1625447D01*
X3702418Y-1576778D02*
G01*
X3612911Y-1487271D01*
X3612911Y-1997303D02*
G01*
X3702418Y-1907796D01*
X3612911Y-1487271D02*
G01*
X3357895Y-1487271D01*
X3612911Y-1997303D02*
G01*
X3357895Y-1997303D01*
X2671081Y-1922373D02*
G01*
X2481089Y-1922373D01*
X2390919Y-1832203D01*
X2390919Y-1652371D01*
X2490995Y-1552295D01*
X2660921Y-1552295D01*
X2751091Y-1642465D01*
X2751091Y-1842363D01*
X2671081Y-1922373D01*
X2443497Y-1997303D02*
G01*
X2353990Y-1907796D01*
X2315989Y-1859127D02*
G01*
X2315989Y-1625447D01*
X2353990Y-1576778D02*
G01*
X2443497Y-1487271D01*
X2826021Y-1859127D02*
G01*
X2826021Y-1625447D01*
X2788020Y-1576778D02*
G01*
X2698513Y-1487271D01*
X2698513Y-1997303D02*
G01*
X2788020Y-1907796D01*
X2698513Y-1487271D02*
G01*
X2443497Y-1487271D01*
X2698513Y-1997303D02*
G01*
X2443497Y-1997303D01*
D13*
X377408Y1553093D02*
G01*
X497413Y1553093D01*
X377408Y1476093D02*
G01*
X377408Y1553093D01*
X377408Y1363090D02*
G01*
X497413Y1363090D01*
X377408Y1440091D02*
G01*
X377408Y1363090D01*
X497413Y1440091D02*
G01*
X497413Y1363090D01*
X497413Y1476093D02*
G01*
X497413Y1553093D01*
X-346491Y1413395D02*
G01*
X-226486Y1413395D01*
X-346491Y1336395D02*
G01*
X-346491Y1413395D01*
X-346491Y1223393D02*
G01*
X-226486Y1223393D01*
X-346491Y1300393D02*
G01*
X-346491Y1223393D01*
X-226486Y1300393D02*
G01*
X-226486Y1223393D01*
X-226486Y1336395D02*
G01*
X-226486Y1413395D01*
X2476017Y-1459392D02*
G01*
X2476017Y-1339387D01*
X2553017Y-1459392D02*
G01*
X2476017Y-1459392D01*
X2666019Y-1459392D02*
G01*
X2666019Y-1339387D01*
X2589019Y-1459392D02*
G01*
X2666019Y-1459392D01*
X2589019Y-1339387D02*
G01*
X2666019Y-1339387D01*
X2553017Y-1339387D02*
G01*
X2476017Y-1339387D01*
X-346491Y2238893D02*
G01*
X-226486Y2238893D01*
X-346491Y2161893D02*
G01*
X-346491Y2238893D01*
X-346491Y2048890D02*
G01*
X-226486Y2048890D01*
X-346491Y2125891D02*
G01*
X-346491Y2048890D01*
X-226486Y2125891D02*
G01*
X-226486Y2048890D01*
X-226486Y2161893D02*
G01*
X-226486Y2238893D01*
X3339091Y-1339387D02*
G01*
X3339091Y-1459392D01*
X3262091Y-1339387D02*
G01*
X3339091Y-1339387D01*
X3149089Y-1339387D02*
G01*
X3149089Y-1459392D01*
X3226089Y-1339387D02*
G01*
X3149089Y-1339387D01*
X3226089Y-1459392D02*
G01*
X3149089Y-1459392D01*
X3262091Y-1459392D02*
G01*
X3339091Y-1459392D01*
X2424694Y-1339387D02*
G01*
X2424694Y-1459392D01*
X2347694Y-1339387D02*
G01*
X2424694Y-1339387D01*
X2234692Y-1339387D02*
G01*
X2234692Y-1459392D01*
X2311692Y-1339387D02*
G01*
X2234692Y-1339387D01*
X2311692Y-1459392D02*
G01*
X2234692Y-1459392D01*
X2347694Y-1459392D02*
G01*
X2424694Y-1459392D01*
X3390414Y-1459392D02*
G01*
X3390414Y-1339387D01*
X3467414Y-1459392D02*
G01*
X3390414Y-1459392D01*
X3580417Y-1459392D02*
G01*
X3580417Y-1339387D01*
X3503416Y-1459392D02*
G01*
X3580417Y-1459392D01*
X3503416Y-1339387D02*
G01*
X3580417Y-1339387D01*
X3467414Y-1339387D02*
G01*
X3390414Y-1339387D01*
X497413Y1591716D02*
G01*
X377408Y1591716D01*
X497413Y1668716D02*
G01*
X497413Y1591716D01*
X497413Y1781718D02*
G01*
X377408Y1781718D01*
X497413Y1704718D02*
G01*
X497413Y1781718D01*
X377408Y1704718D02*
G01*
X377408Y1781718D01*
X377408Y1668716D02*
G01*
X377408Y1591716D01*
X-226486Y1452016D02*
G01*
X-346491Y1452016D01*
X-226486Y1529016D02*
G01*
X-226486Y1452016D01*
X-226486Y1642018D02*
G01*
X-346491Y1642018D01*
X-226486Y1565018D02*
G01*
X-226486Y1642018D01*
X-346491Y1565018D02*
G01*
X-346491Y1642018D01*
X-346491Y1529016D02*
G01*
X-346491Y1452016D01*
X-226486Y2290213D02*
G01*
X-346491Y2290213D01*
X-226486Y2367213D02*
G01*
X-226486Y2290213D01*
X-226486Y2480216D02*
G01*
X-346491Y2480216D01*
X-226486Y2403215D02*
G01*
X-226486Y2480216D01*
X-346491Y2403215D02*
G01*
X-346491Y2480216D01*
X-346491Y2367213D02*
G01*
X-346491Y2290213D01*
D10*
X1426730Y-1523870D02*
G01*
X1426730Y-1859104D01*
X1251485Y-1523870D02*
G01*
X1251485Y-1859104D01*
X1426730Y-1751919D02*
G01*
X1251485Y-1751919D01*
D12*
X1616984Y-1236576D02*
G01*
X1426992Y-1236576D01*
X1336822Y-1146406D01*
X1336822Y-966574D01*
X1436898Y-866498D01*
X1606824Y-866498D01*
X1696994Y-956668D01*
X1696994Y-1156566D01*
X1616984Y-1236576D01*
X1389400Y-1311506D02*
G01*
X1299893Y-1221999D01*
X1261892Y-1173330D02*
G01*
X1261892Y-939650D01*
X1299893Y-890981D02*
G01*
X1389400Y-801474D01*
X1771924Y-1173330D02*
G01*
X1771924Y-939650D01*
X1733923Y-890981D02*
G01*
X1644416Y-801474D01*
X1644416Y-1311506D02*
G01*
X1733923Y-1221999D01*
X1644416Y-801474D02*
G01*
X1389400Y-801474D01*
X1644416Y-1311506D02*
G01*
X1389400Y-1311506D01*
X99997Y-300004D02*
G01*
X99997Y599998D01*
X-800006Y-300004D02*
G01*
X99997Y-300004D01*
X99997Y599998D02*
G01*
X-800006Y599998D01*
X-800006Y599998D02*
G01*
X-800006Y-300004D01*
X-700003Y-275000D02*
G01*
X-775002Y-200002D01*
D10*
X1057628Y-1885718D02*
G01*
X782383Y-1885718D01*
X782383Y-1885718D02*
G01*
X782383Y-1861416D01*
X1057628Y-1700476D02*
G01*
X782383Y-1700476D01*
X782383Y-1700476D02*
G01*
X782383Y-1724779D01*
X1016690Y-1885718D02*
G01*
X1016688Y-1700476D01*
D12*
X937788Y-1551787D02*
G01*
X879368Y-1592427D01*
X879368Y-1592427D02*
G01*
X879368Y-1511147D01*
X879368Y-1511147D02*
G01*
X937788Y-1551787D01*
X1070008Y-1641787D02*
G01*
X770008Y-1641787D01*
X770008Y-1461787D02*
G01*
X1070008Y-1461787D01*
X960648Y-1602587D02*
G01*
X960648Y-1500987D01*
X273911Y-1466885D02*
G01*
X473910Y-1466885D01*
X273911Y-1966887D02*
G01*
X473910Y-1966887D01*
X493910Y-1616885D02*
G01*
X493910Y-1496888D01*
X253911Y-1616885D02*
G01*
X253911Y-1496888D01*
X493910Y-1816887D02*
G01*
X493910Y-1936884D01*
X253911Y-1816887D02*
G01*
X253911Y-1936884D01*
D10*
X1849978Y-1512237D02*
G01*
X1771088Y-1512237D01*
X1771088Y-1611957D01*
X1849978Y-1611957D01*
X1909216Y-1512237D02*
G01*
X1972866Y-1512237D01*
X1988106Y-1527477D01*
X1988106Y-1596717D01*
X1972866Y-1611957D01*
X1909216Y-1611957D01*
X1860748Y-1821266D02*
G01*
X1860748Y-1749463D01*
X1960468Y-1749463D01*
X1960468Y-1821266D01*
X1860748Y-1866508D02*
G01*
X1860748Y-1938312D01*
X1960468Y-1938312D01*
X1960468Y-1866508D01*
D14*
X-402290Y-968689D02*
G01*
X-272287Y-968689D01*
X-402290Y-788736D02*
G01*
X-272287Y-788736D01*
D10*
X-46128Y-954920D02*
G01*
X-46128Y-875911D01*
X-145849Y-875911D02*
G01*
X-145849Y-954920D01*
X-130609Y-970160D02*
G01*
X-61368Y-970160D01*
X-46128Y-751659D02*
G01*
X-46128Y-830668D01*
X-145849Y-830668D02*
G01*
X-145849Y-751659D01*
X-130609Y-736419D02*
G01*
X-61368Y-736419D01*
D13*
X-536989Y-1037701D02*
G01*
X-416984Y-1037701D01*
X-536989Y-1114701D02*
G01*
X-536989Y-1037701D01*
X-536989Y-1227703D02*
G01*
X-416984Y-1227703D01*
X-536989Y-1150703D02*
G01*
X-536989Y-1227703D01*
X-416984Y-1150703D02*
G01*
X-416984Y-1227703D01*
X-416984Y-1114701D02*
G01*
X-416984Y-1037701D01*
X-244891Y-1037701D02*
G01*
X-124886Y-1037701D01*
X-244891Y-1114701D02*
G01*
X-244891Y-1037701D01*
X-244891Y-1227703D02*
G01*
X-124886Y-1227703D01*
X-244891Y-1150703D02*
G01*
X-244891Y-1227703D01*
X-124886Y-1150703D02*
G01*
X-124886Y-1227703D01*
X-124886Y-1114701D02*
G01*
X-124886Y-1037701D01*
D10*
X1034277Y-331650D02*
G01*
X1113287Y-331650D01*
X1113287Y-231929D02*
G01*
X1034277Y-231929D01*
X1019037Y-247169D02*
G01*
X1019037Y-316410D01*
X1237538Y-331650D02*
G01*
X1158529Y-331650D01*
X1158529Y-231929D02*
G01*
X1237538Y-231929D01*
X1252778Y-247169D02*
G01*
X1252778Y-316410D01*
D13*
X675218Y-1863991D02*
G01*
X675218Y-1801987D01*
X675218Y-1899996D02*
G01*
X675218Y-1961987D01*
X555213Y-1899996D02*
G01*
X555213Y-1961987D01*
X575213Y-1976996D02*
G01*
X655210Y-1976996D01*
X555213Y-1863991D02*
G01*
X555213Y-1801987D01*
X575213Y-1786991D02*
G01*
X655210Y-1786991D01*
X570222Y-1976996D02*
G01*
X575213Y-1976996D01*
X660209Y-1976996D02*
G01*
X655210Y-1976996D01*
X570209Y-1786991D02*
G01*
X575213Y-1786991D01*
X660222Y-1786991D02*
G01*
X655210Y-1786991D01*
X-257596Y-629986D02*
G01*
X-257594Y-691989D01*
X-257596Y-593981D02*
G01*
X-257594Y-531990D01*
X-137591Y-593981D02*
G01*
X-137589Y-531990D01*
X-157591Y-516981D02*
G01*
X-237589Y-516981D01*
X-137591Y-629986D02*
G01*
X-137589Y-691989D01*
X-157591Y-706986D02*
G01*
X-237589Y-706986D01*
X-152600Y-516981D02*
G01*
X-157591Y-516981D01*
X-242587Y-516981D02*
G01*
X-237589Y-516981D01*
X-152587Y-706986D02*
G01*
X-157591Y-706986D01*
X-242600Y-706986D02*
G01*
X-237589Y-706986D01*
X1710900Y-1861883D02*
G01*
X1710900Y-1923887D01*
X1710900Y-1825879D02*
G01*
X1710900Y-1763887D01*
X1830905Y-1825879D02*
G01*
X1830905Y-1763887D01*
X1810905Y-1748878D02*
G01*
X1730908Y-1748878D01*
X1830905Y-1861883D02*
G01*
X1830905Y-1923887D01*
X1810905Y-1938883D02*
G01*
X1730908Y-1938883D01*
X1815896Y-1748878D02*
G01*
X1810905Y-1748878D01*
X1725909Y-1748878D02*
G01*
X1730908Y-1748878D01*
X1815909Y-1938883D02*
G01*
X1810905Y-1938883D01*
X1725896Y-1938883D02*
G01*
X1730908Y-1938883D01*
X-785279Y-35196D02*
G01*
X-785279Y26807D01*
X-785279Y-71201D02*
G01*
X-785279Y-133192D01*
X-905283Y-71201D02*
G01*
X-905283Y-133192D01*
X-885283Y-148201D02*
G01*
X-805286Y-148201D01*
X-905283Y-35196D02*
G01*
X-905283Y26807D01*
X-885283Y41803D02*
G01*
X-805286Y41803D01*
X-890275Y-148201D02*
G01*
X-885283Y-148201D01*
X-800287Y-148201D02*
G01*
X-805286Y-148201D01*
X-890287Y41803D02*
G01*
X-885283Y41803D01*
X-800275Y41803D02*
G01*
X-805286Y41803D01*
X127314Y1340312D02*
G01*
X65311Y1340312D01*
X163319Y1340312D02*
G01*
X225310Y1340312D01*
X163319Y1220307D02*
G01*
X225310Y1220307D01*
X240319Y1240307D02*
G01*
X240319Y1320304D01*
X127314Y1220307D02*
G01*
X65311Y1220307D01*
X50314Y1240307D02*
G01*
X50314Y1320304D01*
X240319Y1235316D02*
G01*
X240319Y1240307D01*
X240319Y1325303D02*
G01*
X240319Y1320304D01*
X50314Y1235303D02*
G01*
X50314Y1240307D01*
X50314Y1325316D02*
G01*
X50314Y1320304D01*
X127314Y1226012D02*
G01*
X65311Y1226012D01*
X163319Y1226012D02*
G01*
X225310Y1226012D01*
X163319Y1106007D02*
G01*
X225310Y1106007D01*
X240319Y1126007D02*
G01*
X240319Y1206004D01*
X127314Y1106007D02*
G01*
X65311Y1106007D01*
X50314Y1126007D02*
G01*
X50314Y1206004D01*
X240319Y1121016D02*
G01*
X240319Y1126007D01*
X240319Y1211003D02*
G01*
X240319Y1206004D01*
X50314Y1121003D02*
G01*
X50314Y1126007D01*
X50314Y1211016D02*
G01*
X50314Y1206004D01*
X444814Y603714D02*
G01*
X382811Y603714D01*
X480819Y603714D02*
G01*
X542810Y603714D01*
X480819Y483709D02*
G01*
X542810Y483709D01*
X557819Y503709D02*
G01*
X557819Y583707D01*
X444814Y483709D02*
G01*
X382811Y483709D01*
X367814Y503709D02*
G01*
X367814Y583707D01*
X557819Y498718D02*
G01*
X557819Y503709D01*
X557819Y588705D02*
G01*
X557819Y583707D01*
X367814Y498706D02*
G01*
X367814Y503709D01*
X367814Y588718D02*
G01*
X367814Y583707D01*
X468106Y-265597D02*
G01*
X530110Y-265595D01*
X432102Y-265597D02*
G01*
X370111Y-265595D01*
X432102Y-145592D02*
G01*
X370111Y-145590D01*
X355102Y-165592D02*
G01*
X355102Y-245590D01*
X468106Y-145592D02*
G01*
X530110Y-145590D01*
X545106Y-165592D02*
G01*
X545106Y-245590D01*
X355102Y-160601D02*
G01*
X355102Y-165592D01*
X355102Y-250588D02*
G01*
X355102Y-245590D01*
X545106Y-160588D02*
G01*
X545106Y-165592D01*
X545106Y-250601D02*
G01*
X545106Y-245590D01*
D10*
X355130Y1019627D02*
G01*
X214891Y1019627D01*
X355130Y804387D02*
G01*
X214891Y804387D01*
D12*
X-98681Y997503D02*
G01*
X-32689Y997503D01*
X-98681Y997503D01*
X-32689Y997503D01*
X-32689Y915995D01*
X-324690Y915995D02*
G01*
X-324690Y997503D01*
X-258696Y997503D01*
D15*
X-208683Y842512D02*
G01*
X-148694Y842512D01*
D10*
X1115123Y250512D02*
G01*
X1148618Y284005D01*
X1182110Y250512D01*
X1338031Y27604D02*
G01*
X1371526Y61097D01*
X1338031Y94592D01*
X959203Y94592D02*
G01*
X925710Y61097D01*
X959203Y27604D01*
X1182110Y-128315D02*
G01*
X1148618Y-161810D01*
X1115123Y-128315D01*
D12*
X1974908Y-154317D02*
G01*
X2017892Y-111330D01*
X2262713Y133487D02*
G01*
X2280236Y151013D01*
X1238526Y1192723D01*
X1221003Y1175197D01*
X976182Y930379D02*
G01*
X933198Y887392D01*
X1100066Y720526D01*
X1808040Y12550D02*
G01*
X1974908Y-154317D01*
D10*
X755850Y-259168D02*
G01*
X755850Y-187365D01*
X855571Y-187365D01*
X855571Y-259168D01*
X755850Y-304411D02*
G01*
X755850Y-376214D01*
X855571Y-376214D01*
X855571Y-304411D01*
X879132Y-371629D02*
G01*
X950935Y-371629D01*
X950935Y-471350D01*
X879132Y-471350D01*
X833889Y-371629D02*
G01*
X762086Y-371629D01*
X762086Y-471350D01*
X833889Y-471350D01*
X1341887Y-331650D02*
G01*
X1270083Y-331650D01*
X1270083Y-231929D01*
X1341887Y-231929D01*
X1387129Y-331650D02*
G01*
X1458932Y-331650D01*
X1458932Y-231929D01*
X1387129Y-231929D01*
X313189Y658947D02*
G01*
X241386Y658947D01*
X241386Y758667D01*
X313189Y758667D01*
X358432Y658947D02*
G01*
X430235Y658947D01*
X430235Y758667D01*
X358432Y758667D01*
X167932Y758667D02*
G01*
X239735Y758667D01*
X239735Y658947D01*
X167932Y658947D01*
X122689Y758667D02*
G01*
X50886Y758667D01*
X50886Y658947D01*
X122689Y658947D01*
X563471Y851286D02*
G01*
X563471Y779482D01*
X463750Y779482D01*
X463750Y851286D01*
X563471Y896528D02*
G01*
X563471Y968331D01*
X463750Y968331D01*
X463750Y896528D01*
X-6149Y972728D02*
G01*
X-6149Y1044531D01*
X93571Y1044531D01*
X93571Y972728D01*
X-6149Y927486D02*
G01*
X-6149Y855682D01*
X93571Y855682D01*
X93571Y927486D01*
D13*
X1558505Y-1748899D02*
G01*
X1678510Y-1748899D01*
X1558505Y-1825899D02*
G01*
X1558505Y-1748899D01*
X1558505Y-1938901D02*
G01*
X1678510Y-1938901D01*
X1558505Y-1861901D02*
G01*
X1558505Y-1938901D01*
X1678510Y-1861901D02*
G01*
X1678510Y-1938901D01*
X1678510Y-1825899D02*
G01*
X1678510Y-1748899D01*
D15*
X361718Y-84688D02*
G01*
X411502Y-84688D01*
X216684Y105303D02*
G01*
X216684Y245511D01*
X556536Y105303D02*
G01*
X556536Y245511D01*
X361718Y435503D02*
G01*
X411502Y435503D01*
D12*
X145308Y-1734908D02*
G01*
X145308Y-1545280D01*
X-769091Y-1953287D02*
G01*
X-769089Y-2110595D01*
X145308Y-2110595D01*
X145308Y-1953285D01*
X-769091Y-1545280D02*
G01*
X-769091Y-1734908D01*
D13*
X-409991Y-517001D02*
G01*
X-289986Y-517001D01*
X-409991Y-594001D02*
G01*
X-409991Y-517001D01*
X-409991Y-707003D02*
G01*
X-289986Y-707003D01*
X-409991Y-630003D02*
G01*
X-409991Y-707003D01*
X-289986Y-630003D02*
G01*
X-289986Y-707003D01*
X-289986Y-594001D02*
G01*
X-289986Y-517001D01*
X-562389Y-517001D02*
G01*
X-442384Y-517001D01*
X-562389Y-594001D02*
G01*
X-562389Y-517001D01*
X-562389Y-707003D02*
G01*
X-442384Y-707003D01*
X-562389Y-630003D02*
G01*
X-562389Y-707003D01*
X-442384Y-630003D02*
G01*
X-442384Y-707003D01*
X-442384Y-594001D02*
G01*
X-442384Y-517001D01*
D10*
X197050Y-703668D02*
G01*
X197050Y-631865D01*
X296771Y-631865D01*
X296771Y-703668D01*
X197050Y-748911D02*
G01*
X197050Y-820714D01*
X296771Y-820714D01*
X296771Y-748911D01*
X169771Y-748911D02*
G01*
X169771Y-820714D01*
X70050Y-820714D01*
X70050Y-748911D01*
X169771Y-703668D02*
G01*
X169771Y-631865D01*
X70050Y-631865D01*
X70050Y-703668D01*
X70050Y-1022609D02*
G01*
X70050Y-1101498D01*
X169771Y-1101498D01*
X169771Y-1022609D01*
X70050Y-963371D02*
G01*
X70050Y-899721D01*
X85290Y-884481D01*
X154531Y-884481D01*
X169771Y-899721D01*
X169771Y-963371D01*
X197050Y-1022609D02*
G01*
X197050Y-1101498D01*
X296771Y-1101498D01*
X296771Y-1022609D01*
X197050Y-963371D02*
G01*
X197050Y-899721D01*
X212290Y-884481D01*
X281531Y-884481D01*
X296771Y-899721D01*
X296771Y-963371D01*
X1055489Y-371629D02*
G01*
X976599Y-371629D01*
X976599Y-471350D01*
X1055489Y-471350D01*
X1114727Y-371629D02*
G01*
X1178377Y-371629D01*
X1193617Y-386869D01*
X1193617Y-456110D01*
X1178377Y-471350D01*
X1114727Y-471350D01*
D14*
X399310Y-764390D02*
G01*
X399310Y-700890D01*
X462810Y-700890D01*
D12*
G75*
G01*
X466910Y-1705887D02*
G02*
X373911Y-1716900I-46787J-3080D01*
G75*
G01*
X286911Y-1735887D02*
G02*
X378529Y-1730609I45892J1185D01*
D10*
G75*
G01*
X-145849Y-954921D02*
G03*
X-130609Y-970161I15240J0D01*
G75*
G01*
X-61369Y-970161D02*
G03*
X-46129Y-954921I0J15240D01*
G75*
G01*
X-145849Y-751660D02*
G02*
X-130609Y-736420I15240J0D01*
G75*
G01*
X-61369Y-736420D02*
G02*
X-46129Y-751660I0J-15240D01*
G75*
G01*
X1034278Y-231930D02*
G03*
X1019038Y-247170I0J-15240D01*
G75*
G01*
X1019038Y-316410D02*
G03*
X1034278Y-331650I15240J0D01*
G75*
G01*
X1237539Y-231930D02*
G02*
X1252779Y-247170I0J-15240D01*
G75*
G01*
X1252779Y-316410D02*
G02*
X1237539Y-331650I-15240J0D01*
D13*
G75*
G01*
X555214Y-1961987D02*
G03*
X570222Y-1976996I15008J0D01*
G75*
G01*
X675218Y-1961987D02*
G02*
X660209Y-1976996I-15009J0D01*
G75*
G01*
X555214Y-1801988D02*
G02*
X570210Y-1786992I14996J0D01*
G75*
G01*
X675218Y-1801988D02*
G03*
X660222Y-1786992I-14996J0D01*
G75*
G01*
X-137589Y-531990D02*
G03*
X-152601Y-516981I-15009J0D01*
G75*
G01*
X-257594Y-531990D02*
G02*
X-242588Y-516981I15009J0D01*
G75*
G01*
X-137589Y-691990D02*
G02*
X-152588Y-706986I-14996J0D01*
G75*
G01*
X-257594Y-691990D02*
G03*
X-242600Y-706986I14996J0D01*
G75*
G01*
X1830906Y-1763888D02*
G03*
X1815897Y-1748879I-15009J0D01*
G75*
G01*
X1710901Y-1763888D02*
G02*
X1725910Y-1748879I15009J0D01*
G75*
G01*
X1830906Y-1923887D02*
G02*
X1815909Y-1938884I-14997J0D01*
G75*
G01*
X1710901Y-1923887D02*
G03*
X1725897Y-1938884I14996J0D01*
G75*
G01*
X-905284Y-133193D02*
G03*
X-890275Y-148201I15009J0D01*
G75*
G01*
X-785279Y-133193D02*
G02*
X-800288Y-148201I-15009J0D01*
G75*
G01*
X-905284Y26807D02*
G02*
X-890288Y41803I14996J0D01*
G75*
G01*
X-785279Y26807D02*
G03*
X-800275Y41803I-14996J0D01*
G75*
G01*
X225311Y1220307D02*
G03*
X240320Y1235316I0J15009D01*
G75*
G01*
X225311Y1340312D02*
G02*
X240320Y1325303I0J-15009D01*
G75*
G01*
X65311Y1220307D02*
G02*
X50315Y1235304I0J14997D01*
G75*
G01*
X65311Y1340312D02*
G03*
X50315Y1325316I0J-14996D01*
G75*
G01*
X225311Y1106007D02*
G03*
X240320Y1121016I0J15009D01*
G75*
G01*
X225311Y1226012D02*
G02*
X240320Y1211003I0J-15009D01*
G75*
G01*
X65311Y1106007D02*
G02*
X50315Y1121004I0J14997D01*
G75*
G01*
X65311Y1226012D02*
G03*
X50315Y1211016I0J-14996D01*
G75*
G01*
X542811Y483710D02*
G03*
X557820Y498719I0J15009D01*
G75*
G01*
X542811Y603715D02*
G02*
X557820Y588706I0J-15009D01*
G75*
G01*
X382811Y483710D02*
G02*
X367815Y498706I0J14996D01*
G75*
G01*
X382811Y603715D02*
G03*
X367815Y588719I0J-14996D01*
G75*
G01*
X370111Y-145590D02*
G03*
X355102Y-160602I0J-15009D01*
G75*
G01*
X370111Y-265595D02*
G02*
X355102Y-250589I0J15009D01*
G75*
G01*
X530111Y-145590D02*
G02*
X545107Y-160589I0J-14996D01*
G75*
G01*
X530111Y-265595D02*
G03*
X545107Y-250601I0J14996D01*
D16*
G75*
G01*
X183411Y404007D02*
G03*
X183411Y403753I-15001J-127D01*
D12*
G75*
G01
X-508787Y2438095D02*
G03X-508787Y2438095I-127508J0D01*
G75*
G01
X-514579Y1521612D02*
G03X-514579Y1521612I-127508J0D01*
G75*
G01
X209321Y1788312D02*
G03X209321Y1788312I-127508J0D01*
D17*
G75*
G01
X-701777Y811352D02*
G03X-701777Y811352I-3810J0D01*
G75*
G01
X-701777Y911073D02*
G03X-701777Y911073I-3810J0D01*
G75*
G01
X-332537Y2626512D02*
G03X-332537Y2626512I-3810J0D01*
G75*
G01
X-232816Y2626512D02*
G03X-232816Y2626512I-3810J0D01*
G75*
G01
X3743223Y-1349553D02*
G03X3743223Y-1349553I-3810J0D01*
G75*
G01
X3743223Y-1449273D02*
G03X3743223Y-1449273I-3810J0D01*
G75*
G01
X2816123Y-1349527D02*
G03X2816123Y-1349527I-3810J0D01*
G75*
G01
X2816123Y-1449248D02*
G03X2816123Y-1449248I-3810J0D01*
G75*
G01
X-332537Y1788312D02*
G03X-332537Y1788312I-3810J0D01*
G75*
G01
X-232816Y1788312D02*
G03X-232816Y1788312I-3810J0D01*
G75*
G01
X391363Y1915312D02*
G03X391363Y1915312I-3810J0D01*
G75*
G01
X491084Y1915312D02*
G03X491084Y1915312I-3810J0D01*
D12*
G75*
G01
X3612921Y-1742288D02*
G03X3612921Y-1742288I-127508J0D01*
G75*
G01
X2698521Y-1742288D02*
G03X2698521Y-1742288I-127508J0D01*
G75*
G01
X1644421Y-1056488D02*
G03X1644421Y-1056488I-127508J0D01*
G75*
G01
X-737514Y-337515D02*
G03X-737514Y-337515I-12497J0D01*
D17*
G75*
G01
X1883410Y-1512240D02*
G03X1883410Y-1512240I-3810J0D01*
G75*
G01
X1883410Y-1611960D02*
G03X1883410Y-1611960I-3810J0D01*
D14*
G75*
G01
X-243281Y-970712D02*
G03X-243281Y-970712I-5004J0D01*
D16*
G75*
G01
X399263Y784276D02*
G03X399263Y784276I-15011J0D01*
D13*
G75*
G01
X951027Y-30836D02*
G03X951027Y-30836I-7493J0D01*
D17*
G75*
G01
X73863Y-992988D02*
G03X73863Y-992988I-3810J0D01*
G75*
G01
X173584Y-992988D02*
G03X173584Y-992988I-3810J0D01*
G75*
G01
X200863Y-992988D02*
G03X200863Y-992988I-3810J0D01*
G75*
G01
X300584Y-992988D02*
G03X300584Y-992988I-3810J0D01*
G75*
G01
X1088923Y-371627D02*
G03X1088923Y-371627I-3810J0D01*
G75*
G01
X1088923Y-471348D02*
G03X1088923Y-471348I-3810J0D01*
M02*
