G04 Layer: BottomSilkscreenLayer*
G04 EasyEDA v6.5.34, 2023-08-29 15:51:40*
G04 c19b9e491f004e949dcb7f38ecc8bf32,24d7ea87aaaa49e9b18beb810eddf566,10*
G04 Gerber Generator version 0.2*
G04 Scale: 100 percent, Rotated: No, Reflected: No *
G04 Dimensions in millimeters *
G04 leading zeros omitted , absolute positions ,4 integer and 5 decimal *
%FSLAX45Y45*%
%MOMM*%

%ADD10C,1.8000*%
%ADD11C,0.2540*%
%ADD12C,0.5080*%
%ADD13C,0.7620*%

%LPD*%
G36*
X-134061Y1910384D02*
G01*
X-221843Y1822551D01*
X-167081Y1767789D01*
X-154533Y1780336D01*
X-195122Y1820925D01*
X-170688Y1845360D01*
X-134569Y1809242D01*
X-122021Y1821840D01*
X-158089Y1857959D01*
X-119837Y1896211D01*
G37*
G36*
X-49428Y1825802D02*
G01*
X-157937Y1758645D01*
X-143560Y1744268D01*
X-56997Y1800656D01*
X-56641Y1800301D01*
X-110489Y1711198D01*
X-94691Y1695399D01*
X-6146Y1749450D01*
X-5791Y1749094D01*
X-61467Y1662175D01*
X-47650Y1648358D01*
X18643Y1757730D01*
X2641Y1773682D01*
X-87172Y1719478D01*
X-87325Y1719630D01*
X-33477Y1809800D01*
G37*
G36*
X54000Y1722323D02*
G01*
X-33832Y1634489D01*
X21132Y1579575D01*
X33731Y1592122D01*
X-7061Y1632915D01*
X17373Y1657299D01*
X53492Y1621231D01*
X66040Y1633778D01*
X29921Y1669897D01*
X68173Y1708150D01*
G37*
G36*
X155498Y1620875D02*
G01*
X67665Y1533042D01*
X69289Y1531416D01*
X94437Y1531416D01*
X122275Y1559255D01*
X144881Y1536649D01*
X147269Y1533906D01*
X148996Y1531112D01*
X150063Y1528267D01*
X150469Y1525320D01*
X150114Y1522476D01*
X149148Y1519682D01*
X147523Y1516989D01*
X145237Y1514348D01*
X139141Y1508252D01*
X136499Y1505966D01*
X133807Y1504340D01*
X131013Y1503375D01*
X128168Y1503019D01*
X125323Y1503527D01*
X122529Y1504645D01*
X119786Y1506423D01*
X117043Y1508810D01*
X94437Y1531416D01*
X69289Y1531416D01*
X105359Y1495298D01*
X117906Y1486357D01*
X131419Y1483664D01*
X144780Y1487068D01*
X157276Y1496212D01*
X166420Y1508709D01*
X169875Y1522069D01*
X167132Y1535582D01*
X158191Y1548130D01*
X134670Y1571650D01*
X169672Y1606651D01*
G37*
G36*
X234137Y1542186D02*
G01*
X146304Y1454353D01*
X202539Y1398168D01*
X215138Y1410716D01*
X173278Y1452575D01*
X197713Y1477010D01*
X235762Y1438910D01*
X248361Y1451508D01*
X210261Y1489557D01*
X235966Y1515262D01*
X277774Y1473403D01*
X290372Y1486001D01*
G37*
G36*
X308864Y1467459D02*
G01*
X221030Y1379677D01*
X277063Y1323594D01*
X289661Y1336192D01*
X247802Y1378051D01*
X272237Y1402486D01*
X310286Y1364386D01*
X322884Y1376934D01*
X284784Y1415034D01*
X310489Y1440738D01*
X352348Y1398879D01*
X364896Y1411427D01*
G37*
G36*
X383387Y1392936D02*
G01*
X295554Y1305102D01*
X309778Y1290929D01*
X354330Y1335481D01*
X354838Y1334922D01*
X351434Y1306372D01*
X346405Y1254302D01*
X363118Y1237589D01*
X368655Y1306017D01*
X453440Y1322882D01*
X436219Y1340154D01*
X368655Y1325778D01*
X370484Y1351635D01*
X397611Y1378762D01*
G37*
G36*
X487934Y1288389D02*
G01*
X432516Y1175461D01*
X451459Y1175461D01*
X477520Y1226972D01*
X503377Y1201115D01*
X452018Y1174902D01*
X451459Y1175461D01*
X432516Y1175461D01*
X430123Y1170584D01*
X447903Y1152804D01*
X565708Y1210665D01*
X550773Y1225550D01*
X519176Y1209751D01*
X486308Y1242618D01*
X502462Y1273860D01*
G37*
G36*
X579170Y1197152D02*
G01*
X491337Y1109370D01*
X492963Y1107744D01*
X518109Y1107744D01*
X545947Y1135583D01*
X568553Y1112926D01*
X570941Y1110234D01*
X572668Y1107440D01*
X573735Y1104544D01*
X574141Y1101648D01*
X573887Y1098702D01*
X572973Y1095857D01*
X571398Y1093114D01*
X569112Y1090472D01*
X563016Y1084376D01*
X560374Y1082090D01*
X557631Y1080516D01*
X554786Y1079601D01*
X551891Y1079347D01*
X549046Y1079855D01*
X546201Y1080973D01*
X543458Y1082700D01*
X540715Y1085088D01*
X518109Y1107744D01*
X492963Y1107744D01*
X529234Y1071473D01*
X541629Y1062634D01*
X555091Y1059942D01*
X568401Y1063294D01*
X580948Y1072540D01*
X585266Y1077366D01*
X588568Y1082294D01*
X590905Y1087323D01*
X592277Y1092454D01*
X592785Y1097788D01*
X592277Y1103172D01*
X590804Y1108557D01*
X588314Y1113993D01*
X644347Y1131976D01*
X628548Y1147775D01*
X575411Y1129842D01*
X557784Y1147419D01*
X593344Y1182979D01*
G37*
G36*
X657707Y1104544D02*
G01*
X652373Y1104341D01*
X644550Y1103426D01*
X646684Y1084732D01*
X650951Y1085646D01*
X658774Y1086408D01*
X662686Y1086002D01*
X666546Y1084986D01*
X670255Y1083462D01*
X673963Y1081125D01*
X677621Y1077925D01*
X681024Y1073912D01*
X683463Y1069898D01*
X684885Y1065784D01*
X685342Y1061567D01*
X684834Y1057351D01*
X683412Y1053236D01*
X681075Y1049223D01*
X676351Y1043990D01*
X672490Y1040688D01*
X668528Y1038301D01*
X664413Y1036878D01*
X660196Y1036421D01*
X655980Y1036828D01*
X651865Y1038250D01*
X647801Y1040688D01*
X643839Y1044143D01*
X641299Y1046937D01*
X639318Y1049731D01*
X637895Y1052525D01*
X637032Y1055268D01*
X636168Y1060704D01*
X636117Y1065885D01*
X622808Y1075944D01*
X577037Y1023670D01*
X626770Y973937D01*
X639165Y986332D01*
X600202Y1025296D01*
X629107Y1058519D01*
X629818Y1057808D01*
X628904Y1053693D01*
X628192Y1048003D01*
X628294Y1044346D01*
X628904Y1040688D01*
X630174Y1037082D01*
X632155Y1033475D01*
X635050Y1029716D01*
X636828Y1027785D01*
X639673Y1025194D01*
X642721Y1022908D01*
X645871Y1020978D01*
X649224Y1019352D01*
X652576Y1018032D01*
X655980Y1017066D01*
X659485Y1016508D01*
X663041Y1016304D01*
X666546Y1016457D01*
X670102Y1016965D01*
X673658Y1017981D01*
X677214Y1019352D01*
X680720Y1021080D01*
X684123Y1023264D01*
X687425Y1025855D01*
X690727Y1028903D01*
X693775Y1032205D01*
X696468Y1035608D01*
X698804Y1039164D01*
X700786Y1042873D01*
X702259Y1046784D01*
X703326Y1050645D01*
X703986Y1054557D01*
X704189Y1058519D01*
X703884Y1062532D01*
X703122Y1066546D01*
X702005Y1070559D01*
X700430Y1074521D01*
X698296Y1078484D01*
X695756Y1082395D01*
X692708Y1086205D01*
X689254Y1089964D01*
X683412Y1095197D01*
X677621Y1099108D01*
X671830Y1101801D01*
X668985Y1102766D01*
X663244Y1104036D01*
G37*
G36*
X744220Y1032103D02*
G01*
X746048Y1019657D01*
X747268Y1008227D01*
X747572Y997661D01*
X747471Y992581D01*
X746556Y982827D01*
X744626Y973582D01*
X743356Y969060D01*
X741680Y964692D01*
X737463Y955954D01*
X734872Y951636D01*
X734009Y952195D01*
X735330Y958240D01*
X735787Y962355D01*
X735736Y966571D01*
X734974Y970838D01*
X733552Y974953D01*
X731367Y979119D01*
X728218Y983335D01*
X726287Y985418D01*
X723442Y988009D01*
X720445Y990244D01*
X717296Y992174D01*
X714044Y993698D01*
X710793Y994918D01*
X707440Y995781D01*
X704037Y996289D01*
X700582Y996391D01*
X697026Y996187D01*
X693470Y995578D01*
X690016Y994562D01*
X683209Y991514D01*
X679907Y989431D01*
X676656Y986891D01*
X673455Y983996D01*
X670356Y980592D01*
X667664Y977087D01*
X665429Y973531D01*
X663600Y969771D01*
X662127Y965911D01*
X661060Y961999D01*
X660501Y957986D01*
X660349Y953973D01*
X660507Y950925D01*
X678129Y950925D01*
X678535Y955141D01*
X679958Y959256D01*
X682396Y963269D01*
X685850Y967282D01*
X691642Y972515D01*
X695655Y974902D01*
X699719Y976274D01*
X703834Y976630D01*
X707898Y976121D01*
X711962Y974699D01*
X715924Y972261D01*
X719785Y968908D01*
X723188Y964996D01*
X725627Y960983D01*
X727151Y956919D01*
X727710Y952753D01*
X727303Y948690D01*
X725881Y944676D01*
X723442Y940714D01*
X718210Y934974D01*
X714197Y931468D01*
X710184Y929030D01*
X706120Y927557D01*
X702005Y927049D01*
X697839Y927608D01*
X693775Y929132D01*
X689762Y931570D01*
X685850Y934974D01*
X682498Y938834D01*
X680059Y942797D01*
X678637Y946861D01*
X678129Y950925D01*
X660507Y950925D01*
X661212Y946150D01*
X662279Y942238D01*
X663752Y938377D01*
X665784Y934466D01*
X668223Y930706D01*
X671068Y926998D01*
X674370Y923442D01*
X678078Y920038D01*
X681888Y917092D01*
X685800Y914653D01*
X689813Y912672D01*
X693826Y911301D01*
X697890Y910336D01*
X702056Y909828D01*
X706323Y909828D01*
X710539Y910285D01*
X714756Y911301D01*
X718921Y912723D01*
X723036Y914653D01*
X727202Y916940D01*
X731367Y919734D01*
X735380Y922985D01*
X739394Y926693D01*
X747928Y936650D01*
X754481Y947521D01*
X757072Y953211D01*
X759256Y958900D01*
X761085Y964590D01*
X762558Y970330D01*
X763727Y976121D01*
X764540Y981811D01*
X764997Y987450D01*
X764895Y998474D01*
X763879Y1008634D01*
X763066Y1013256D01*
G37*
G36*
X809548Y951382D02*
G01*
X804773Y950772D01*
X799896Y949553D01*
X794918Y947724D01*
X789889Y945337D01*
X784809Y942340D01*
X774293Y934770D01*
X763625Y925068D01*
X753922Y914400D01*
X746404Y903884D01*
X743356Y898804D01*
X740918Y893724D01*
X739038Y888746D01*
X737768Y883767D01*
X737158Y878941D01*
X737158Y874369D01*
X755497Y874369D01*
X755599Y877062D01*
X756107Y879805D01*
X758088Y885240D01*
X761288Y890778D01*
X765708Y896518D01*
X770991Y902258D01*
X789127Y920292D01*
X794867Y925118D01*
X800506Y928979D01*
X805992Y931570D01*
X808685Y932434D01*
X811479Y932891D01*
X814120Y933043D01*
X816762Y932789D01*
X819302Y932230D01*
X821740Y931418D01*
X824128Y930148D01*
X826465Y928471D01*
X828802Y926337D01*
X830884Y924052D01*
X832561Y921715D01*
X833831Y919276D01*
X834745Y916787D01*
X835202Y914349D01*
X835406Y911758D01*
X834745Y906373D01*
X833882Y903681D01*
X831291Y898194D01*
X827430Y892556D01*
X822604Y886815D01*
X804570Y868680D01*
X798830Y863396D01*
X793089Y858977D01*
X787552Y855776D01*
X784809Y854608D01*
X782116Y853744D01*
X779373Y853287D01*
X776732Y853135D01*
X774192Y853287D01*
X771702Y853744D01*
X769213Y854659D01*
X766826Y855980D01*
X764489Y857656D01*
X762203Y859688D01*
X760069Y862025D01*
X758393Y864412D01*
X757123Y866800D01*
X756259Y869238D01*
X755700Y871778D01*
X755497Y874369D01*
X737158Y874268D01*
X737717Y869594D01*
X738835Y865073D01*
X740714Y860552D01*
X743204Y856132D01*
X746353Y851865D01*
X750163Y847648D01*
X758545Y840790D01*
X767334Y836421D01*
X776478Y834644D01*
X786079Y835456D01*
X796086Y838657D01*
X806297Y844092D01*
X816711Y851611D01*
X827379Y861314D01*
X837031Y871880D01*
X844499Y882294D01*
X849833Y892454D01*
X853084Y902462D01*
X853846Y912012D01*
X852068Y921207D01*
X847750Y929995D01*
X840841Y938377D01*
X836676Y942187D01*
X832358Y945337D01*
X827938Y947826D01*
X823417Y949655D01*
X818896Y950823D01*
X814273Y951382D01*
G37*
G36*
X-99110Y2219756D02*
G01*
X-103327Y2219706D01*
X-107442Y2219147D01*
X-111607Y2218131D01*
X-115824Y2216708D01*
X-120040Y2214880D01*
X-124206Y2212594D01*
X-128320Y2209800D01*
X-132384Y2206548D01*
X-136347Y2202840D01*
X-140004Y2198928D01*
X-143256Y2194915D01*
X-146050Y2190750D01*
X-148386Y2186482D01*
X-150266Y2182266D01*
X-151688Y2178100D01*
X-152654Y2173935D01*
X-153263Y2169769D01*
X-153263Y2165654D01*
X-136194Y2165654D01*
X-135636Y2169972D01*
X-134010Y2174290D01*
X-131318Y2178608D01*
X-127558Y2182926D01*
X-116433Y2194052D01*
X-112115Y2197811D01*
X-107797Y2200503D01*
X-103479Y2202129D01*
X-99161Y2202637D01*
X-94894Y2202281D01*
X-90830Y2201062D01*
X-86969Y2198878D01*
X-83362Y2195830D01*
X-80314Y2192223D01*
X-78181Y2188362D01*
X-76911Y2184298D01*
X-76555Y2180031D01*
X-77114Y2175713D01*
X-78689Y2171395D01*
X-81381Y2167077D01*
X-85191Y2162810D01*
X-96316Y2151634D01*
X-100634Y2147874D01*
X-104952Y2145182D01*
X-109220Y2143556D01*
X-113537Y2143048D01*
X-117754Y2143455D01*
X-121767Y2144776D01*
X-125577Y2146960D01*
X-129184Y2150059D01*
X-132232Y2153615D01*
X-134416Y2157425D01*
X-135737Y2161438D01*
X-136194Y2165654D01*
X-153263Y2165604D01*
X-152857Y2161489D01*
X-151942Y2157425D01*
X-150571Y2153462D01*
X-148691Y2149551D01*
X-146405Y2145792D01*
X-143662Y2142185D01*
X-140512Y2138730D01*
X-137007Y2135530D01*
X-133400Y2132787D01*
X-129641Y2130501D01*
X-125780Y2128672D01*
X-121767Y2127300D01*
X-117703Y2126386D01*
X-113588Y2125929D01*
X-109423Y2125980D01*
X-105206Y2126488D01*
X-101041Y2127453D01*
X-96875Y2128875D01*
X-92710Y2130806D01*
X-88442Y2133193D01*
X-84328Y2135987D01*
X-80314Y2139188D01*
X-76352Y2142845D01*
X-72644Y2146858D01*
X-69392Y2150872D01*
X-66649Y2154986D01*
X-64363Y2159203D01*
X-62433Y2163318D01*
X-60960Y2167483D01*
X-59994Y2171700D01*
X-59486Y2175916D01*
X-59436Y2180082D01*
X-59893Y2184196D01*
X-60807Y2188260D01*
X-62179Y2192223D01*
X-63957Y2196185D01*
X-66192Y2199995D01*
X-68884Y2203653D01*
X-72085Y2207158D01*
X-75539Y2210308D01*
X-79197Y2213051D01*
X-83007Y2215286D01*
X-86969Y2217013D01*
X-90932Y2218385D01*
X-94996Y2219299D01*
G37*
G36*
X-28397Y2160270D02*
G01*
X-93776Y2094890D01*
X-80162Y2081225D01*
X-67564Y2093823D01*
X-66852Y2093112D01*
X-68376Y2089759D01*
X-69392Y2086254D01*
X-69900Y2082495D01*
X-69900Y2078532D01*
X-69088Y2074468D01*
X-67462Y2070404D01*
X-64871Y2066442D01*
X-61467Y2062581D01*
X-57861Y2058974D01*
X-44602Y2072284D01*
X-53644Y2081631D01*
X-56540Y2085492D01*
X-58674Y2089150D01*
X-60045Y2092756D01*
X-60401Y2096109D01*
X-59943Y2099310D01*
X-58623Y2102256D01*
X-56438Y2104948D01*
X-14782Y2146604D01*
G37*
G36*
X19710Y2112162D02*
G01*
X-45669Y2046782D01*
X-32004Y2033117D01*
X33375Y2098497D01*
G37*
G36*
X52933Y2071725D02*
G01*
X49479Y2071268D01*
X46126Y2069998D01*
X42824Y2068017D01*
X39674Y2065274D01*
X-39928Y1985721D01*
X-26263Y1972056D01*
X55626Y2053945D01*
X64617Y2044954D01*
X75742Y2056079D01*
X66954Y2064918D01*
X63449Y2067966D01*
X59943Y2070100D01*
X56438Y2071370D01*
G37*
G36*
X85801Y2038502D02*
G01*
X80619Y2037994D01*
X75641Y2036368D01*
X70815Y2033625D01*
X66243Y2029714D01*
X59436Y2019401D01*
X58521Y2007971D01*
X60259Y2003755D01*
X75031Y2003755D01*
X78079Y2013915D01*
X80416Y2016252D01*
X82651Y2018080D01*
X84937Y2019249D01*
X87376Y2019757D01*
X89966Y2019655D01*
X92557Y2019096D01*
X95148Y2017928D01*
X97739Y2016201D01*
X100380Y2013915D01*
X103276Y2010613D01*
X105511Y2007311D01*
X107137Y2003907D01*
X108102Y2000402D01*
X108305Y1997049D01*
X107797Y1993950D01*
X106527Y1991106D01*
X104495Y1988566D01*
X95148Y1979218D01*
X83464Y1990902D01*
X75031Y2003755D01*
X60259Y2003755D01*
X63652Y1995525D01*
X74472Y1982266D01*
X86360Y1970430D01*
X80772Y1964842D01*
X77774Y1962251D01*
X74676Y1960372D01*
X71475Y1959203D01*
X68224Y1958746D01*
X64871Y1959254D01*
X61518Y1960575D01*
X58115Y1962759D01*
X54762Y1965756D01*
X52120Y1968652D01*
X50088Y1971649D01*
X48666Y1974697D01*
X47752Y1977796D01*
X47345Y1980895D01*
X47294Y1983993D01*
X47548Y1987143D01*
X48107Y1990343D01*
X32664Y1991106D01*
X31750Y1986635D01*
X31495Y1982114D01*
X31750Y1977491D01*
X32664Y1972767D01*
X34239Y1967992D01*
X36779Y1963267D01*
X40182Y1958492D01*
X44500Y1953717D01*
X57099Y1944065D01*
X69799Y1940255D01*
X82143Y1942338D01*
X93522Y1950313D01*
X126390Y1983181D01*
X133400Y1976170D01*
X144526Y1987296D01*
X136804Y1995017D01*
X134112Y1997405D01*
X131318Y1999030D01*
X128422Y1999996D01*
X125476Y2000250D01*
X122580Y1999894D01*
X119684Y1999081D01*
X116789Y1997760D01*
X113995Y1995932D01*
X113487Y1996490D01*
X115214Y2000605D01*
X116230Y2004669D01*
X116382Y2008784D01*
X115824Y2012797D01*
X114554Y2016861D01*
X112674Y2020824D01*
X110083Y2024583D01*
X106832Y2028240D01*
X101650Y2032762D01*
X96469Y2035962D01*
X91186Y2037842D01*
G37*
G36*
X-58572Y2032406D02*
G01*
X-60502Y2032203D01*
X-62382Y2031593D01*
X-64109Y2030577D01*
X-67919Y2027021D01*
X-69291Y2025446D01*
X-70205Y2023719D01*
X-70815Y2021941D01*
X-70967Y2020011D01*
X-70815Y2017928D01*
X-70053Y2015845D01*
X-68732Y2013712D01*
X-66852Y2011578D01*
X-64769Y2009749D01*
X-62738Y2008530D01*
X-60655Y2007768D01*
X-58572Y2007616D01*
X-56743Y2007870D01*
X-55016Y2008530D01*
X-53340Y2009495D01*
X-49631Y2013000D01*
X-48209Y2014626D01*
X-47142Y2016353D01*
X-46482Y2018131D01*
X-46177Y2020011D01*
X-46482Y2021992D01*
X-47244Y2023973D01*
X-48514Y2026005D01*
X-50342Y2028088D01*
X-52476Y2029968D01*
X-54559Y2031339D01*
X-56591Y2032101D01*
G37*
G36*
X157835Y1974037D02*
G01*
X91287Y1907489D01*
X123850Y1907489D01*
X124358Y1910740D01*
X125730Y1913686D01*
X127812Y1916379D01*
X150266Y1938832D01*
X152958Y1940966D01*
X155905Y1942287D01*
X159156Y1942846D01*
X162661Y1942592D01*
X166217Y1941728D01*
X169621Y1940204D01*
X172974Y1938070D01*
X176174Y1935225D01*
X179273Y1931517D01*
X181457Y1927606D01*
X182676Y1923440D01*
X182981Y1919071D01*
X182422Y1914753D01*
X180949Y1910588D01*
X178562Y1906574D01*
X175260Y1902714D01*
X163931Y1891385D01*
X160070Y1888083D01*
X156057Y1885645D01*
X151790Y1884121D01*
X147421Y1883511D01*
X143103Y1883867D01*
X139039Y1885188D01*
X135128Y1887372D01*
X131419Y1890522D01*
X128625Y1893722D01*
X126441Y1897024D01*
X124917Y1900428D01*
X124053Y1903984D01*
X123850Y1907489D01*
X91287Y1907489D01*
X64769Y1880971D01*
X78638Y1867154D01*
X117043Y1905609D01*
X117602Y1905050D01*
X116128Y1901088D01*
X115316Y1897125D01*
X115163Y1893112D01*
X115620Y1889048D01*
X116738Y1885137D01*
X118465Y1881378D01*
X120751Y1877872D01*
X123698Y1874520D01*
X137109Y1865630D01*
X152095Y1864106D01*
X159918Y1866138D01*
X167843Y1869897D01*
X175818Y1875383D01*
X183896Y1882597D01*
X191160Y1890725D01*
X196697Y1898751D01*
X200507Y1906727D01*
X202539Y1914550D01*
X201015Y1929587D01*
X192125Y1942947D01*
X188772Y1945893D01*
X185216Y1948180D01*
X181406Y1949805D01*
X177393Y1950872D01*
X173380Y1951329D01*
X169367Y1951177D01*
X165404Y1950364D01*
X161442Y1948891D01*
X160883Y1949399D01*
X171653Y1960168D01*
G37*
G36*
X230733Y1899310D02*
G01*
X228396Y1899005D01*
X226212Y1898294D01*
X224180Y1897125D01*
X222300Y1895551D01*
X218846Y1891792D01*
X217678Y1889760D01*
X216966Y1887575D01*
X216763Y1885289D01*
X216865Y1882952D01*
X217627Y1880616D01*
X219049Y1878279D01*
X221030Y1875942D01*
X223418Y1873910D01*
X225755Y1872488D01*
X228142Y1871675D01*
X230581Y1871472D01*
X232765Y1871776D01*
X234899Y1872538D01*
X236880Y1873757D01*
X240639Y1877212D01*
X242214Y1879092D01*
X243433Y1881073D01*
X244195Y1883206D01*
X244602Y1885492D01*
X244348Y1887880D01*
X243535Y1890268D01*
X242112Y1892655D01*
X240080Y1894992D01*
X237744Y1897024D01*
X235407Y1898396D01*
X233070Y1899157D01*
G37*
G36*
X264160Y1860143D02*
G01*
X258876Y1859737D01*
X253847Y1858162D01*
X249021Y1855419D01*
X244398Y1851507D01*
X237642Y1841195D01*
X236829Y1829612D01*
X238564Y1825396D01*
X253390Y1825396D01*
X256438Y1835556D01*
X258775Y1837893D01*
X260959Y1839722D01*
X263245Y1840941D01*
X265633Y1841500D01*
X268122Y1841449D01*
X270764Y1840839D01*
X273405Y1839671D01*
X275996Y1837994D01*
X278536Y1835708D01*
X281432Y1832457D01*
X283667Y1829104D01*
X285292Y1825701D01*
X286258Y1822246D01*
X286512Y1818893D01*
X286004Y1815795D01*
X284683Y1812950D01*
X282651Y1810410D01*
X273304Y1801063D01*
X261823Y1812543D01*
X253390Y1825396D01*
X238564Y1825396D01*
X241909Y1817268D01*
X252831Y1803958D01*
X264515Y1792274D01*
X258927Y1786686D01*
X255930Y1784096D01*
X252831Y1782216D01*
X249631Y1781048D01*
X246379Y1780590D01*
X243128Y1781048D01*
X239775Y1782318D01*
X236372Y1784553D01*
X232917Y1787601D01*
X230327Y1790496D01*
X228346Y1793443D01*
X226923Y1796440D01*
X226060Y1799437D01*
X225704Y1802536D01*
X225856Y1808784D01*
X226415Y1812036D01*
X210820Y1812899D01*
X209956Y1808480D01*
X209651Y1803958D01*
X209956Y1799336D01*
X210820Y1794611D01*
X212445Y1789836D01*
X214934Y1785061D01*
X218338Y1780336D01*
X222656Y1775561D01*
X235407Y1765757D01*
X248158Y1761896D01*
X260451Y1763979D01*
X271881Y1771954D01*
X304749Y1804822D01*
X311556Y1798015D01*
X322732Y1809140D01*
X314960Y1816862D01*
X312267Y1819198D01*
X309473Y1820875D01*
X306578Y1821840D01*
X303682Y1822094D01*
X300736Y1821738D01*
X297891Y1820875D01*
X295097Y1819503D01*
X292354Y1817573D01*
X291642Y1818284D01*
X293471Y1822348D01*
X294487Y1826361D01*
X294741Y1830425D01*
X294132Y1834489D01*
X292912Y1838553D01*
X291033Y1842465D01*
X288442Y1846275D01*
X285191Y1849932D01*
X280009Y1854403D01*
X274777Y1857603D01*
X269494Y1859534D01*
G37*
G36*
X336194Y1795678D02*
G01*
X270814Y1730298D01*
X284429Y1716633D01*
X297027Y1729232D01*
X297738Y1728520D01*
X296214Y1725168D01*
X295198Y1721612D01*
X294690Y1717903D01*
X294690Y1713941D01*
X295503Y1709877D01*
X297180Y1705813D01*
X299720Y1701850D01*
X303123Y1697989D01*
X306730Y1694383D01*
X320040Y1707692D01*
X314604Y1713077D01*
X310946Y1717039D01*
X308051Y1720850D01*
X305917Y1724558D01*
X304546Y1728165D01*
X304190Y1731518D01*
X304647Y1734718D01*
X305968Y1737664D01*
X308152Y1740357D01*
X349808Y1782013D01*
G37*
G36*
X388620Y1736039D02*
G01*
X384911Y1735632D01*
X381254Y1734362D01*
X377698Y1732229D01*
X374243Y1729232D01*
X334365Y1689354D01*
X324307Y1699412D01*
X313029Y1688084D01*
X319887Y1681022D01*
X320954Y1679448D01*
X321614Y1677873D01*
X321818Y1676400D01*
X321462Y1674977D01*
X320751Y1673453D01*
X318211Y1670304D01*
X306730Y1658823D01*
X319125Y1646428D01*
X336905Y1664207D01*
X350570Y1650542D01*
X361848Y1661871D01*
X348234Y1675536D01*
X391160Y1718462D01*
X403707Y1705864D01*
X414832Y1716989D01*
X402996Y1728876D01*
X399389Y1732025D01*
X395782Y1734261D01*
X392226Y1735582D01*
G37*
G36*
X553161Y1609191D02*
G01*
X548538Y1609090D01*
X543814Y1608683D01*
X538937Y1607972D01*
X533908Y1606956D01*
X528828Y1605584D01*
X518464Y1601876D01*
X513283Y1599590D01*
X508203Y1596999D01*
X503174Y1594104D01*
X498195Y1590903D01*
X493217Y1587347D01*
X488340Y1583537D01*
X478942Y1574952D01*
X474472Y1570228D01*
X470306Y1565452D01*
X466496Y1560626D01*
X462991Y1555699D01*
X459740Y1550670D01*
X456793Y1545590D01*
X454151Y1540408D01*
X449834Y1530096D01*
X448208Y1524965D01*
X446887Y1519936D01*
X445160Y1509979D01*
X444703Y1505204D01*
X444652Y1496110D01*
X457606Y1483156D01*
X457860Y1493113D01*
X459028Y1503273D01*
X460044Y1508252D01*
X461314Y1513179D01*
X462838Y1518056D01*
X466598Y1527556D01*
X471271Y1536750D01*
X473913Y1541170D01*
X480059Y1549450D01*
X483362Y1553311D01*
X500532Y1570482D01*
X508355Y1576832D01*
X512572Y1579778D01*
X516991Y1582470D01*
X526135Y1587144D01*
X535686Y1590903D01*
X545541Y1593799D01*
X550621Y1594866D01*
X555701Y1595577D01*
X565658Y1596186D01*
X570585Y1596136D01*
X557631Y1609090D01*
G37*
G36*
X561746Y1558899D02*
G01*
X557631Y1558798D01*
X553516Y1558188D01*
X549351Y1557172D01*
X545236Y1555699D01*
X541121Y1553768D01*
X537006Y1551381D01*
X532942Y1548536D01*
X528929Y1545234D01*
X524967Y1541526D01*
X521309Y1537614D01*
X518007Y1533652D01*
X515162Y1529537D01*
X512724Y1525371D01*
X510793Y1521256D01*
X509320Y1517091D01*
X508304Y1512976D01*
X507695Y1508861D01*
X507593Y1504746D01*
X507949Y1500682D01*
X508863Y1496669D01*
X510235Y1492656D01*
X512064Y1488795D01*
X514400Y1484985D01*
X517194Y1481328D01*
X520446Y1477772D01*
X525424Y1473352D01*
X530504Y1469847D01*
X535686Y1467408D01*
X540918Y1465935D01*
X546252Y1465427D01*
X551535Y1465630D01*
X556666Y1466646D01*
X561746Y1468424D01*
X555853Y1485138D01*
X552856Y1483868D01*
X549859Y1483004D01*
X546862Y1482699D01*
X543814Y1482801D01*
X540715Y1483563D01*
X537718Y1484884D01*
X534771Y1486763D01*
X531926Y1489252D01*
X528726Y1493113D01*
X526491Y1497025D01*
X525373Y1501089D01*
X525322Y1505254D01*
X526084Y1509522D01*
X527710Y1513586D01*
X530199Y1517599D01*
X533552Y1521409D01*
X545236Y1533093D01*
X549097Y1536446D01*
X553059Y1538935D01*
X557174Y1540560D01*
X561390Y1541373D01*
X565658Y1541373D01*
X569772Y1540256D01*
X573735Y1538122D01*
X577545Y1534871D01*
X580237Y1531823D01*
X582218Y1528673D01*
X583488Y1525524D01*
X584047Y1522323D01*
X584149Y1519021D01*
X583844Y1515668D01*
X583082Y1512214D01*
X581863Y1508658D01*
X597865Y1503832D01*
X599846Y1509420D01*
X600964Y1515008D01*
X601218Y1520494D01*
X600557Y1525930D01*
X598932Y1531264D01*
X596493Y1536446D01*
X593140Y1541424D01*
X588873Y1546199D01*
X585317Y1549450D01*
X581609Y1552244D01*
X577748Y1554480D01*
X573786Y1556258D01*
X569823Y1557629D01*
X565810Y1558493D01*
G37*
G36*
X625144Y1495501D02*
G01*
X621030Y1495399D01*
X616915Y1494790D01*
X612749Y1493774D01*
X608634Y1492300D01*
X604520Y1490370D01*
X600405Y1487982D01*
X596341Y1485138D01*
X592328Y1481836D01*
X588365Y1478127D01*
X584708Y1474216D01*
X581406Y1470253D01*
X578561Y1466138D01*
X576122Y1461973D01*
X574192Y1457858D01*
X572719Y1453692D01*
X571703Y1449578D01*
X571093Y1445463D01*
X570992Y1441348D01*
X571347Y1437284D01*
X572262Y1433271D01*
X573633Y1429258D01*
X575462Y1425397D01*
X577799Y1421587D01*
X580593Y1417929D01*
X583844Y1414373D01*
X588772Y1410004D01*
X593801Y1406601D01*
X598932Y1404162D01*
X604164Y1402689D01*
X609498Y1402181D01*
X614730Y1402435D01*
X619912Y1403451D01*
X624992Y1405229D01*
X619048Y1421892D01*
X616153Y1420571D01*
X613156Y1419707D01*
X610158Y1419402D01*
X607009Y1419606D01*
X604012Y1420266D01*
X601065Y1421536D01*
X598170Y1423365D01*
X595325Y1425854D01*
X592074Y1429715D01*
X589889Y1433677D01*
X588670Y1437792D01*
X588518Y1442008D01*
X589381Y1446174D01*
X591058Y1450238D01*
X593598Y1454200D01*
X596950Y1458010D01*
X608634Y1469694D01*
X612444Y1473047D01*
X616407Y1475587D01*
X620471Y1477264D01*
X624636Y1478127D01*
X628954Y1478076D01*
X633120Y1476908D01*
X637133Y1474724D01*
X640943Y1471472D01*
X643585Y1468475D01*
X645566Y1465376D01*
X646836Y1462176D01*
X647446Y1458925D01*
X647547Y1455623D01*
X647242Y1452270D01*
X646480Y1448816D01*
X645261Y1445260D01*
X661263Y1440434D01*
X663244Y1446022D01*
X664362Y1451610D01*
X664616Y1457096D01*
X663956Y1462481D01*
X662330Y1467866D01*
X659892Y1473047D01*
X656539Y1478026D01*
X652272Y1482801D01*
X648716Y1486052D01*
X645007Y1488795D01*
X641146Y1491081D01*
X637184Y1492859D01*
X633222Y1494231D01*
X629208Y1495094D01*
G37*
G36*
X696112Y1470609D02*
G01*
X696061Y1460652D01*
X695604Y1455674D01*
X694842Y1450644D01*
X692404Y1440586D01*
X690880Y1435709D01*
X687120Y1426159D01*
X682447Y1417015D01*
X679754Y1412595D01*
X673709Y1404366D01*
X670458Y1400556D01*
X653288Y1383385D01*
X645363Y1376934D01*
X641146Y1373936D01*
X632155Y1368856D01*
X627532Y1366621D01*
X618032Y1362862D01*
X613156Y1361338D01*
X608228Y1360068D01*
X603250Y1359052D01*
X593191Y1357782D01*
X583133Y1357630D01*
X596087Y1344676D01*
X600608Y1344472D01*
X605282Y1344625D01*
X610057Y1345133D01*
X619912Y1346911D01*
X624941Y1348232D01*
X635203Y1351889D01*
X640384Y1354175D01*
X645566Y1356817D01*
X650646Y1359763D01*
X660704Y1366418D01*
X665581Y1370177D01*
X670356Y1374343D01*
X675081Y1378813D01*
X679500Y1383436D01*
X683615Y1388262D01*
X687425Y1393139D01*
X694080Y1403197D01*
X696976Y1408226D01*
X699566Y1413306D01*
X701852Y1418488D01*
X705561Y1428851D01*
X707948Y1438960D01*
X708710Y1443786D01*
X709117Y1448511D01*
X709218Y1453134D01*
X709015Y1457655D01*
G37*
G36*
X760069Y1371803D02*
G01*
X746556Y1358341D01*
X749655Y1299108D01*
X749503Y1293469D01*
X748995Y1288237D01*
X748182Y1283462D01*
X747014Y1279144D01*
X745337Y1275181D01*
X743051Y1271574D01*
X738682Y1266748D01*
X735380Y1263954D01*
X731926Y1261973D01*
X728370Y1260856D01*
X724662Y1260652D01*
X721055Y1261110D01*
X717550Y1262380D01*
X714146Y1264412D01*
X710844Y1267256D01*
X707593Y1271066D01*
X706374Y1272946D01*
X704748Y1276705D01*
X703834Y1280464D01*
X703630Y1282344D01*
X703986Y1286256D01*
X704900Y1290066D01*
X706272Y1293926D01*
X708152Y1297635D01*
X690880Y1305153D01*
X688441Y1299565D01*
X687476Y1296568D01*
X686104Y1290370D01*
X685647Y1283970D01*
X685850Y1280769D01*
X686358Y1277366D01*
X687171Y1273962D01*
X688238Y1270609D01*
X689660Y1267256D01*
X691489Y1263853D01*
X693724Y1260500D01*
X696417Y1257147D01*
X699516Y1253794D01*
X702868Y1250696D01*
X706323Y1247952D01*
X709879Y1245666D01*
X713536Y1243736D01*
X717092Y1242314D01*
X720648Y1241298D01*
X724204Y1240637D01*
X727710Y1240332D01*
X731215Y1240434D01*
X734618Y1240942D01*
X738022Y1241907D01*
X744677Y1244803D01*
X747877Y1246733D01*
X750874Y1249019D01*
X753770Y1251661D01*
X756310Y1254404D01*
X758545Y1257198D01*
X760425Y1260144D01*
X763371Y1266240D01*
X765302Y1272692D01*
X766419Y1279702D01*
X766876Y1286967D01*
X766419Y1302054D01*
X763270Y1344523D01*
X807618Y1300124D01*
X819658Y1312164D01*
G37*
G36*
X834898Y1281531D02*
G01*
X830071Y1280922D01*
X825296Y1279652D01*
X820369Y1277823D01*
X815289Y1275435D01*
X810158Y1272489D01*
X799795Y1264818D01*
X789127Y1255064D01*
X779424Y1244447D01*
X771702Y1234033D01*
X768756Y1228902D01*
X766368Y1223873D01*
X764540Y1218946D01*
X763270Y1214120D01*
X762660Y1209294D01*
X762660Y1204671D01*
X781050Y1204671D01*
X781253Y1207312D01*
X781761Y1210005D01*
X782624Y1212697D01*
X783793Y1215440D01*
X786993Y1220927D01*
X791260Y1226566D01*
X796493Y1232255D01*
X814832Y1250442D01*
X820470Y1255217D01*
X826058Y1258976D01*
X831494Y1261567D01*
X834237Y1262430D01*
X836879Y1262989D01*
X839520Y1263142D01*
X842111Y1262989D01*
X844651Y1262430D01*
X847140Y1261516D01*
X849528Y1260246D01*
X851865Y1258570D01*
X854151Y1256487D01*
X856234Y1254201D01*
X857910Y1251864D01*
X859180Y1249476D01*
X860094Y1246987D01*
X860602Y1244447D01*
X860806Y1241856D01*
X860602Y1239215D01*
X860094Y1236573D01*
X859231Y1233881D01*
X856640Y1228394D01*
X852881Y1222806D01*
X848106Y1217168D01*
X829919Y1198829D01*
X824230Y1193596D01*
X818591Y1189329D01*
X813053Y1186129D01*
X810361Y1184960D01*
X807618Y1184097D01*
X804976Y1183589D01*
X802335Y1183386D01*
X799744Y1183589D01*
X797204Y1184097D01*
X794664Y1184960D01*
X792175Y1186180D01*
X789838Y1187805D01*
X787552Y1189888D01*
X785469Y1192174D01*
X783844Y1194511D01*
X782624Y1197000D01*
X781761Y1199540D01*
X781253Y1202080D01*
X781050Y1204671D01*
X762660Y1204671D01*
X763219Y1199743D01*
X764336Y1195070D01*
X766114Y1190650D01*
X768604Y1186281D01*
X771702Y1182014D01*
X775512Y1177848D01*
X783894Y1170940D01*
X792683Y1166672D01*
X801928Y1164945D01*
X811580Y1165809D01*
X821486Y1168958D01*
X831646Y1174292D01*
X842060Y1181811D01*
X852728Y1191463D01*
X862431Y1202131D01*
X869899Y1212545D01*
X875233Y1222705D01*
X878433Y1232611D01*
X879297Y1242263D01*
X877569Y1251508D01*
X873252Y1260348D01*
X866394Y1268730D01*
X862177Y1272489D01*
X857910Y1275588D01*
X853490Y1277975D01*
X848969Y1279652D01*
X844346Y1280871D01*
X839673Y1281531D01*
G37*
G36*
X910894Y1220927D02*
G01*
X897432Y1207465D01*
X900531Y1148232D01*
X900379Y1142593D01*
X899871Y1137361D01*
X899058Y1132586D01*
X897890Y1128268D01*
X896162Y1124305D01*
X893927Y1120698D01*
X889558Y1115872D01*
X886256Y1113078D01*
X882802Y1111097D01*
X879246Y1110030D01*
X875537Y1109776D01*
X871931Y1110234D01*
X868375Y1111504D01*
X864971Y1113586D01*
X861720Y1116431D01*
X858469Y1120190D01*
X857250Y1122070D01*
X855573Y1125829D01*
X854710Y1129588D01*
X854506Y1131519D01*
X854811Y1135380D01*
X855776Y1139240D01*
X857148Y1143101D01*
X859028Y1146759D01*
X841756Y1154328D01*
X839317Y1148689D01*
X838352Y1145743D01*
X836980Y1139494D01*
X836523Y1133094D01*
X836726Y1129893D01*
X837234Y1126490D01*
X838047Y1123086D01*
X839114Y1119733D01*
X840486Y1116431D01*
X842365Y1113028D01*
X844600Y1109624D01*
X847293Y1106271D01*
X850392Y1102918D01*
X853744Y1099820D01*
X857199Y1097076D01*
X860755Y1094790D01*
X864412Y1092860D01*
X867968Y1091438D01*
X871524Y1090422D01*
X875080Y1089761D01*
X878586Y1089456D01*
X882091Y1089558D01*
X885494Y1090117D01*
X888898Y1091031D01*
X895553Y1093927D01*
X898753Y1095908D01*
X901750Y1098143D01*
X904646Y1100785D01*
X907186Y1103528D01*
X911301Y1109268D01*
X912876Y1112266D01*
X915314Y1118565D01*
X916838Y1125220D01*
X917600Y1132433D01*
X917752Y1139748D01*
X917041Y1155192D01*
X914146Y1193647D01*
X958494Y1149299D01*
X970534Y1161288D01*
G37*
G36*
X978255Y1137056D02*
G01*
X972819Y1136650D01*
X967689Y1135786D01*
X970026Y1117295D01*
X974191Y1118057D01*
X978458Y1118565D01*
X982421Y1118666D01*
X986332Y1118209D01*
X990142Y1117041D01*
X993902Y1115314D01*
X997813Y1112774D01*
X1001623Y1109421D01*
X1005128Y1105458D01*
X1007668Y1101445D01*
X1009345Y1097432D01*
X1010056Y1093419D01*
X1009802Y1089406D01*
X1008684Y1085545D01*
X1006652Y1081938D01*
X1002893Y1077620D01*
X999388Y1074674D01*
X995730Y1072743D01*
X991920Y1071727D01*
X987958Y1071676D01*
X983996Y1072692D01*
X979932Y1074623D01*
X975817Y1077468D01*
X971600Y1081227D01*
X962456Y1090371D01*
X950417Y1078331D01*
X959205Y1069543D01*
X962863Y1065479D01*
X965453Y1061516D01*
X967079Y1057656D01*
X967689Y1053896D01*
X967587Y1050340D01*
X966724Y1047038D01*
X965149Y1043990D01*
X961898Y1040231D01*
X958850Y1037640D01*
X955649Y1035862D01*
X952347Y1034948D01*
X948994Y1034846D01*
X945540Y1035507D01*
X942136Y1036878D01*
X938784Y1039012D01*
X935532Y1041857D01*
X932687Y1045057D01*
X930402Y1048359D01*
X928725Y1051712D01*
X927608Y1055166D01*
X927049Y1058875D01*
X926947Y1062685D01*
X927303Y1066495D01*
X928166Y1070406D01*
X910539Y1071880D01*
X909828Y1066952D01*
X909472Y1061821D01*
X909726Y1056538D01*
X910742Y1051204D01*
X912723Y1045921D01*
X915416Y1040434D01*
X917092Y1037640D01*
X919073Y1034846D01*
X924001Y1029309D01*
X927100Y1026414D01*
X930300Y1023823D01*
X933602Y1021537D01*
X940358Y1017828D01*
X943762Y1016406D01*
X947115Y1015390D01*
X950417Y1014730D01*
X953820Y1014577D01*
X957122Y1014730D01*
X960374Y1015187D01*
X963523Y1016000D01*
X966622Y1017371D01*
X969568Y1019048D01*
X972362Y1021130D01*
X975055Y1023569D01*
X976985Y1025652D01*
X980135Y1030071D01*
X982268Y1034694D01*
X983437Y1039469D01*
X983742Y1044346D01*
X983589Y1046835D01*
X982573Y1051560D01*
X980846Y1056081D01*
X978458Y1060348D01*
X979169Y1061110D01*
X983742Y1058418D01*
X986078Y1057300D01*
X991108Y1055725D01*
X996340Y1055014D01*
X998931Y1054963D01*
X1004112Y1055725D01*
X1006754Y1056487D01*
X1011834Y1058722D01*
X1016762Y1062228D01*
X1019200Y1064514D01*
X1021892Y1067460D01*
X1024128Y1070559D01*
X1025906Y1073810D01*
X1027328Y1077264D01*
X1028446Y1080770D01*
X1029106Y1084326D01*
X1029309Y1087983D01*
X1029106Y1091641D01*
X1028547Y1095400D01*
X1027582Y1099159D01*
X1026210Y1102918D01*
X1024432Y1106728D01*
X1022350Y1110538D01*
X1019860Y1114247D01*
X1016965Y1117904D01*
X1013663Y1121460D01*
X1010513Y1124407D01*
X1007414Y1126947D01*
X1004316Y1129131D01*
X998321Y1132535D01*
X992479Y1134973D01*
X989584Y1135786D01*
X983894Y1136650D01*
G37*
G36*
X-330352Y1394663D02*
G01*
X-335737Y1394612D01*
X-341071Y1394002D01*
X-346557Y1392783D01*
X-352094Y1390904D01*
X-357784Y1388313D01*
X-368960Y1381252D01*
X-380085Y1371447D01*
X-389991Y1360170D01*
X-397154Y1348994D01*
X-399643Y1343355D01*
X-401472Y1337818D01*
X-402742Y1332331D01*
X-403402Y1326896D01*
X-403435Y1323492D01*
X-377748Y1323492D01*
X-376682Y1328775D01*
X-374446Y1334058D01*
X-371043Y1339291D01*
X-366420Y1344523D01*
X-353314Y1357630D01*
X-342747Y1365758D01*
X-332282Y1368907D01*
X-327101Y1368806D01*
X-322173Y1367434D01*
X-317500Y1364945D01*
X-313080Y1361186D01*
X-309372Y1356766D01*
X-306832Y1352092D01*
X-305511Y1347165D01*
X-305358Y1341983D01*
X-308559Y1331518D01*
X-316687Y1321003D01*
X-329793Y1307846D01*
X-335026Y1303274D01*
X-340258Y1299819D01*
X-345490Y1297584D01*
X-350824Y1296568D01*
X-355904Y1296771D01*
X-360781Y1298194D01*
X-365404Y1300734D01*
X-369824Y1304442D01*
X-373583Y1308862D01*
X-376123Y1313535D01*
X-377494Y1318412D01*
X-377748Y1323492D01*
X-403435Y1323492D01*
X-403453Y1321562D01*
X-402894Y1316329D01*
X-401675Y1311148D01*
X-399846Y1306068D01*
X-397408Y1301140D01*
X-394462Y1296365D01*
X-390956Y1291793D01*
X-386892Y1287373D01*
X-382524Y1283360D01*
X-377901Y1279855D01*
X-373176Y1276908D01*
X-368198Y1274470D01*
X-363169Y1272641D01*
X-357987Y1271422D01*
X-352755Y1270812D01*
X-347370Y1270863D01*
X-341985Y1271524D01*
X-336499Y1272844D01*
X-331012Y1274775D01*
X-325475Y1277315D01*
X-314147Y1284325D01*
X-302818Y1294231D01*
X-293116Y1305407D01*
X-286156Y1316685D01*
X-283514Y1322273D01*
X-281584Y1327810D01*
X-280263Y1333246D01*
X-279654Y1338580D01*
X-279654Y1343914D01*
X-280212Y1349197D01*
X-281432Y1354328D01*
X-283260Y1359408D01*
X-285699Y1364335D01*
X-288645Y1369110D01*
X-292150Y1373682D01*
X-296214Y1378102D01*
X-300583Y1382115D01*
X-305155Y1385620D01*
X-309930Y1388618D01*
X-314858Y1391005D01*
X-319938Y1392885D01*
X-325120Y1394053D01*
G37*
G36*
X-243027Y1322070D02*
G01*
X-330860Y1234236D01*
X-328523Y1231900D01*
X-295148Y1231900D01*
X-272338Y1254709D01*
X-252221Y1234592D01*
X-250291Y1232408D01*
X-248869Y1230172D01*
X-247954Y1227937D01*
X-247548Y1225600D01*
X-247700Y1223365D01*
X-248462Y1221181D01*
X-249783Y1218996D01*
X-251663Y1216812D01*
X-257200Y1211224D01*
X-259384Y1209344D01*
X-261569Y1208074D01*
X-263804Y1207312D01*
X-266039Y1207109D01*
X-268325Y1207516D01*
X-270611Y1208481D01*
X-272846Y1209852D01*
X-274980Y1211783D01*
X-295148Y1231900D01*
X-328523Y1231900D01*
X-289356Y1192733D01*
X-286258Y1189888D01*
X-283057Y1187500D01*
X-279704Y1185519D01*
X-276250Y1183944D01*
X-272745Y1182624D01*
X-269240Y1181709D01*
X-265734Y1181201D01*
X-262229Y1181049D01*
X-258673Y1181404D01*
X-255066Y1182166D01*
X-251460Y1183233D01*
X-247904Y1184656D01*
X-244449Y1186535D01*
X-241046Y1188770D01*
X-237794Y1191412D01*
X-234594Y1194358D01*
X-230581Y1198880D01*
X-227329Y1203604D01*
X-224840Y1208582D01*
X-223113Y1213764D01*
X-222250Y1219098D01*
X-222351Y1224483D01*
X-223418Y1229969D01*
X-225450Y1235506D01*
X-173685Y1252728D01*
X-194919Y1273911D01*
X-242519Y1257198D01*
X-256133Y1270863D01*
X-223977Y1303020D01*
G37*
G36*
X-161696Y1240688D02*
G01*
X-176936Y1225448D01*
X-165608Y1214120D01*
X-222910Y1156817D01*
X-234238Y1168146D01*
X-249478Y1152855D01*
X-207822Y1111199D01*
X-192582Y1126490D01*
X-203860Y1137767D01*
X-146608Y1195070D01*
X-135280Y1183741D01*
X-119989Y1199032D01*
G37*
G36*
X-141376Y1142796D02*
G01*
X-144627Y1107592D01*
X-174599Y1123950D01*
X-183946Y1104544D01*
X-152857Y1091793D01*
X-178003Y1069187D01*
X-161696Y1052830D01*
X-139039Y1077976D01*
X-126288Y1046886D01*
X-107086Y1056436D01*
X-123240Y1086256D01*
X-88239Y1089660D01*
X-92354Y1111402D01*
X-126492Y1104544D01*
X-119633Y1138682D01*
G37*
G36*
X-32156Y1091793D02*
G01*
X-37541Y1091234D01*
X-42976Y1090015D01*
X-48463Y1088186D01*
X-54102Y1085697D01*
X-65125Y1078687D01*
X-76352Y1068832D01*
X-86055Y1057757D01*
X-93268Y1046530D01*
X-95808Y1040841D01*
X-97790Y1035202D01*
X-99161Y1029614D01*
X-99872Y1024077D01*
X-99974Y1018743D01*
X-99415Y1013510D01*
X-98348Y1008329D01*
X-96672Y1003249D01*
X-94284Y998219D01*
X-91338Y993343D01*
X-87731Y988618D01*
X-83566Y984046D01*
X-71170Y974140D01*
X-58419Y968959D01*
X-44907Y968146D01*
X-30022Y971803D01*
X-38100Y996797D01*
X-41706Y995222D01*
X-45262Y994156D01*
X-48768Y993546D01*
X-52324Y993394D01*
X-55829Y994054D01*
X-59334Y995578D01*
X-62890Y997915D01*
X-66497Y1001115D01*
X-70154Y1005433D01*
X-72745Y1010056D01*
X-74218Y1014882D01*
X-74574Y1019962D01*
X-71780Y1030579D01*
X-63804Y1041146D01*
X-49784Y1055166D01*
X-44551Y1059738D01*
X-39319Y1063040D01*
X-34036Y1065022D01*
X-28752Y1065784D01*
X-23622Y1065479D01*
X-18694Y1064056D01*
X-14071Y1061516D01*
X-9753Y1057859D01*
X-6654Y1054303D01*
X-4318Y1050594D01*
X-2844Y1046734D01*
X-2184Y1042771D01*
X-2336Y1038758D01*
X-2895Y1034846D01*
X-3962Y1031036D01*
X-5435Y1027328D01*
X19354Y1020876D01*
X22606Y1035405D01*
X21894Y1049223D01*
X16967Y1062278D01*
X7162Y1074724D01*
X2590Y1078941D01*
X-2032Y1082598D01*
X-6807Y1085697D01*
X-11684Y1088186D01*
X-16713Y1089964D01*
X-21742Y1091184D01*
X-26924Y1091793D01*
G37*
G36*
X52069Y1026972D02*
G01*
X-35763Y939139D01*
X-16560Y919937D01*
X18440Y954938D01*
X51866Y921512D01*
X16865Y886510D01*
X35864Y867460D01*
X123698Y955294D01*
X104698Y974344D01*
X68732Y938428D01*
X35356Y971803D01*
X71272Y1007770D01*
G37*
G36*
X145592Y918718D02*
G01*
X140258Y918667D01*
X134874Y918057D01*
X129489Y916787D01*
X123952Y914806D01*
X118313Y912215D01*
X107035Y905256D01*
X95859Y895502D01*
X86004Y884174D01*
X78994Y872845D01*
X76454Y867308D01*
X74523Y861821D01*
X73202Y856386D01*
X72542Y850950D01*
X72509Y847547D01*
X98196Y847547D01*
X99263Y852830D01*
X101498Y858113D01*
X104902Y863346D01*
X109524Y868578D01*
X122631Y881684D01*
X133197Y889812D01*
X143662Y892962D01*
X148844Y892810D01*
X153771Y891489D01*
X158445Y888949D01*
X162864Y885240D01*
X166573Y880821D01*
X169113Y876147D01*
X170434Y871219D01*
X170586Y866038D01*
X167386Y855573D01*
X159258Y845007D01*
X146151Y831900D01*
X140970Y827278D01*
X135686Y823874D01*
X130454Y821639D01*
X125171Y820572D01*
X120040Y820826D01*
X115163Y822198D01*
X110540Y824788D01*
X106121Y828497D01*
X102412Y832916D01*
X99822Y837590D01*
X98450Y842467D01*
X98196Y847547D01*
X72509Y847547D01*
X72491Y845616D01*
X73050Y840333D01*
X74269Y835202D01*
X76098Y830122D01*
X78536Y825195D01*
X81534Y820419D01*
X84988Y815848D01*
X89052Y811428D01*
X93472Y807415D01*
X98044Y803910D01*
X102768Y800912D01*
X107746Y798525D01*
X112826Y796645D01*
X117957Y795477D01*
X123240Y794867D01*
X128574Y794918D01*
X134010Y795578D01*
X139496Y796848D01*
X145034Y798728D01*
X150672Y801217D01*
X161848Y808329D01*
X173126Y818286D01*
X182880Y829411D01*
X189992Y840536D01*
X192532Y846226D01*
X194411Y851814D01*
X195681Y857250D01*
X196291Y862634D01*
X196342Y867968D01*
X195732Y873201D01*
X194513Y878382D01*
X192684Y883462D01*
X190246Y888390D01*
X187299Y893165D01*
X183794Y897737D01*
X179730Y902157D01*
X175361Y906170D01*
X170789Y909675D01*
X166014Y912621D01*
X161086Y915060D01*
X156006Y916889D01*
X150825Y918108D01*
G37*
G36*
X232917Y846124D02*
G01*
X145084Y758291D01*
X147418Y755954D01*
X180848Y755954D01*
X203657Y778764D01*
X223774Y758647D01*
X225653Y756462D01*
X227075Y754227D01*
X227990Y751992D01*
X228447Y749655D01*
X228244Y747420D01*
X227482Y745185D01*
X226161Y743000D01*
X218744Y735279D01*
X216560Y733399D01*
X214375Y732078D01*
X212140Y731367D01*
X209905Y731164D01*
X207619Y731570D01*
X205333Y732485D01*
X203149Y733907D01*
X200964Y735838D01*
X180848Y755954D01*
X147418Y755954D01*
X186740Y716584D01*
X189788Y713841D01*
X192989Y711454D01*
X196342Y709422D01*
X199847Y707796D01*
X203301Y706577D01*
X206756Y705713D01*
X210210Y705205D01*
X213715Y705104D01*
X217271Y705459D01*
X220878Y706170D01*
X224485Y707288D01*
X228041Y708710D01*
X231546Y710590D01*
X234899Y712825D01*
X238150Y715416D01*
X241350Y718413D01*
X245364Y722934D01*
X248615Y727659D01*
X251104Y732637D01*
X252831Y737819D01*
X253695Y743153D01*
X253593Y748538D01*
X252526Y754024D01*
X250494Y759510D01*
X302260Y776782D01*
X281025Y797966D01*
X233629Y781100D01*
X219811Y794918D01*
X251967Y827074D01*
G37*
G36*
X317703Y761339D02*
G01*
X229870Y673506D01*
X231848Y671525D01*
X265988Y671525D01*
X319836Y725424D01*
X333857Y711403D01*
X337566Y707085D01*
X340207Y702614D01*
X341884Y697941D01*
X342493Y693064D01*
X341833Y688187D01*
X339852Y683209D01*
X336600Y678129D01*
X332079Y672947D01*
X318414Y659333D01*
X313182Y654710D01*
X308102Y651408D01*
X303123Y649478D01*
X298297Y648919D01*
X293420Y649478D01*
X288798Y651154D01*
X284276Y653796D01*
X279958Y657504D01*
X265988Y671525D01*
X231848Y671525D01*
X262890Y640435D01*
X267309Y636422D01*
X271881Y632917D01*
X276656Y629970D01*
X281584Y627532D01*
X286562Y625602D01*
X291642Y624281D01*
X296824Y623620D01*
X302056Y623570D01*
X307289Y624078D01*
X312623Y625246D01*
X318008Y627024D01*
X323443Y629513D01*
X334518Y636270D01*
X345541Y645820D01*
X355041Y656793D01*
X361696Y667766D01*
X364185Y673201D01*
X366014Y678637D01*
X367233Y683971D01*
X367792Y689305D01*
X367690Y694486D01*
X366979Y699617D01*
X365709Y704748D01*
X363829Y709777D01*
X361340Y714654D01*
X358343Y719328D01*
X354787Y723900D01*
X350723Y728268D01*
G37*
G36*
X401929Y677113D02*
G01*
X386638Y661822D01*
X397967Y650494D01*
X340664Y593242D01*
X329387Y604520D01*
X314096Y589280D01*
X355752Y547573D01*
X371043Y562864D01*
X359714Y574192D01*
X417017Y631494D01*
X428345Y620166D01*
X443585Y635406D01*
G37*
G36*
X452374Y626618D02*
G01*
X396750Y516331D01*
X421843Y516331D01*
X445566Y559460D01*
X465683Y539343D01*
X422605Y515620D01*
X421843Y516331D01*
X396750Y516331D01*
X393496Y509879D01*
X417169Y486156D01*
X533552Y545439D01*
X513638Y565404D01*
X486511Y550824D01*
X457250Y580085D01*
X471779Y607212D01*
G37*
G36*
X-288340Y1721612D02*
G01*
X-343782Y1608632D01*
X-324815Y1608632D01*
X-298754Y1660194D01*
X-272897Y1634337D01*
X-324256Y1608124D01*
X-324815Y1608632D01*
X-343782Y1608632D01*
X-346151Y1603806D01*
X-328371Y1586026D01*
X-210566Y1643837D01*
X-225450Y1658772D01*
X-257098Y1642922D01*
X-289966Y1675790D01*
X-273964Y1707235D01*
G37*
G36*
X-186842Y1620113D02*
G01*
X-262128Y1544878D01*
X-288340Y1571091D01*
X-300888Y1558544D01*
X-234289Y1491894D01*
X-221691Y1504492D01*
X-247904Y1530705D01*
X-172669Y1605940D01*
G37*
G36*
X-132638Y1565910D02*
G01*
X-220421Y1478076D01*
X-203758Y1461363D01*
X-135483Y1482547D01*
X-134772Y1481836D01*
X-155956Y1413611D01*
X-139801Y1397406D01*
X-51968Y1485239D01*
X-65633Y1498904D01*
X-132791Y1431747D01*
X-133350Y1432255D01*
X-126136Y1453438D01*
X-110337Y1507693D01*
X-164592Y1491894D01*
X-185623Y1484528D01*
X-186334Y1485239D01*
X-119126Y1552448D01*
G37*
G36*
X-30429Y1463700D02*
G01*
X-118262Y1375867D01*
X-62026Y1319682D01*
X-49479Y1332230D01*
X-91490Y1374241D01*
X-67056Y1398676D01*
X-28803Y1360424D01*
X-16256Y1373022D01*
X-54508Y1411274D01*
X-28803Y1436928D01*
X13208Y1394917D01*
X25806Y1407464D01*
G37*
G36*
X45567Y1372616D02*
G01*
X40335Y1372463D01*
X35102Y1371803D01*
X29718Y1370431D01*
X24231Y1368450D01*
X18592Y1365808D01*
X7518Y1358747D01*
X-3505Y1349095D01*
X-13157Y1338072D01*
X-20370Y1326845D01*
X-22860Y1321206D01*
X-24739Y1315669D01*
X-26009Y1310182D01*
X-26670Y1304747D01*
X-26720Y1299413D01*
X-26212Y1294130D01*
X-25095Y1288999D01*
X-23418Y1283919D01*
X-21082Y1279042D01*
X-18186Y1274368D01*
X-14681Y1269796D01*
X-10668Y1265428D01*
X1574Y1255776D01*
X14681Y1250492D01*
X28092Y1249578D01*
X41757Y1252474D01*
X37084Y1270812D01*
X32664Y1269238D01*
X28194Y1268374D01*
X23723Y1268171D01*
X19151Y1268679D01*
X14732Y1269796D01*
X10414Y1271727D01*
X6197Y1274521D01*
X2082Y1278178D01*
X-5638Y1289202D01*
X-7975Y1301496D01*
X-4775Y1314399D01*
X4419Y1326845D01*
X18592Y1341018D01*
X31038Y1350213D01*
X43942Y1353413D01*
X56388Y1351229D01*
X67462Y1343558D01*
X71221Y1339240D01*
X74269Y1334566D01*
X76504Y1329690D01*
X77724Y1324711D01*
X77978Y1319834D01*
X77622Y1317396D01*
X76149Y1312621D01*
X74980Y1310335D01*
X73456Y1308100D01*
X64769Y1299159D01*
X46634Y1317345D01*
X34391Y1305102D01*
X66192Y1273302D01*
X113080Y1320190D01*
X100685Y1332585D01*
X87376Y1319276D01*
X86868Y1319834D01*
X88849Y1323848D01*
X90068Y1328216D01*
X90373Y1332941D01*
X89916Y1337970D01*
X88442Y1343101D01*
X85902Y1348181D01*
X82397Y1353210D01*
X77876Y1358290D01*
X73914Y1361897D01*
X69697Y1364996D01*
X65278Y1367637D01*
X60655Y1369771D01*
X55727Y1371295D01*
X50698Y1372260D01*
G37*
G36*
X124764Y1308506D02*
G01*
X69273Y1195527D01*
X88290Y1195527D01*
X114350Y1247089D01*
X140208Y1221232D01*
X88849Y1195019D01*
X88290Y1195527D01*
X69273Y1195527D01*
X66903Y1190701D01*
X84683Y1172921D01*
X202539Y1230731D01*
X187604Y1245666D01*
X156006Y1229868D01*
X123139Y1262735D01*
X139293Y1293977D01*
G37*
G36*
X205587Y1210818D02*
G01*
X200304Y1210564D01*
X195173Y1209751D01*
X197307Y1191056D01*
X201523Y1191971D01*
X205587Y1192479D01*
X209550Y1192580D01*
X213461Y1192123D01*
X217373Y1191107D01*
X221183Y1189431D01*
X225094Y1186891D01*
X228904Y1183538D01*
X232460Y1179474D01*
X235051Y1175410D01*
X236626Y1171397D01*
X237185Y1167333D01*
X236982Y1163370D01*
X235864Y1159560D01*
X233832Y1155954D01*
X230022Y1151534D01*
X226567Y1148689D01*
X223012Y1146810D01*
X219252Y1145844D01*
X215290Y1145794D01*
X211226Y1146708D01*
X207162Y1148537D01*
X203047Y1151280D01*
X198932Y1154938D01*
X189585Y1164285D01*
X177546Y1152245D01*
X186537Y1143304D01*
X190093Y1139291D01*
X192735Y1135380D01*
X194411Y1131570D01*
X195173Y1127861D01*
X194970Y1124356D01*
X194106Y1121105D01*
X192481Y1118057D01*
X189230Y1114348D01*
X186131Y1111707D01*
X182880Y1109929D01*
X179578Y1108964D01*
X176123Y1108811D01*
X172669Y1109421D01*
X169316Y1110792D01*
X166014Y1112824D01*
X162814Y1115618D01*
X159969Y1118819D01*
X157734Y1122172D01*
X156006Y1125677D01*
X154940Y1129284D01*
X154432Y1132941D01*
X154330Y1136700D01*
X154686Y1140561D01*
X155448Y1144524D01*
X137668Y1145794D01*
X137160Y1140764D01*
X136956Y1135735D01*
X137210Y1130503D01*
X138226Y1125169D01*
X139954Y1119886D01*
X142697Y1114552D01*
X144373Y1111758D01*
X148691Y1106220D01*
X154432Y1100480D01*
X160883Y1095451D01*
X164287Y1093368D01*
X167690Y1091742D01*
X171043Y1090422D01*
X177749Y1088847D01*
X184454Y1088796D01*
X187655Y1089304D01*
X190855Y1090117D01*
X193954Y1091336D01*
X196900Y1092962D01*
X199796Y1094994D01*
X202539Y1097483D01*
X204470Y1099616D01*
X207517Y1104087D01*
X209600Y1108811D01*
X210769Y1113586D01*
X210972Y1118412D01*
X210413Y1123238D01*
X209905Y1125677D01*
X208127Y1130198D01*
X205740Y1134465D01*
X206298Y1135024D01*
X211023Y1132484D01*
X215798Y1130554D01*
X218338Y1129792D01*
X220929Y1129284D01*
X223570Y1129030D01*
X228803Y1129334D01*
X231394Y1129792D01*
X236474Y1131417D01*
X239064Y1132738D01*
X243992Y1136243D01*
X246329Y1138428D01*
X249123Y1141476D01*
X251409Y1144574D01*
X253339Y1147826D01*
X254812Y1151178D01*
X255778Y1154734D01*
X256387Y1158341D01*
X256590Y1161999D01*
X256387Y1165758D01*
X255828Y1169517D01*
X254863Y1173276D01*
X253492Y1177036D01*
X251714Y1180846D01*
X249580Y1184554D01*
X247040Y1188212D01*
X244094Y1191818D01*
X240792Y1195374D01*
X237744Y1198270D01*
X231698Y1202994D01*
X228752Y1204874D01*
X222808Y1207770D01*
X216916Y1209548D01*
X211175Y1210614D01*
G37*
G36*
X289102Y1144168D02*
G01*
X275437Y1130554D01*
X278485Y1077569D01*
X278638Y1071422D01*
X278434Y1065733D01*
X277977Y1060551D01*
X277215Y1055827D01*
X275996Y1051458D01*
X274269Y1047445D01*
X272034Y1043889D01*
X267716Y1039114D01*
X264414Y1036319D01*
X261010Y1034287D01*
X257505Y1033170D01*
X253898Y1032814D01*
X250088Y1033322D01*
X246481Y1034592D01*
X243027Y1036624D01*
X239725Y1039469D01*
X236626Y1043127D01*
X235407Y1044956D01*
X233781Y1048766D01*
X232867Y1052677D01*
X232714Y1056640D01*
X233222Y1060399D01*
X234442Y1064158D01*
X237032Y1069848D01*
X219964Y1077569D01*
X217525Y1071829D01*
X215646Y1065682D01*
X215036Y1062583D01*
X214731Y1059434D01*
X214680Y1056132D01*
X215392Y1049426D01*
X216154Y1046124D01*
X217322Y1042822D01*
X220624Y1036167D01*
X222808Y1032814D01*
X225450Y1029512D01*
X228549Y1026160D01*
X231952Y1023061D01*
X235407Y1020368D01*
X238963Y1018032D01*
X242570Y1016152D01*
X246176Y1014679D01*
X249732Y1013663D01*
X253238Y1013002D01*
X256743Y1012698D01*
X260248Y1012799D01*
X263702Y1013307D01*
X267157Y1014171D01*
X270611Y1015390D01*
X273761Y1017016D01*
X276860Y1018997D01*
X279908Y1021334D01*
X282803Y1024026D01*
X285242Y1026668D01*
X287426Y1029462D01*
X289306Y1032357D01*
X292303Y1038504D01*
X293471Y1041755D01*
X295046Y1048461D01*
X295808Y1055522D01*
X295910Y1062990D01*
X295198Y1078433D01*
X292354Y1116888D01*
X336702Y1072540D01*
X348742Y1084580D01*
G37*
G36*
X366318Y1051864D02*
G01*
X362000Y1051204D01*
X357682Y1050036D01*
X353314Y1048258D01*
X348894Y1045921D01*
X344525Y1042974D01*
X340004Y1039469D01*
X335381Y1035456D01*
X278688Y978966D01*
X292506Y965098D01*
X346557Y1019200D01*
X357530Y1027988D01*
X367741Y1031748D01*
X372821Y1031748D01*
X377850Y1030274D01*
X382930Y1027328D01*
X388061Y1022959D01*
X392531Y1017778D01*
X395478Y1012647D01*
X396900Y1007618D01*
X396849Y1002639D01*
X393090Y992428D01*
X384302Y981456D01*
X330250Y927404D01*
X344220Y913384D01*
X396138Y965301D01*
X400710Y970076D01*
X404723Y974750D01*
X408178Y979322D01*
X411022Y983792D01*
X413359Y988161D01*
X415188Y992530D01*
X416458Y996797D01*
X417169Y1001064D01*
X417118Y1005281D01*
X416559Y1009548D01*
X415442Y1013815D01*
X413766Y1018082D01*
X411429Y1022299D01*
X408482Y1026566D01*
X404876Y1030986D01*
X400608Y1035507D01*
X396189Y1039723D01*
X391769Y1043279D01*
X387451Y1046276D01*
X383184Y1048613D01*
X378968Y1050239D01*
X374751Y1051306D01*
X370535Y1051864D01*
G37*
G36*
X429717Y969416D02*
G01*
X417525Y957224D01*
X396624Y871728D01*
X411784Y871728D01*
X430428Y946099D01*
X459181Y917346D01*
X412648Y870813D01*
X411784Y871728D01*
X396624Y871728D01*
X394512Y863092D01*
X413207Y844397D01*
X472643Y903884D01*
X484479Y891997D01*
X495808Y903325D01*
X483971Y915162D01*
X501040Y932230D01*
X487578Y945743D01*
X470509Y928674D01*
G37*
G36*
X554380Y864819D02*
G01*
X549097Y864565D01*
X541274Y863650D01*
X543407Y844956D01*
X547624Y845870D01*
X555498Y846632D01*
X559409Y846226D01*
X563270Y845210D01*
X566928Y843686D01*
X570687Y841349D01*
X574294Y838149D01*
X577748Y834136D01*
X580186Y830122D01*
X581609Y825957D01*
X582015Y821791D01*
X581558Y817575D01*
X580136Y813460D01*
X577799Y809447D01*
X573074Y804214D01*
X569214Y800912D01*
X565251Y798525D01*
X561136Y797102D01*
X556869Y796645D01*
X552704Y797052D01*
X548589Y798474D01*
X544525Y800912D01*
X540562Y804367D01*
X538022Y807161D01*
X536041Y809955D01*
X534619Y812749D01*
X533704Y815492D01*
X532841Y820928D01*
X532841Y826109D01*
X519531Y836168D01*
X473709Y783894D01*
X523493Y734161D01*
X535889Y746556D01*
X496874Y785520D01*
X525830Y818743D01*
X526542Y818032D01*
X525627Y813866D01*
X524865Y806399D01*
X525272Y802741D01*
X526186Y799084D01*
X527812Y795578D01*
X530199Y791819D01*
X533552Y788009D01*
X536397Y785418D01*
X539394Y783132D01*
X542594Y781202D01*
X545947Y779576D01*
X549300Y778256D01*
X552704Y777290D01*
X556209Y776732D01*
X559765Y776528D01*
X563270Y776681D01*
X566826Y777189D01*
X570382Y778205D01*
X573938Y779576D01*
X577392Y781304D01*
X580796Y783488D01*
X584149Y786079D01*
X587400Y789127D01*
X590448Y792429D01*
X593191Y795832D01*
X595477Y799388D01*
X597458Y803097D01*
X598982Y807008D01*
X600049Y810869D01*
X600659Y814781D01*
X600913Y818743D01*
X600608Y822756D01*
X599846Y826769D01*
X598678Y830783D01*
X597103Y834745D01*
X595020Y838708D01*
X592429Y842619D01*
X589432Y846429D01*
X585978Y850188D01*
X583031Y852982D01*
X577189Y857554D01*
X574294Y859332D01*
X568502Y862076D01*
X565607Y863092D01*
X559866Y864362D01*
G37*
G36*
X653897Y779424D02*
G01*
X537311Y720293D01*
X552043Y705612D01*
X609498Y735025D01*
X648462Y757123D01*
X648868Y756767D01*
X626922Y717600D01*
X597458Y660146D01*
X611835Y645769D01*
X670407Y762863D01*
G37*
D10*
X-896086Y-2008987D02*
G01*
X-805916Y-2069947D01*
X-695426Y-2092299D01*
X4423435Y-2092299D01*
X4523765Y-2075027D01*
X4631461Y-2003145D01*
X4697247Y-1884019D01*
X4707915Y-1784959D01*
X4683023Y-1690725D01*
X4624095Y-1607667D01*
X2613685Y402488D01*
X-494766Y3511194D01*
X-577824Y3570122D01*
X-704824Y3595268D01*
X-835634Y3557676D01*
X-913104Y3494938D01*
X-962126Y3410864D01*
X-979398Y3310534D01*
X-979398Y-1808327D01*
X-957046Y-1918817D01*
X-896086Y-2008987D01*
D11*
X1155171Y-1641612D02*
G01*
X1248341Y-1431277D01*
X1365501Y-1548437D01*
X1155171Y-1641612D01*
X1295524Y-1323558D02*
G01*
X1290020Y-1318054D01*
X1146126Y-1645940D01*
X1150846Y-1650657D01*
X1478734Y-1506766D01*
X1473222Y-1501254D01*
X1372181Y-1545686D01*
X1251097Y-1424602D01*
X1295524Y-1323558D01*
X1249136Y-1277167D02*
G01*
X1244028Y-1272059D01*
X1008138Y-1507949D01*
X1013246Y-1513057D01*
X1249136Y-1277167D01*
X848527Y-1338915D02*
G01*
X793112Y-1283497D01*
X794349Y-1281445D01*
X1019157Y-1056637D01*
X1074577Y-1112057D01*
X1097053Y-1137620D01*
X1113071Y-1162540D01*
X1123469Y-1187099D01*
X1128684Y-1211168D01*
X1129474Y-1222984D01*
X1127726Y-1246098D01*
X1121872Y-1268412D01*
X1117544Y-1279240D01*
X1106363Y-1300137D01*
X1084066Y-1329390D01*
X1066246Y-1347208D01*
X1046993Y-1362798D01*
X1026553Y-1375625D01*
X1015926Y-1380858D01*
X993942Y-1388704D01*
X982624Y-1391203D01*
X959388Y-1393070D01*
X947516Y-1392336D01*
X923338Y-1387231D01*
X911070Y-1382750D01*
X886233Y-1369674D01*
X873714Y-1360962D01*
X848527Y-1338915D01*
X1080488Y-1343632D02*
G01*
X1098509Y-1323540D01*
X1113426Y-1302301D01*
X1124902Y-1280045D01*
X1129235Y-1268582D01*
X1134887Y-1245067D01*
X1136121Y-1233058D01*
X1135176Y-1208603D01*
X1132918Y-1196207D01*
X1124605Y-1171133D01*
X1118471Y-1158501D01*
X1102014Y-1133137D01*
X1079705Y-1107737D01*
X1019213Y-1047247D01*
X782883Y-1282694D01*
X843371Y-1343185D01*
X869228Y-1365920D01*
X894659Y-1382316D01*
X907328Y-1388409D01*
X932502Y-1396624D01*
X944953Y-1398823D01*
X969525Y-1399654D01*
X981595Y-1398358D01*
X1005220Y-1392598D01*
X1016736Y-1388214D01*
X1039078Y-1376649D01*
X1060378Y-1361671D01*
X1080488Y-1343632D01*
X666114Y-1156502D02*
G01*
X606798Y-1097186D01*
X728637Y-974476D01*
X787953Y-1033795D01*
X804372Y-1054143D01*
X811037Y-1067409D01*
X815715Y-1087023D01*
X815662Y-1099741D01*
X811494Y-1118011D01*
X806363Y-1129489D01*
X799655Y-1140287D01*
X782657Y-1159248D01*
X772779Y-1167117D01*
X761992Y-1173756D01*
X744423Y-1180795D01*
X725584Y-1183513D01*
X705944Y-1180983D01*
X685970Y-1172288D01*
X666114Y-1156502D01*
X966886Y-994920D02*
G01*
X789967Y-1026370D01*
X733353Y-969759D01*
X837539Y-865573D01*
X832426Y-860460D01*
X596536Y-1096350D01*
X661403Y-1161216D01*
X675142Y-1173086D01*
X689132Y-1181704D01*
X703232Y-1187292D01*
X717280Y-1190073D01*
X731141Y-1190261D01*
X744659Y-1188082D01*
X757681Y-1183749D01*
X770064Y-1177488D01*
X781662Y-1169512D01*
X792327Y-1160040D01*
X801679Y-1149540D01*
X809558Y-1138186D01*
X815776Y-1126103D01*
X820122Y-1113424D01*
X822398Y-1100282D01*
X822416Y-1086812D01*
X819965Y-1073144D01*
X814862Y-1059411D01*
X806894Y-1045743D01*
X795870Y-1032273D01*
X973178Y-1001212D01*
X966886Y-994920D01*
X217975Y-499991D02*
G01*
X375630Y-657646D01*
X266730Y-766544D01*
X271846Y-771657D01*
X507735Y-535767D01*
X502620Y-530654D01*
X380352Y-652922D01*
X222699Y-495269D01*
X344967Y-373001D01*
X339859Y-367893D01*
X103969Y-603783D01*
X109077Y-608891D01*
X217975Y-499991D01*
X72143Y-540506D02*
G01*
X77256Y-535396D01*
X58397Y-530313D01*
X39047Y-522663D01*
X10507Y-506542D01*
X-15532Y-485071D01*
X-31965Y-465960D01*
X-44858Y-445168D01*
X-54084Y-423016D01*
X-59540Y-399826D01*
X-61087Y-375925D01*
X-58607Y-351637D01*
X-51991Y-327281D01*
X-41117Y-303182D01*
X-25854Y-279664D01*
X-6090Y-257050D01*
X16504Y-237307D01*
X39959Y-222102D01*
X63969Y-211317D01*
X88224Y-204805D01*
X112392Y-202445D01*
X136174Y-204111D01*
X159257Y-209674D01*
X181322Y-218986D01*
X202056Y-231940D01*
X221145Y-248391D01*
X236120Y-265285D01*
X254368Y-292920D01*
X263497Y-312051D01*
X272257Y-340395D01*
X277365Y-335287D01*
X268866Y-307370D01*
X253954Y-278866D01*
X233654Y-251934D01*
X225861Y-243677D01*
X206242Y-226700D01*
X184866Y-213172D01*
X162049Y-203283D01*
X138115Y-197218D01*
X113372Y-195176D01*
X88153Y-197342D01*
X62763Y-203911D01*
X37531Y-215069D01*
X12768Y-231010D01*
X-11209Y-251934D01*
X-32151Y-275930D01*
X-48150Y-300751D01*
X-59397Y-326072D01*
X-66070Y-351569D01*
X-68356Y-376908D01*
X-66426Y-401761D01*
X-60472Y-425808D01*
X-50667Y-448706D01*
X-37200Y-470143D01*
X-20251Y-489788D01*
X-11978Y-497568D01*
X15105Y-517715D01*
X43886Y-532350D01*
X72143Y-540506D01*
X60358Y-88392D02*
G01*
X55247Y-83281D01*
X-180642Y-319171D01*
X-175531Y-324281D01*
X60358Y-88392D01*
X-297398Y-192989D02*
G01*
X-356720Y-133664D01*
X-234881Y-10957D01*
X-175559Y-70281D01*
X-159143Y-90627D01*
X-152476Y-103896D01*
X-147802Y-123504D01*
X-147850Y-136227D01*
X-152024Y-154492D01*
X-157154Y-165973D01*
X-163868Y-176763D01*
X-180860Y-195729D01*
X-190738Y-203598D01*
X-201528Y-210233D01*
X-219095Y-217276D01*
X-237934Y-219994D01*
X-257573Y-217464D01*
X-277548Y-208770D01*
X-297398Y-192989D01*
X3362Y-31394D02*
G01*
X-173550Y-62852D01*
X-230164Y-6240D01*
X-125978Y97944D01*
X-131091Y103057D01*
X-366981Y-132831D01*
X-302110Y-197703D01*
X-288371Y-209572D01*
X-274383Y-218188D01*
X-260283Y-223776D01*
X-246235Y-226557D01*
X-232379Y-226743D01*
X-218859Y-224563D01*
X-205836Y-220230D01*
X-193454Y-213969D01*
X-181856Y-205994D01*
X-171190Y-196522D01*
X-161838Y-186021D01*
X-153959Y-174668D01*
X-147741Y-162585D01*
X-143395Y-149908D01*
X-141119Y-136766D01*
X-141102Y-123296D01*
X-143553Y-109626D01*
X-148661Y-95890D01*
X-156629Y-82222D01*
X-167657Y-68745D01*
X9654Y-37688D01*
X3362Y-31394D01*
X993162Y-1860044D02*
G01*
X1116756Y-1736450D01*
X-783681Y-92722D02*
G01*
X-660527Y30429D01*
X-404657Y-1482519D02*
G01*
X226192Y-851667D01*
X902434Y-1841098D02*
G01*
X1059030Y-1684505D01*
X826752Y-1815830D02*
G01*
X1008555Y-1634030D01*
X422617Y-1715211D02*
G01*
X756178Y-1381653D01*
X102900Y-1631134D02*
G01*
X554278Y-1179753D01*
X-135519Y-1566699D02*
G01*
X402851Y-1028326D01*
X-294990Y-1524274D02*
G01*
X301904Y-927379D01*
X-445622Y-1372059D02*
G01*
X150479Y-775954D01*
X-488840Y-1213378D02*
G01*
X49532Y-675007D01*
X-553278Y-974958D02*
G01*
X-101897Y-523577D01*
X-637354Y-655238D02*
G01*
X-303794Y-321680D01*
X-749449Y-262580D02*
G01*
X-556171Y-69303D01*
X-763239Y-175422D02*
G01*
X-606645Y-18829D01*
X1114313Y-1734009D02*
G01*
X1120480Y-1740849D01*
X1130254Y-1755965D01*
X1133853Y-1764098D01*
X1138410Y-1781134D01*
X1139385Y-1798731D01*
X1138504Y-1807547D01*
X1133967Y-1824865D01*
X1130284Y-1833222D01*
X1125674Y-1841243D01*
X1114262Y-1855304D01*
X1107617Y-1861263D01*
X1092786Y-1870864D01*
X1076363Y-1877214D01*
X1067719Y-1879097D01*
X1049921Y-1880128D01*
X1040902Y-1879219D01*
X-358762Y-1507302D01*
X-382183Y-1499097D01*
X-399818Y-1487109D01*
X-409646Y-1476898D01*
X-417685Y-1465160D01*
X-425917Y-1445138D01*
X-803455Y-44714D01*
X-805324Y-26695D01*
X-803435Y-9037D01*
X-801141Y-507D01*
X-794011Y15593D01*
X-783676Y29969D01*
X-770354Y42080D01*
X-762652Y47119D01*
X-745977Y54538D01*
X-728532Y58209D01*
X-710897Y58201D01*
X-693651Y54589D01*
X-677387Y47447D01*
X-662686Y36868D01*
X1114313Y-1734009D01*
X-404657Y-1482519D02*
G01*
X2590Y-1075270D01*
X589536Y-889472D02*
G01*
X552132Y-816063D01*
X633511Y-803175D02*
G01*
X552132Y-816063D01*
X565022Y-734689D02*
G01*
X552132Y-816063D01*
X478723Y-778657D02*
G01*
X552132Y-816063D01*
X493875Y-874321D02*
G01*
X552132Y-816063D01*
X-373984Y74051D02*
G01*
X-411386Y147454D01*
X-330012Y160345D02*
G01*
X-411386Y147454D01*
X-398500Y228833D02*
G01*
X-411386Y147454D01*
X-484794Y184861D02*
G01*
X-411386Y147454D01*
X-469643Y89197D02*
G01*
X-411386Y147454D01*
D12*
X1249847Y585429D02*
G01*
X1404957Y560859D01*
X1364287Y304086D01*
X1621061Y344754D01*
X1645630Y189649D01*
X1388844Y148981D01*
X1506870Y-82656D01*
X1366954Y-153957D01*
X1248925Y77680D01*
X1065093Y-106151D01*
X954051Y4894D01*
X1137881Y188721D01*
X906241Y306753D01*
X977536Y446674D01*
X1209161Y328665D01*
X1249847Y585429D01*
D11*
G75*
G01
X714502Y-816051D02*
G03X714502Y-816051I-162357J0D01*
G75*
G01
X721436Y-816051D02*
G03X721436Y-816051I-169291J0D01*
G75*
G01
X-248996Y147447D02*
G03X-248996Y147447I-162357J0D01*
G75*
G01
X-242062Y147447D02*
G03X-242062Y147447I-169291J0D01*
D13*
G75*
G01
X1904822Y209626D02*
G03X1904822Y209626I-635000J0D01*
M02*
