G04 Layer: TopPasteMaskLayer*
G04 EasyEDA v6.5.34, 2023-08-29 15:51:40*
G04 c19b9e491f004e949dcb7f38ecc8bf32,24d7ea87aaaa49e9b18beb810eddf566,10*
G04 Gerber Generator version 0.2*
G04 Scale: 100 percent, Rotated: No, Reflected: No *
G04 Dimensions in millimeters *
G04 leading zeros omitted , absolute positions ,4 integer and 5 decimal *
%FSLAX45Y45*%
%MOMM*%

%AMMACRO1*21,1,$1,$2,0,0,$3*%
%AMMACRO2*4,1,5,-0.3313,-0.2125,0.2521,0.3709,0.3313,0.2916,0.1188,-0.0793,-0.1729,-0.3709,-0.3313,-0.2125,0*%
%AMMACRO3*4,1,5,-0.2125,0.3313,0.3708,-0.2521,0.2916,-0.3313,-0.0794,-0.1188,-0.3708,0.173,-0.2125,0.3313,0*%
%AMMACRO4*4,1,5,0.3313,0.2125,-0.252,-0.3709,-0.3313,-0.2916,-0.1187,0.0793,0.1729,0.3709,0.3313,0.2125,0*%
%AMMACRO5*4,1,5,0.2125,-0.3313,-0.3709,0.2521,-0.2916,0.3313,0.0793,0.1188,0.3709,-0.1729,0.2125,-0.3313,0*%
%AMMACRO6*4,1,5,0.3313,-0.2125,-0.2521,0.3709,-0.3313,0.2917,-0.1187,-0.0793,0.1729,-0.3709,0.3313,-0.2125,0*%
%AMMACRO7*4,1,5,0.2125,0.3313,-0.3709,-0.2521,-0.2916,-0.3313,0.0793,-0.1187,0.3709,0.1729,0.2125,0.3313,0*%
%AMMACRO8*4,1,5,-0.3313,0.2125,0.2521,-0.3709,0.3313,-0.2916,0.1187,0.0793,-0.1729,0.3709,-0.3313,0.2125,0*%
%AMMACRO9*4,1,5,-0.2125,-0.3313,0.3709,0.2521,0.2917,0.3313,-0.0793,0.1188,-0.3709,-0.1729,-0.2125,-0.3313,0*%
%ADD10R,1.0000X1.7000*%
%ADD11R,1.7000X1.0000*%
%ADD12R,0.8000X0.5000*%
%ADD13R,0.5000X0.8000*%
%ADD14R,1.2960X1.5000*%
%ADD15MACRO1,0.96X0.88X-90.0000*%
%ADD16R,1.3000X1.3000*%
%ADD17R,1.9000X1.2000*%
%ADD18R,0.4500X0.3000*%
%ADD19R,0.7800X0.3500*%
%ADD20R,0.7000X1.2500*%
%ADD21MACRO1,0.2X0.825X-44.9949*%
%ADD22MACRO1,0.2X0.825X-45.0000*%
%ADD23MACRO2*%
%ADD24MACRO1,0.825X0.2X-45.0000*%
%ADD25MACRO1,0.825X0.2X-44.9988*%
%ADD26MACRO3*%
%ADD27MACRO4*%
%ADD28MACRO5*%
%ADD29MACRO6*%
%ADD30MACRO7*%
%ADD31MACRO8*%
%ADD32MACRO9*%
%ADD33MACRO1,0.8X1.6X135.0000*%
%ADD34MACRO1,0.8X1.6X134.9987*%
%ADD35MACRO1,2.1X3X135.0000*%
%ADD36MACRO1,2.1X3X134.9995*%
%ADD37R,1.3000X2.0000*%
%ADD38C,0.7874*%
%ADD39C,0.0167*%

%LPD*%
G36*
X-681786Y888187D02*
G01*
X-685800Y884224D01*
X-685800Y838200D01*
X-681786Y834186D01*
X-623925Y834186D01*
X-619963Y838200D01*
X-619963Y884224D01*
X-623925Y888187D01*
G37*
G36*
X-787247Y888187D02*
G01*
X-791210Y884224D01*
X-791210Y838200D01*
X-787247Y834186D01*
X-729386Y834186D01*
X-725373Y838200D01*
X-725373Y884224D01*
X-729386Y888187D01*
G37*
G36*
X-773125Y786587D02*
G01*
X-777138Y782624D01*
X-777138Y736600D01*
X-773125Y732586D01*
X-723087Y732586D01*
X-719074Y736600D01*
X-719074Y782624D01*
X-723087Y786587D01*
G37*
G36*
X-688086Y786587D02*
G01*
X-692099Y782624D01*
X-692099Y736600D01*
X-688086Y732586D01*
X-638048Y732586D01*
X-634034Y736600D01*
X-634034Y782624D01*
X-638048Y786587D01*
G37*
G36*
X-309473Y2606700D02*
G01*
X-313486Y2602687D01*
X-313486Y2544876D01*
X-309473Y2540863D01*
X-263499Y2540863D01*
X-259486Y2544876D01*
X-259486Y2602687D01*
X-263499Y2606700D01*
G37*
G36*
X-309473Y2712161D02*
G01*
X-313486Y2708148D01*
X-313486Y2650286D01*
X-309473Y2646324D01*
X-263499Y2646324D01*
X-259486Y2650286D01*
X-259486Y2708148D01*
X-263499Y2712161D01*
G37*
G36*
X3657752Y-1372412D02*
G01*
X3653739Y-1376375D01*
X3653739Y-1422400D01*
X3657752Y-1426413D01*
X3715613Y-1426413D01*
X3719626Y-1422400D01*
X3719626Y-1376375D01*
X3715613Y-1372412D01*
G37*
G36*
X3763213Y-1372412D02*
G01*
X3759200Y-1376375D01*
X3759200Y-1422400D01*
X3763213Y-1426413D01*
X3821023Y-1426413D01*
X3825036Y-1422400D01*
X3825036Y-1376375D01*
X3821023Y-1372412D01*
G37*
G36*
X2730652Y-1372412D02*
G01*
X2726639Y-1376375D01*
X2726639Y-1422400D01*
X2730652Y-1426413D01*
X2788513Y-1426413D01*
X2792526Y-1422400D01*
X2792526Y-1376375D01*
X2788513Y-1372412D01*
G37*
G36*
X2836113Y-1372412D02*
G01*
X2832100Y-1376375D01*
X2832100Y-1422400D01*
X2836113Y-1426413D01*
X2893974Y-1426413D01*
X2897936Y-1422400D01*
X2897936Y-1376375D01*
X2893974Y-1372412D01*
G37*
G36*
X-309473Y1768500D02*
G01*
X-313486Y1764487D01*
X-313486Y1706676D01*
X-309473Y1702663D01*
X-263499Y1702663D01*
X-259486Y1706676D01*
X-259486Y1764487D01*
X-263499Y1768500D01*
G37*
G36*
X-309473Y1873961D02*
G01*
X-313486Y1869948D01*
X-313486Y1812086D01*
X-309473Y1808124D01*
X-263499Y1808124D01*
X-259486Y1812086D01*
X-259486Y1869948D01*
X-263499Y1873961D01*
G37*
G36*
X414426Y1895500D02*
G01*
X410413Y1891487D01*
X410413Y1833676D01*
X414426Y1829663D01*
X460400Y1829663D01*
X464413Y1833676D01*
X464413Y1891487D01*
X460400Y1895500D01*
G37*
G36*
X414426Y2000961D02*
G01*
X410413Y1996948D01*
X410413Y1939086D01*
X414426Y1935124D01*
X460400Y1935124D01*
X464413Y1939086D01*
X464413Y1996948D01*
X460400Y2000961D01*
G37*
G36*
X-600405Y564997D02*
G01*
X-603554Y564591D01*
X-605078Y564134D01*
X-608634Y562305D01*
X-610463Y560730D01*
X-612038Y558952D01*
X-613664Y556209D01*
X-614629Y553161D01*
X-614883Y551586D01*
X-614984Y449224D01*
X-614476Y446074D01*
X-613664Y443788D01*
X-612038Y441045D01*
X-609244Y438200D01*
X-605840Y436168D01*
X-602792Y435254D01*
X-600405Y435000D01*
X-597204Y435254D01*
X-594156Y436168D01*
X-592023Y437286D01*
X-590092Y438708D01*
X-588416Y440435D01*
X-587044Y442366D01*
X-585724Y445312D01*
X-585165Y447598D01*
X-585012Y449224D01*
X-585063Y551586D01*
X-585724Y554736D01*
X-586333Y556209D01*
X-587959Y558952D01*
X-590702Y561797D01*
X-594156Y563829D01*
X-597204Y564743D01*
G37*
G36*
X-350418Y564997D02*
G01*
X-353568Y564591D01*
X-355092Y564134D01*
X-358648Y562305D01*
X-360476Y560730D01*
X-362051Y558952D01*
X-363677Y556209D01*
X-364642Y553161D01*
X-364896Y551586D01*
X-364998Y449224D01*
X-364490Y446074D01*
X-363677Y443788D01*
X-362051Y441045D01*
X-359257Y438200D01*
X-355854Y436168D01*
X-352806Y435254D01*
X-350418Y435000D01*
X-347218Y435254D01*
X-344170Y436168D01*
X-342036Y437286D01*
X-340106Y438708D01*
X-338429Y440435D01*
X-337058Y442366D01*
X-335737Y445312D01*
X-335178Y447598D01*
X-335026Y449224D01*
X-335076Y551586D01*
X-335737Y554736D01*
X-336346Y556209D01*
X-337972Y558952D01*
X-340715Y561797D01*
X-344170Y563829D01*
X-347218Y564743D01*
G37*
G36*
X-450392Y564997D02*
G01*
X-453542Y564591D01*
X-455066Y564134D01*
X-458622Y562305D01*
X-461568Y559562D01*
X-462940Y557631D01*
X-464464Y553974D01*
X-464972Y550824D01*
X-464921Y448411D01*
X-464667Y446836D01*
X-463651Y443788D01*
X-462026Y441045D01*
X-459282Y438200D01*
X-457250Y436880D01*
X-453542Y435457D01*
X-450392Y435000D01*
X-447243Y435254D01*
X-444195Y436168D01*
X-442722Y436880D01*
X-439521Y439267D01*
X-437946Y441045D01*
X-436321Y443788D01*
X-435508Y446074D01*
X-435000Y449224D01*
X-435101Y551586D01*
X-435762Y554736D01*
X-437083Y557631D01*
X-437946Y558952D01*
X-440740Y561797D01*
X-442722Y563118D01*
X-445668Y564388D01*
X-448818Y564946D01*
G37*
G36*
X-550418Y564997D02*
G01*
X-553567Y564591D01*
X-555091Y564134D01*
X-558647Y562305D01*
X-560476Y560730D01*
X-562051Y558952D01*
X-563676Y556209D01*
X-564642Y553161D01*
X-564896Y551586D01*
X-564997Y449224D01*
X-564489Y446074D01*
X-563676Y443788D01*
X-562051Y441045D01*
X-559257Y438200D01*
X-555853Y436168D01*
X-551992Y435152D01*
X-548792Y435051D01*
X-547217Y435254D01*
X-544169Y436168D01*
X-542036Y437286D01*
X-540105Y438708D01*
X-538429Y440435D01*
X-537057Y442366D01*
X-535736Y445312D01*
X-535178Y447598D01*
X-535025Y449224D01*
X-535076Y551586D01*
X-535736Y554736D01*
X-536346Y556209D01*
X-537972Y558952D01*
X-540715Y561797D01*
X-544169Y563829D01*
X-547217Y564743D01*
G37*
G36*
X-250393Y564997D02*
G01*
X-253542Y564591D01*
X-255117Y564134D01*
X-258622Y562305D01*
X-261569Y559562D01*
X-262940Y557631D01*
X-264464Y553974D01*
X-264972Y550824D01*
X-264922Y448411D01*
X-264668Y446836D01*
X-263652Y443788D01*
X-262026Y441045D01*
X-259283Y438200D01*
X-257251Y436880D01*
X-255117Y435914D01*
X-251967Y435152D01*
X-248818Y435051D01*
X-245668Y435660D01*
X-242722Y436880D01*
X-239521Y439267D01*
X-237947Y441045D01*
X-236321Y443788D01*
X-235508Y446074D01*
X-235000Y449224D01*
X-235102Y551586D01*
X-235762Y554736D01*
X-237083Y557631D01*
X-237947Y558952D01*
X-240741Y561797D01*
X-242722Y563118D01*
X-244906Y564134D01*
X-248005Y564896D01*
G37*
G36*
X-400405Y564997D02*
G01*
X-403555Y564591D01*
X-405079Y564134D01*
X-408635Y562305D01*
X-410464Y560730D01*
X-412038Y558952D01*
X-413664Y556209D01*
X-414629Y553161D01*
X-414883Y551586D01*
X-414985Y449224D01*
X-414477Y446074D01*
X-413664Y443788D01*
X-412038Y441045D01*
X-409244Y438200D01*
X-405841Y436168D01*
X-401980Y435152D01*
X-398780Y435051D01*
X-397205Y435254D01*
X-394157Y436168D01*
X-392023Y437286D01*
X-390093Y438708D01*
X-388416Y440435D01*
X-387045Y442366D01*
X-385724Y445312D01*
X-385165Y447598D01*
X-385013Y449224D01*
X-385064Y551586D01*
X-385724Y554736D01*
X-386334Y556209D01*
X-387959Y558952D01*
X-390702Y561797D01*
X-394157Y563829D01*
X-397205Y564743D01*
G37*
G36*
X-500380Y564997D02*
G01*
X-503529Y564591D01*
X-505104Y564134D01*
X-508609Y562305D01*
X-511556Y559562D01*
X-512927Y557631D01*
X-514451Y553974D01*
X-514959Y550824D01*
X-514908Y448411D01*
X-514654Y446836D01*
X-513638Y443788D01*
X-512013Y441045D01*
X-509270Y438200D01*
X-507238Y436880D01*
X-505104Y435914D01*
X-501954Y435152D01*
X-498805Y435051D01*
X-495655Y435660D01*
X-492709Y436880D01*
X-489508Y439267D01*
X-487934Y441045D01*
X-486308Y443788D01*
X-485495Y446074D01*
X-484987Y449224D01*
X-485089Y551586D01*
X-485749Y554736D01*
X-487070Y557631D01*
X-487934Y558952D01*
X-490728Y561797D01*
X-492709Y563118D01*
X-494893Y564134D01*
X-497992Y564896D01*
G37*
G36*
X-100380Y564997D02*
G01*
X-103530Y564591D01*
X-105105Y564134D01*
X-108610Y562305D01*
X-111556Y559562D01*
X-112928Y557631D01*
X-114452Y553974D01*
X-114960Y550824D01*
X-114909Y448411D01*
X-114655Y446836D01*
X-113639Y443788D01*
X-112014Y441045D01*
X-109270Y438200D01*
X-107238Y436880D01*
X-105105Y435914D01*
X-101955Y435152D01*
X-98806Y435051D01*
X-95656Y435660D01*
X-92710Y436880D01*
X-89509Y439267D01*
X-87934Y441045D01*
X-86309Y443788D01*
X-85496Y446074D01*
X-84988Y449224D01*
X-85090Y551586D01*
X-85750Y554736D01*
X-87071Y557631D01*
X-87934Y558952D01*
X-90728Y561797D01*
X-92710Y563118D01*
X-94894Y564134D01*
X-97993Y564896D01*
G37*
G36*
X-200406Y564997D02*
G01*
X-203555Y564591D01*
X-205079Y564134D01*
X-208635Y562305D01*
X-210464Y560730D01*
X-212039Y558952D01*
X-213664Y556209D01*
X-214629Y553161D01*
X-214884Y551586D01*
X-214985Y449224D01*
X-214477Y446074D01*
X-213664Y443788D01*
X-212039Y441045D01*
X-209245Y438200D01*
X-205841Y436168D01*
X-202793Y435254D01*
X-200406Y435000D01*
X-197205Y435254D01*
X-194157Y436168D01*
X-192024Y437286D01*
X-190093Y438708D01*
X-188417Y440435D01*
X-187045Y442366D01*
X-185724Y445312D01*
X-185166Y447598D01*
X-185013Y449224D01*
X-185064Y551586D01*
X-185724Y554736D01*
X-186334Y556209D01*
X-187960Y558952D01*
X-190703Y561797D01*
X-194157Y563829D01*
X-197205Y564743D01*
G37*
G36*
X-300380Y564997D02*
G01*
X-303530Y564591D01*
X-305054Y564134D01*
X-308610Y562305D01*
X-311556Y559562D01*
X-312928Y557631D01*
X-314452Y553974D01*
X-314960Y550824D01*
X-314909Y448411D01*
X-314655Y446836D01*
X-313639Y443788D01*
X-312013Y441045D01*
X-309270Y438200D01*
X-307238Y436880D01*
X-303530Y435457D01*
X-300380Y435000D01*
X-297230Y435254D01*
X-294182Y436168D01*
X-292709Y436880D01*
X-289509Y439267D01*
X-287934Y441045D01*
X-286308Y443788D01*
X-285496Y446074D01*
X-284988Y449224D01*
X-285089Y551586D01*
X-285750Y554736D01*
X-287070Y557631D01*
X-287934Y558952D01*
X-290728Y561797D01*
X-292709Y563118D01*
X-295656Y564388D01*
X-298805Y564946D01*
G37*
G36*
X-150418Y564997D02*
G01*
X-153568Y564591D01*
X-155092Y564134D01*
X-158648Y562305D01*
X-160477Y560730D01*
X-162052Y558952D01*
X-163677Y556209D01*
X-164642Y553161D01*
X-164896Y551586D01*
X-164998Y449224D01*
X-164490Y446074D01*
X-163677Y443788D01*
X-162052Y441045D01*
X-159258Y438200D01*
X-155854Y436168D01*
X-151993Y435152D01*
X-148793Y435051D01*
X-147218Y435254D01*
X-144170Y436168D01*
X-142036Y437286D01*
X-140106Y438708D01*
X-138430Y440435D01*
X-137058Y442366D01*
X-135737Y445312D01*
X-135178Y447598D01*
X-135026Y449224D01*
X-135077Y551586D01*
X-135737Y554736D01*
X-136347Y556209D01*
X-137972Y558952D01*
X-140716Y561797D01*
X-144170Y563829D01*
X-147218Y564743D01*
G37*
G36*
X-750773Y414985D02*
G01*
X-753922Y414477D01*
X-756208Y413664D01*
X-758952Y412038D01*
X-761288Y409905D01*
X-763117Y407263D01*
X-764336Y404317D01*
X-764997Y400405D01*
X-764946Y398830D01*
X-764336Y395681D01*
X-763117Y392734D01*
X-761288Y390144D01*
X-760171Y388975D01*
X-756920Y386689D01*
X-753160Y385318D01*
X-750773Y385013D01*
X-648411Y385114D01*
X-646836Y385318D01*
X-644499Y386029D01*
X-641705Y387502D01*
X-639826Y388975D01*
X-637692Y391363D01*
X-635863Y394919D01*
X-635101Y398018D01*
X-635050Y401218D01*
X-635609Y404317D01*
X-637286Y407974D01*
X-639216Y410464D01*
X-641045Y412038D01*
X-643788Y413664D01*
X-647598Y414832D01*
X-649173Y414985D01*
G37*
G36*
X-50800Y414985D02*
G01*
X-53949Y414477D01*
X-56184Y413664D01*
X-58928Y412038D01*
X-60756Y410464D01*
X-62687Y407974D01*
X-64363Y404317D01*
X-64922Y401218D01*
X-64871Y398018D01*
X-64109Y394919D01*
X-63500Y393446D01*
X-62280Y391363D01*
X-60147Y388975D01*
X-56896Y386689D01*
X-55473Y386029D01*
X-53136Y385318D01*
X-51562Y385114D01*
X50800Y385013D01*
X53949Y385521D01*
X56184Y386334D01*
X58978Y387959D01*
X61823Y390753D01*
X63500Y393446D01*
X64769Y397205D01*
X65024Y399592D01*
X64769Y402793D01*
X63500Y406552D01*
X61823Y409244D01*
X60198Y411022D01*
X56946Y413308D01*
X53187Y414680D01*
X51612Y414934D01*
G37*
G36*
X-557987Y357987D02*
G01*
X-557987Y-58013D01*
X-141986Y-58013D01*
X-141986Y357987D01*
G37*
G36*
X-750773Y364998D02*
G01*
X-753922Y364490D01*
X-756208Y363677D01*
X-758952Y362051D01*
X-761796Y359257D01*
X-763117Y357276D01*
X-764336Y354330D01*
X-764946Y351180D01*
X-764844Y347980D01*
X-764082Y344881D01*
X-762711Y342036D01*
X-761288Y340106D01*
X-759561Y338429D01*
X-756920Y336702D01*
X-754684Y335737D01*
X-752398Y335178D01*
X-750773Y335026D01*
X-648411Y335076D01*
X-645261Y335737D01*
X-643788Y336346D01*
X-641045Y337972D01*
X-639216Y339547D01*
X-637286Y342036D01*
X-635863Y344881D01*
X-635406Y346456D01*
X-635000Y349605D01*
X-635254Y352755D01*
X-636168Y355803D01*
X-636879Y357276D01*
X-638200Y359257D01*
X-639826Y361035D01*
X-643077Y363321D01*
X-644499Y363982D01*
X-648411Y364896D01*
G37*
G36*
X-50800Y364998D02*
G01*
X-53949Y364490D01*
X-56184Y363677D01*
X-58928Y362051D01*
X-60756Y360476D01*
X-62280Y358597D01*
X-63500Y356565D01*
X-64566Y353568D01*
X-64973Y350418D01*
X-64871Y347980D01*
X-64363Y345643D01*
X-63093Y342747D01*
X-61264Y340106D01*
X-59537Y338429D01*
X-57607Y337058D01*
X-53949Y335534D01*
X-50800Y335026D01*
X49987Y334975D01*
X52374Y335178D01*
X54711Y335737D01*
X57607Y337058D01*
X60198Y338988D01*
X61823Y340715D01*
X63144Y342747D01*
X64363Y345643D01*
X64973Y348792D01*
X64871Y351993D01*
X64109Y355092D01*
X62738Y357936D01*
X60198Y361035D01*
X56946Y363321D01*
X55473Y363982D01*
X51612Y364896D01*
G37*
G36*
X-750773Y315010D02*
G01*
X-753922Y314502D01*
X-756208Y313690D01*
X-758952Y312064D01*
X-761796Y309270D01*
X-763117Y307289D01*
X-764336Y304342D01*
X-764946Y301193D01*
X-764844Y297992D01*
X-764082Y294894D01*
X-762711Y292049D01*
X-761288Y290118D01*
X-759561Y288442D01*
X-756920Y286715D01*
X-754684Y285750D01*
X-752398Y285191D01*
X-750773Y285038D01*
X-648411Y285089D01*
X-645261Y285750D01*
X-643788Y286359D01*
X-641045Y287985D01*
X-639216Y289560D01*
X-637286Y292049D01*
X-635863Y294894D01*
X-635406Y296468D01*
X-635000Y299618D01*
X-635101Y302006D01*
X-635863Y305104D01*
X-637692Y308610D01*
X-639216Y310489D01*
X-642366Y312928D01*
X-643788Y313690D01*
X-646023Y314502D01*
X-649173Y315010D01*
G37*
G36*
X-50800Y315010D02*
G01*
X-53949Y314502D01*
X-56184Y313690D01*
X-58928Y312064D01*
X-60756Y310489D01*
X-62280Y308610D01*
X-63500Y306578D01*
X-64566Y303580D01*
X-64871Y302006D01*
X-64973Y299618D01*
X-64566Y296468D01*
X-63500Y293420D01*
X-61772Y290728D01*
X-60756Y289560D01*
X-58928Y287985D01*
X-56184Y286359D01*
X-53136Y285343D01*
X-49987Y284988D01*
X51612Y285089D01*
X53187Y285343D01*
X56946Y286715D01*
X59588Y288442D01*
X61315Y290118D01*
X63500Y293420D01*
X64566Y296468D01*
X65024Y299618D01*
X64769Y302768D01*
X63144Y307289D01*
X60756Y310489D01*
X58978Y312064D01*
X56184Y313690D01*
X53949Y314502D01*
X50800Y315010D01*
G37*
G36*
X-750773Y264972D02*
G01*
X-753922Y264464D01*
X-756208Y263652D01*
X-758952Y262026D01*
X-760171Y261010D01*
X-762711Y257962D01*
X-763828Y255828D01*
X-764743Y252780D01*
X-764997Y249580D01*
X-764743Y247192D01*
X-763828Y244144D01*
X-762711Y242011D01*
X-760730Y239521D01*
X-758952Y237947D01*
X-756208Y236321D01*
X-753922Y235508D01*
X-750773Y235000D01*
X-648411Y235102D01*
X-646836Y235305D01*
X-644499Y236016D01*
X-641705Y237490D01*
X-639826Y238963D01*
X-637692Y241350D01*
X-635863Y244906D01*
X-635101Y248005D01*
X-635050Y251206D01*
X-635609Y254304D01*
X-637286Y257962D01*
X-639216Y260451D01*
X-641045Y262026D01*
X-643788Y263652D01*
X-647598Y264820D01*
X-649173Y264972D01*
G37*
G36*
X-50800Y264972D02*
G01*
X-53949Y264464D01*
X-56184Y263652D01*
X-58928Y262026D01*
X-60756Y260451D01*
X-62687Y257962D01*
X-64363Y254304D01*
X-64922Y251206D01*
X-64871Y248005D01*
X-64109Y244906D01*
X-63500Y243433D01*
X-62280Y241350D01*
X-60147Y238963D01*
X-56896Y236677D01*
X-55473Y236016D01*
X-53136Y235305D01*
X-51562Y235102D01*
X50800Y235000D01*
X53949Y235508D01*
X56184Y236321D01*
X58978Y237947D01*
X61823Y240741D01*
X63500Y243433D01*
X64769Y247192D01*
X65024Y249580D01*
X64769Y252780D01*
X63500Y256540D01*
X61823Y259232D01*
X60198Y261010D01*
X57607Y262940D01*
X53949Y264464D01*
X50800Y264972D01*
G37*
G36*
X-750773Y214985D02*
G01*
X-753922Y214477D01*
X-756208Y213664D01*
X-758952Y212039D01*
X-761288Y209905D01*
X-762711Y207975D01*
X-763828Y205841D01*
X-764743Y202793D01*
X-764997Y199593D01*
X-764743Y197205D01*
X-763828Y194157D01*
X-761796Y190754D01*
X-758952Y187960D01*
X-756208Y186334D01*
X-753922Y185521D01*
X-751586Y185064D01*
X-649173Y185013D01*
X-646023Y185521D01*
X-643788Y186334D01*
X-641045Y187960D01*
X-639216Y189534D01*
X-637286Y192074D01*
X-636168Y194157D01*
X-635254Y197205D01*
X-635000Y200406D01*
X-635406Y203555D01*
X-635863Y205079D01*
X-637692Y208635D01*
X-639826Y211023D01*
X-642366Y212953D01*
X-644499Y213969D01*
X-646836Y214680D01*
X-648411Y214934D01*
G37*
G36*
X-50800Y214985D02*
G01*
X-53949Y214477D01*
X-56184Y213664D01*
X-58928Y212039D01*
X-60756Y210464D01*
X-62687Y207975D01*
X-64363Y204317D01*
X-64922Y201218D01*
X-64871Y198018D01*
X-64109Y194919D01*
X-62687Y192074D01*
X-60756Y189534D01*
X-57607Y187096D01*
X-56184Y186334D01*
X-53949Y185521D01*
X-50800Y185013D01*
X51612Y185064D01*
X55473Y186029D01*
X58318Y187502D01*
X60198Y188976D01*
X62280Y191363D01*
X63804Y194157D01*
X64363Y195681D01*
X64973Y198831D01*
X64871Y201980D01*
X64363Y204317D01*
X63144Y207264D01*
X61823Y209296D01*
X60198Y211023D01*
X56946Y213309D01*
X53187Y214680D01*
X51612Y214934D01*
G37*
G36*
X-750773Y164998D02*
G01*
X-753922Y164490D01*
X-756208Y163677D01*
X-758952Y162052D01*
X-761796Y159258D01*
X-763117Y157276D01*
X-764336Y154330D01*
X-764946Y151180D01*
X-764844Y147980D01*
X-764082Y144881D01*
X-762711Y142036D01*
X-761288Y140106D01*
X-759561Y138430D01*
X-756920Y136702D01*
X-754684Y135737D01*
X-752398Y135178D01*
X-750773Y135026D01*
X-648411Y135077D01*
X-645261Y135737D01*
X-643788Y136347D01*
X-641045Y137972D01*
X-639216Y139547D01*
X-637286Y142036D01*
X-635863Y144881D01*
X-635406Y146456D01*
X-635000Y149606D01*
X-635101Y151993D01*
X-635863Y155092D01*
X-637692Y158597D01*
X-639216Y160477D01*
X-642366Y162915D01*
X-643788Y163677D01*
X-646023Y164490D01*
X-649173Y164998D01*
G37*
G36*
X-50800Y164998D02*
G01*
X-53949Y164490D01*
X-56184Y163677D01*
X-58928Y162052D01*
X-60756Y160477D01*
X-62280Y158597D01*
X-63500Y156565D01*
X-64566Y153568D01*
X-64871Y151993D01*
X-64973Y149606D01*
X-64566Y146456D01*
X-63500Y143408D01*
X-61772Y140716D01*
X-60756Y139547D01*
X-58928Y137972D01*
X-56184Y136347D01*
X-53136Y135331D01*
X-49987Y134975D01*
X51612Y135077D01*
X53187Y135331D01*
X56946Y136702D01*
X59588Y138430D01*
X61315Y140106D01*
X63500Y143408D01*
X64566Y146456D01*
X65024Y149606D01*
X64769Y152755D01*
X63144Y157276D01*
X60756Y160477D01*
X58978Y162052D01*
X56184Y163677D01*
X53949Y164490D01*
X50800Y164998D01*
G37*
G36*
X-750773Y115011D02*
G01*
X-753922Y114503D01*
X-756208Y113690D01*
X-758952Y112064D01*
X-761796Y109270D01*
X-763117Y107289D01*
X-764336Y104343D01*
X-764946Y101193D01*
X-764844Y97993D01*
X-764082Y94894D01*
X-763117Y92760D01*
X-761796Y90728D01*
X-758952Y87985D01*
X-756208Y86360D01*
X-753160Y85344D01*
X-750011Y84988D01*
X-649173Y85039D01*
X-646023Y85547D01*
X-642366Y87071D01*
X-640435Y88442D01*
X-637692Y91389D01*
X-635863Y94894D01*
X-635406Y96469D01*
X-635000Y99618D01*
X-635101Y102006D01*
X-635863Y105105D01*
X-637692Y108610D01*
X-639216Y110489D01*
X-642366Y112928D01*
X-643788Y113690D01*
X-646023Y114503D01*
X-649173Y115011D01*
G37*
G36*
X-50800Y115011D02*
G01*
X-53949Y114503D01*
X-56184Y113690D01*
X-58928Y112064D01*
X-60756Y110489D01*
X-62280Y108610D01*
X-63500Y106578D01*
X-64566Y103581D01*
X-64871Y102006D01*
X-64973Y99618D01*
X-64566Y96469D01*
X-64109Y94894D01*
X-62687Y92049D01*
X-60756Y89560D01*
X-58928Y87985D01*
X-56184Y86360D01*
X-53136Y85344D01*
X-49987Y84988D01*
X51612Y85090D01*
X53187Y85344D01*
X56946Y86715D01*
X59588Y88442D01*
X61315Y90119D01*
X62738Y92049D01*
X64363Y95656D01*
X64973Y98806D01*
X64871Y102006D01*
X64109Y105105D01*
X62738Y107950D01*
X60198Y111048D01*
X56946Y113334D01*
X55473Y113995D01*
X51612Y114909D01*
G37*
G36*
X-750773Y64973D02*
G01*
X-753922Y64465D01*
X-756208Y63652D01*
X-758952Y62026D01*
X-761288Y59893D01*
X-762711Y57962D01*
X-763828Y55829D01*
X-764743Y52781D01*
X-764997Y49580D01*
X-764743Y47193D01*
X-763828Y44145D01*
X-762711Y42011D01*
X-760730Y39522D01*
X-758952Y37947D01*
X-756208Y36322D01*
X-753922Y35509D01*
X-751586Y35052D01*
X-649173Y35001D01*
X-646023Y35509D01*
X-643788Y36322D01*
X-641045Y37947D01*
X-639216Y39522D01*
X-637286Y42011D01*
X-635609Y45669D01*
X-635050Y48818D01*
X-635101Y51968D01*
X-635863Y55067D01*
X-637692Y58623D01*
X-639826Y61010D01*
X-642366Y62941D01*
X-644499Y63957D01*
X-646836Y64668D01*
X-648411Y64922D01*
G37*
G36*
X-50800Y64973D02*
G01*
X-53949Y64465D01*
X-56184Y63652D01*
X-58928Y62026D01*
X-60756Y60452D01*
X-62687Y57962D01*
X-64363Y54305D01*
X-64922Y51206D01*
X-64871Y48006D01*
X-64109Y44907D01*
X-63500Y43434D01*
X-62280Y41351D01*
X-60147Y38963D01*
X-56896Y36677D01*
X-55473Y36017D01*
X-51562Y35052D01*
X50800Y35001D01*
X53949Y35509D01*
X56184Y36322D01*
X58978Y37947D01*
X61823Y40741D01*
X63500Y43434D01*
X64769Y47193D01*
X65024Y49580D01*
X64769Y52781D01*
X63500Y56540D01*
X62738Y57962D01*
X61315Y59893D01*
X58978Y62026D01*
X56184Y63652D01*
X52374Y64820D01*
X50800Y64973D01*
G37*
G36*
X-750773Y14985D02*
G01*
X-752398Y14833D01*
X-754684Y14274D01*
X-758291Y12496D01*
X-760171Y11023D01*
X-762711Y7975D01*
X-763828Y5842D01*
X-764743Y2794D01*
X-764997Y-406D01*
X-764743Y-2794D01*
X-763828Y-5842D01*
X-762711Y-7975D01*
X-760730Y-10464D01*
X-758952Y-12039D01*
X-756208Y-13665D01*
X-753922Y-14478D01*
X-750773Y-14985D01*
X-648411Y-14884D01*
X-646836Y-14681D01*
X-644499Y-13970D01*
X-641705Y-12496D01*
X-639826Y-11023D01*
X-637692Y-8636D01*
X-635863Y-5080D01*
X-635101Y-1981D01*
X-635050Y1219D01*
X-635609Y4318D01*
X-637286Y7975D01*
X-639216Y10464D01*
X-641045Y12039D01*
X-643788Y13665D01*
X-646836Y14681D01*
X-648411Y14935D01*
G37*
G36*
X-50800Y14985D02*
G01*
X-53949Y14478D01*
X-57607Y12954D01*
X-60147Y11023D01*
X-62280Y8636D01*
X-63500Y6553D01*
X-64566Y3556D01*
X-64973Y406D01*
X-64719Y-2794D01*
X-63804Y-5842D01*
X-62687Y-7975D01*
X-60756Y-10464D01*
X-57607Y-12903D01*
X-56184Y-13665D01*
X-53949Y-14478D01*
X-50800Y-14985D01*
X51612Y-14884D01*
X53187Y-14681D01*
X56946Y-13309D01*
X60198Y-11023D01*
X62280Y-8636D01*
X63804Y-5842D01*
X64363Y-4318D01*
X64973Y-1168D01*
X64871Y1981D01*
X64363Y4318D01*
X63144Y7264D01*
X61315Y9906D01*
X58978Y12039D01*
X56184Y13665D01*
X54711Y14274D01*
X52374Y14833D01*
X50800Y14985D01*
G37*
G36*
X-750773Y-35001D02*
G01*
X-753922Y-35509D01*
X-756208Y-36322D01*
X-758952Y-37947D01*
X-761796Y-40741D01*
X-763117Y-42722D01*
X-764336Y-45669D01*
X-764946Y-48818D01*
X-764844Y-52019D01*
X-764082Y-55117D01*
X-763117Y-57251D01*
X-761796Y-59283D01*
X-758952Y-62026D01*
X-756208Y-63652D01*
X-753160Y-64668D01*
X-750011Y-65024D01*
X-649173Y-64973D01*
X-646023Y-64465D01*
X-642366Y-62941D01*
X-640435Y-61569D01*
X-637692Y-58623D01*
X-635863Y-55117D01*
X-635406Y-53543D01*
X-635000Y-50393D01*
X-635254Y-47244D01*
X-636168Y-44196D01*
X-636879Y-42722D01*
X-638200Y-40741D01*
X-639826Y-38963D01*
X-643077Y-36677D01*
X-644499Y-36017D01*
X-648411Y-35102D01*
G37*
G36*
X-50800Y-35001D02*
G01*
X-53949Y-35509D01*
X-56184Y-36322D01*
X-58928Y-37947D01*
X-60756Y-39522D01*
X-62280Y-41402D01*
X-63500Y-43434D01*
X-64566Y-46431D01*
X-64973Y-49580D01*
X-64871Y-52019D01*
X-64363Y-54356D01*
X-63500Y-56540D01*
X-62280Y-58623D01*
X-59537Y-61569D01*
X-57607Y-62941D01*
X-53949Y-64465D01*
X-50800Y-64973D01*
X49987Y-65024D01*
X52374Y-64820D01*
X54711Y-64262D01*
X57607Y-62941D01*
X60198Y-61010D01*
X61823Y-59283D01*
X63144Y-57251D01*
X64109Y-55117D01*
X64871Y-52019D01*
X64973Y-48818D01*
X64363Y-45669D01*
X63144Y-42722D01*
X60756Y-39522D01*
X58978Y-37947D01*
X56184Y-36322D01*
X53949Y-35509D01*
X50800Y-35001D01*
G37*
G36*
X-750773Y-84988D02*
G01*
X-753922Y-85496D01*
X-756208Y-86309D01*
X-758952Y-87934D01*
X-761796Y-90728D01*
X-763117Y-92710D01*
X-764336Y-95656D01*
X-764946Y-98806D01*
X-764844Y-102006D01*
X-764082Y-105105D01*
X-762711Y-107950D01*
X-761288Y-109880D01*
X-759561Y-111556D01*
X-756920Y-113283D01*
X-754684Y-114249D01*
X-752398Y-114808D01*
X-750773Y-114960D01*
X-648411Y-114909D01*
X-645261Y-114249D01*
X-643788Y-113639D01*
X-641045Y-112014D01*
X-639216Y-110439D01*
X-637286Y-107950D01*
X-635863Y-105105D01*
X-635406Y-103530D01*
X-635000Y-100380D01*
X-635101Y-97993D01*
X-635863Y-94894D01*
X-637692Y-91389D01*
X-639216Y-89509D01*
X-642366Y-87071D01*
X-643788Y-86309D01*
X-646023Y-85496D01*
X-649173Y-84988D01*
G37*
G36*
X-50800Y-84988D02*
G01*
X-53949Y-85496D01*
X-56184Y-86309D01*
X-58928Y-87934D01*
X-60756Y-89509D01*
X-62280Y-91389D01*
X-63500Y-93421D01*
X-64566Y-96418D01*
X-64871Y-97993D01*
X-64973Y-100380D01*
X-64566Y-103530D01*
X-63500Y-106578D01*
X-61772Y-109270D01*
X-60756Y-110439D01*
X-58928Y-112014D01*
X-56184Y-113639D01*
X-53136Y-114655D01*
X-49987Y-115011D01*
X51612Y-114909D01*
X53187Y-114655D01*
X56946Y-113283D01*
X59588Y-111556D01*
X61315Y-109880D01*
X63500Y-106578D01*
X64566Y-103530D01*
X65024Y-100380D01*
X64769Y-97231D01*
X63144Y-92710D01*
X60756Y-89509D01*
X58978Y-87934D01*
X56184Y-86309D01*
X53949Y-85496D01*
X50800Y-84988D01*
G37*
G36*
X-250393Y-134975D02*
G01*
X-253542Y-135432D01*
X-255117Y-135890D01*
X-257251Y-136855D01*
X-259283Y-138176D01*
X-262026Y-141020D01*
X-263652Y-143814D01*
X-264261Y-145288D01*
X-264820Y-147624D01*
X-265023Y-150012D01*
X-264922Y-251612D01*
X-264668Y-253187D01*
X-263956Y-255473D01*
X-262940Y-257606D01*
X-261010Y-260146D01*
X-258622Y-262280D01*
X-256540Y-263499D01*
X-254355Y-264363D01*
X-251206Y-264922D01*
X-248005Y-264871D01*
X-244906Y-264109D01*
X-243433Y-263499D01*
X-241401Y-262280D01*
X-239521Y-260756D01*
X-237490Y-258267D01*
X-236016Y-255473D01*
X-235102Y-251612D01*
X-235000Y-149199D01*
X-235508Y-146050D01*
X-236321Y-143814D01*
X-237947Y-141020D01*
X-240741Y-138176D01*
X-242722Y-136855D01*
X-245668Y-135636D01*
X-248818Y-135026D01*
G37*
G36*
X-500380Y-134975D02*
G01*
X-503529Y-135432D01*
X-505104Y-135890D01*
X-507238Y-136855D01*
X-509270Y-138176D01*
X-512013Y-141020D01*
X-513638Y-143814D01*
X-514248Y-145288D01*
X-514807Y-147624D01*
X-515010Y-150012D01*
X-514908Y-251612D01*
X-514654Y-253187D01*
X-513943Y-255473D01*
X-512927Y-257606D01*
X-510997Y-260146D01*
X-508609Y-262280D01*
X-506526Y-263499D01*
X-504342Y-264363D01*
X-501192Y-264922D01*
X-497992Y-264871D01*
X-494893Y-264109D01*
X-493420Y-263499D01*
X-491388Y-262280D01*
X-489508Y-260756D01*
X-487476Y-258267D01*
X-486003Y-255473D01*
X-485089Y-251612D01*
X-484987Y-149199D01*
X-485495Y-146050D01*
X-486308Y-143814D01*
X-487934Y-141020D01*
X-490728Y-138176D01*
X-492709Y-136855D01*
X-495655Y-135636D01*
X-498805Y-135026D01*
G37*
G36*
X-300380Y-134975D02*
G01*
X-303530Y-135432D01*
X-306527Y-136499D01*
X-307949Y-137261D01*
X-309880Y-138684D01*
X-311556Y-140411D01*
X-313283Y-143052D01*
X-314655Y-146812D01*
X-314909Y-148386D01*
X-315010Y-249986D01*
X-314807Y-252374D01*
X-314248Y-254711D01*
X-312928Y-257606D01*
X-310997Y-260146D01*
X-308610Y-262280D01*
X-306527Y-263499D01*
X-303530Y-264566D01*
X-300380Y-264972D01*
X-297230Y-264718D01*
X-294182Y-263804D01*
X-292709Y-263093D01*
X-290728Y-261772D01*
X-288950Y-260146D01*
X-287070Y-257606D01*
X-286308Y-256184D01*
X-285496Y-253949D01*
X-284988Y-250799D01*
X-285089Y-148386D01*
X-286004Y-144526D01*
X-287477Y-141681D01*
X-288950Y-139801D01*
X-292049Y-137261D01*
X-294894Y-135890D01*
X-297992Y-135128D01*
G37*
G36*
X-600405Y-134975D02*
G01*
X-602792Y-135229D01*
X-606552Y-136499D01*
X-609244Y-138176D01*
X-612038Y-141020D01*
X-613664Y-143814D01*
X-614476Y-146050D01*
X-614984Y-149199D01*
X-614883Y-251612D01*
X-613968Y-255473D01*
X-612495Y-258267D01*
X-610463Y-260756D01*
X-606552Y-263499D01*
X-603554Y-264566D01*
X-600405Y-264972D01*
X-597204Y-264718D01*
X-594156Y-263804D01*
X-590702Y-261772D01*
X-588416Y-259588D01*
X-587044Y-257606D01*
X-586028Y-255473D01*
X-585317Y-253187D01*
X-585063Y-251612D01*
X-584962Y-150012D01*
X-585165Y-147624D01*
X-585724Y-145288D01*
X-587044Y-142392D01*
X-588975Y-139801D01*
X-590702Y-138176D01*
X-592734Y-136855D01*
X-595680Y-135636D01*
G37*
G36*
X-100380Y-134975D02*
G01*
X-103530Y-135432D01*
X-105105Y-135890D01*
X-107238Y-136855D01*
X-109270Y-138176D01*
X-112014Y-141020D01*
X-113639Y-143814D01*
X-114249Y-145288D01*
X-114808Y-147624D01*
X-115011Y-150012D01*
X-114909Y-251612D01*
X-114655Y-253187D01*
X-113944Y-255473D01*
X-112928Y-257606D01*
X-110998Y-260146D01*
X-108610Y-262280D01*
X-106527Y-263499D01*
X-104343Y-264363D01*
X-101193Y-264922D01*
X-97993Y-264871D01*
X-94894Y-264109D01*
X-93421Y-263499D01*
X-91389Y-262280D01*
X-89509Y-260756D01*
X-87477Y-258267D01*
X-86004Y-255473D01*
X-85090Y-251612D01*
X-84988Y-149199D01*
X-85496Y-146050D01*
X-86309Y-143814D01*
X-87934Y-141020D01*
X-90728Y-138176D01*
X-92710Y-136855D01*
X-95656Y-135636D01*
X-98806Y-135026D01*
G37*
G36*
X-400405Y-134975D02*
G01*
X-403555Y-135432D01*
X-406552Y-136499D01*
X-409244Y-138176D01*
X-412038Y-141020D01*
X-413664Y-143814D01*
X-414477Y-146050D01*
X-414985Y-149199D01*
X-414883Y-251612D01*
X-413969Y-255473D01*
X-412496Y-258267D01*
X-410464Y-260756D01*
X-406552Y-263499D01*
X-403555Y-264566D01*
X-400405Y-264972D01*
X-397205Y-264718D01*
X-394157Y-263804D01*
X-390702Y-261772D01*
X-388416Y-259588D01*
X-387045Y-257606D01*
X-386029Y-255473D01*
X-385318Y-253187D01*
X-385064Y-251612D01*
X-385013Y-149199D01*
X-385165Y-147624D01*
X-385724Y-145288D01*
X-387045Y-142392D01*
X-388975Y-139801D01*
X-390702Y-138176D01*
X-392734Y-136855D01*
X-395681Y-135636D01*
G37*
G36*
X-200406Y-134975D02*
G01*
X-202793Y-135229D01*
X-206552Y-136499D01*
X-209245Y-138176D01*
X-212039Y-141020D01*
X-213664Y-143814D01*
X-214477Y-146050D01*
X-214985Y-149199D01*
X-214884Y-251612D01*
X-213969Y-255473D01*
X-212496Y-258267D01*
X-210464Y-260756D01*
X-206552Y-263499D01*
X-203555Y-264566D01*
X-200406Y-264972D01*
X-197205Y-264718D01*
X-194157Y-263804D01*
X-190703Y-261772D01*
X-188417Y-259588D01*
X-187045Y-257606D01*
X-186029Y-255473D01*
X-185318Y-253187D01*
X-185064Y-251612D01*
X-184962Y-150012D01*
X-185166Y-147624D01*
X-185724Y-145288D01*
X-187045Y-142392D01*
X-188976Y-139801D01*
X-190703Y-138176D01*
X-192735Y-136855D01*
X-195681Y-135636D01*
G37*
G36*
X-450392Y-134975D02*
G01*
X-453542Y-135432D01*
X-456539Y-136499D01*
X-457962Y-137261D01*
X-459892Y-138684D01*
X-461568Y-140411D01*
X-463296Y-143052D01*
X-464667Y-146812D01*
X-464921Y-148386D01*
X-465023Y-249986D01*
X-464820Y-252374D01*
X-464261Y-254711D01*
X-462940Y-257606D01*
X-461009Y-260146D01*
X-458622Y-262280D01*
X-456539Y-263499D01*
X-453542Y-264566D01*
X-450392Y-264972D01*
X-447243Y-264718D01*
X-444195Y-263804D01*
X-442722Y-263093D01*
X-440740Y-261772D01*
X-438962Y-260146D01*
X-437083Y-257606D01*
X-436321Y-256184D01*
X-435508Y-253949D01*
X-435000Y-250799D01*
X-435101Y-148386D01*
X-436016Y-144526D01*
X-437489Y-141681D01*
X-438962Y-139801D01*
X-442061Y-137261D01*
X-444906Y-135890D01*
X-448005Y-135128D01*
G37*
G36*
X-350418Y-134975D02*
G01*
X-352806Y-135229D01*
X-356565Y-136499D01*
X-359257Y-138176D01*
X-362051Y-141020D01*
X-363677Y-143814D01*
X-364490Y-146050D01*
X-364998Y-149199D01*
X-364896Y-251612D01*
X-363982Y-255473D01*
X-362508Y-258267D01*
X-360476Y-260756D01*
X-356565Y-263499D01*
X-353568Y-264566D01*
X-350418Y-264972D01*
X-347218Y-264718D01*
X-344170Y-263804D01*
X-340715Y-261772D01*
X-338429Y-259588D01*
X-337058Y-257606D01*
X-336042Y-255473D01*
X-335330Y-253187D01*
X-335076Y-251612D01*
X-334975Y-150012D01*
X-335178Y-147624D01*
X-335737Y-145288D01*
X-337058Y-142392D01*
X-338988Y-139801D01*
X-340715Y-138176D01*
X-342747Y-136855D01*
X-345694Y-135636D01*
G37*
G36*
X-150418Y-134975D02*
G01*
X-153568Y-135432D01*
X-156565Y-136499D01*
X-159258Y-138176D01*
X-162052Y-141020D01*
X-163677Y-143814D01*
X-164490Y-146050D01*
X-164998Y-149199D01*
X-164896Y-251612D01*
X-163982Y-255473D01*
X-162509Y-258267D01*
X-160477Y-260756D01*
X-156565Y-263499D01*
X-153568Y-264566D01*
X-150418Y-264972D01*
X-147218Y-264718D01*
X-144170Y-263804D01*
X-140716Y-261772D01*
X-138430Y-259588D01*
X-137058Y-257606D01*
X-136042Y-255473D01*
X-135331Y-253187D01*
X-135077Y-251612D01*
X-135026Y-149199D01*
X-135178Y-147624D01*
X-135737Y-145288D01*
X-137058Y-142392D01*
X-138988Y-139801D01*
X-140716Y-138176D01*
X-142748Y-136855D01*
X-145694Y-135636D01*
G37*
G36*
X-550418Y-134975D02*
G01*
X-553567Y-135432D01*
X-556564Y-136499D01*
X-559257Y-138176D01*
X-562051Y-141020D01*
X-563676Y-143814D01*
X-564489Y-146050D01*
X-564997Y-149199D01*
X-564896Y-251612D01*
X-563981Y-255473D01*
X-562508Y-258267D01*
X-560476Y-260756D01*
X-556564Y-263499D01*
X-553567Y-264566D01*
X-550418Y-264972D01*
X-547217Y-264718D01*
X-544169Y-263804D01*
X-540715Y-261772D01*
X-538429Y-259588D01*
X-537057Y-257606D01*
X-536041Y-255473D01*
X-535330Y-253187D01*
X-535076Y-251612D01*
X-535025Y-149199D01*
X-535178Y-147624D01*
X-535736Y-145288D01*
X-537057Y-142392D01*
X-538988Y-139801D01*
X-540715Y-138176D01*
X-542747Y-136855D01*
X-545693Y-135636D01*
G37*
G36*
X1797964Y-1535074D02*
G01*
X1793951Y-1539087D01*
X1793951Y-1585112D01*
X1797964Y-1589074D01*
X1855774Y-1589074D01*
X1859788Y-1585112D01*
X1859788Y-1539087D01*
X1855774Y-1535074D01*
G37*
G36*
X1903374Y-1535074D02*
G01*
X1899412Y-1539087D01*
X1899412Y-1585112D01*
X1903374Y-1589074D01*
X1961235Y-1589074D01*
X1965248Y-1585112D01*
X1965248Y-1539087D01*
X1961235Y-1535074D01*
G37*
G36*
X1887626Y-1857400D02*
G01*
X1883613Y-1861362D01*
X1883613Y-1911451D01*
X1887626Y-1915464D01*
X1933600Y-1915464D01*
X1937613Y-1911451D01*
X1937613Y-1861362D01*
X1933600Y-1857400D01*
G37*
G36*
X1887626Y-1772310D02*
G01*
X1883613Y-1776323D01*
X1883613Y-1826412D01*
X1887626Y-1830374D01*
X1933600Y-1830374D01*
X1937613Y-1826412D01*
X1937613Y-1776323D01*
X1933600Y-1772310D01*
G37*
G36*
X-118465Y-775309D02*
G01*
X-123494Y-780288D01*
X-123494Y-828294D01*
X-118465Y-835304D01*
X-73507Y-835304D01*
X-68478Y-828294D01*
X-68478Y-780288D01*
X-73507Y-775309D01*
G37*
G36*
X-118465Y-871270D02*
G01*
X-123494Y-878281D01*
X-123494Y-926287D01*
X-118465Y-931265D01*
X-73507Y-931265D01*
X-68478Y-926287D01*
X-68478Y-878281D01*
X-73507Y-871270D01*
G37*
G36*
X1160932Y-254304D02*
G01*
X1153922Y-259283D01*
X1153922Y-304292D01*
X1160932Y-309270D01*
X1208887Y-309270D01*
X1213916Y-304292D01*
X1213916Y-259283D01*
X1208887Y-254304D01*
G37*
G36*
X1062888Y-254304D02*
G01*
X1057910Y-259283D01*
X1057910Y-304292D01*
X1062888Y-309270D01*
X1110894Y-309270D01*
X1117904Y-304292D01*
X1117904Y-259283D01*
X1110894Y-254304D01*
G37*
G36*
X782726Y-295300D02*
G01*
X778713Y-299313D01*
X778713Y-349351D01*
X782726Y-353364D01*
X828700Y-353364D01*
X832713Y-349351D01*
X832713Y-299313D01*
X828700Y-295300D01*
G37*
G36*
X782726Y-210210D02*
G01*
X778713Y-214223D01*
X778713Y-264312D01*
X782726Y-268274D01*
X828700Y-268274D01*
X832713Y-264312D01*
X832713Y-214223D01*
X828700Y-210210D01*
G37*
G36*
X788924Y-394512D02*
G01*
X784961Y-398475D01*
X784961Y-444500D01*
X788924Y-448513D01*
X839012Y-448513D01*
X843026Y-444500D01*
X843026Y-398475D01*
X839012Y-394512D01*
G37*
G36*
X874014Y-394512D02*
G01*
X870000Y-398475D01*
X870000Y-444500D01*
X874014Y-448513D01*
X924052Y-448513D01*
X928065Y-444500D01*
X928065Y-398475D01*
X924052Y-394512D01*
G37*
G36*
X1382014Y-254812D02*
G01*
X1378000Y-258775D01*
X1378000Y-304800D01*
X1382014Y-308813D01*
X1432052Y-308813D01*
X1436065Y-304800D01*
X1436065Y-258775D01*
X1432052Y-254812D01*
G37*
G36*
X1296924Y-254812D02*
G01*
X1292961Y-258775D01*
X1292961Y-304800D01*
X1296924Y-308813D01*
X1347012Y-308813D01*
X1351026Y-304800D01*
X1351026Y-258775D01*
X1347012Y-254812D01*
G37*
G36*
X353314Y735787D02*
G01*
X349300Y731824D01*
X349300Y685800D01*
X353314Y681786D01*
X403352Y681786D01*
X407365Y685800D01*
X407365Y731824D01*
X403352Y735787D01*
G37*
G36*
X268224Y735787D02*
G01*
X264261Y731824D01*
X264261Y685800D01*
X268224Y681786D01*
X318312Y681786D01*
X322326Y685800D01*
X322326Y731824D01*
X318312Y735787D01*
G37*
G36*
X77724Y735787D02*
G01*
X73761Y731824D01*
X73761Y685800D01*
X77724Y681786D01*
X127812Y681786D01*
X131826Y685800D01*
X131826Y731824D01*
X127812Y735787D01*
G37*
G36*
X162814Y735787D02*
G01*
X158800Y731824D01*
X158800Y685800D01*
X162814Y681786D01*
X212852Y681786D01*
X216865Y685800D01*
X216865Y731824D01*
X212852Y735787D01*
G37*
G36*
X490626Y945489D02*
G01*
X486613Y941476D01*
X486613Y891387D01*
X490626Y887425D01*
X536600Y887425D01*
X540613Y891387D01*
X540613Y941476D01*
X536600Y945489D01*
G37*
G36*
X490626Y860399D02*
G01*
X486613Y856386D01*
X486613Y806348D01*
X490626Y802335D01*
X536600Y802335D01*
X540613Y806348D01*
X540613Y856386D01*
X536600Y860399D01*
G37*
G36*
X20726Y936599D02*
G01*
X16713Y932586D01*
X16713Y882548D01*
X20726Y878535D01*
X66700Y878535D01*
X70713Y882548D01*
X70713Y932586D01*
X66700Y936599D01*
G37*
G36*
X20726Y1021689D02*
G01*
X16713Y1017676D01*
X16713Y967587D01*
X20726Y963625D01*
X66700Y963625D01*
X70713Y967587D01*
X70713Y1017676D01*
X66700Y1021689D01*
G37*
G36*
X-745388Y-1326083D02*
G01*
X-751332Y-1326540D01*
X-757224Y-1327607D01*
X-763016Y-1329232D01*
X-768553Y-1331366D01*
X-773887Y-1334109D01*
X-778916Y-1337360D01*
X-783590Y-1341120D01*
X-787857Y-1345285D01*
X-791718Y-1349857D01*
X-795070Y-1354785D01*
X-797966Y-1360068D01*
X-800252Y-1365554D01*
X-802030Y-1371295D01*
X-803198Y-1377137D01*
X-803808Y-1383080D01*
X-803910Y-1466088D01*
X-803605Y-1472031D01*
X-802690Y-1477975D01*
X-801217Y-1483766D01*
X-799185Y-1489405D01*
X-796594Y-1494790D01*
X-793445Y-1499870D01*
X-789838Y-1504645D01*
X-785774Y-1509014D01*
X-781304Y-1512976D01*
X-776427Y-1516481D01*
X-771245Y-1519478D01*
X-765810Y-1521917D01*
X-760120Y-1523847D01*
X-754329Y-1525168D01*
X-748385Y-1525930D01*
X-742391Y-1526082D01*
X-736447Y-1525625D01*
X-730554Y-1524558D01*
X-724763Y-1522933D01*
X-719226Y-1520799D01*
X-713892Y-1518056D01*
X-708863Y-1514805D01*
X-704189Y-1511046D01*
X-699922Y-1506880D01*
X-696061Y-1502308D01*
X-692708Y-1497380D01*
X-689813Y-1492097D01*
X-687527Y-1486611D01*
X-685749Y-1480870D01*
X-684580Y-1475028D01*
X-683971Y-1469085D01*
X-683869Y-1386078D01*
X-684174Y-1380134D01*
X-685088Y-1374190D01*
X-686562Y-1368399D01*
X-688594Y-1362760D01*
X-691184Y-1357376D01*
X-694334Y-1352296D01*
X-697941Y-1347520D01*
X-702005Y-1343152D01*
X-706475Y-1339189D01*
X-711352Y-1335684D01*
X-716534Y-1332687D01*
X-721969Y-1330248D01*
X-727659Y-1328318D01*
X-733450Y-1326997D01*
X-739394Y-1326235D01*
G37*
G36*
X118618Y-1326083D02*
G01*
X112674Y-1326540D01*
X106781Y-1327607D01*
X100990Y-1329232D01*
X95453Y-1331366D01*
X90119Y-1334109D01*
X85090Y-1337360D01*
X80416Y-1341120D01*
X76149Y-1345285D01*
X72288Y-1349857D01*
X68935Y-1354785D01*
X66040Y-1360068D01*
X63754Y-1365554D01*
X61976Y-1371295D01*
X60807Y-1377137D01*
X60198Y-1383080D01*
X60096Y-1466088D01*
X60401Y-1472031D01*
X61315Y-1477975D01*
X62788Y-1483766D01*
X64820Y-1489405D01*
X67411Y-1494790D01*
X70561Y-1499870D01*
X74168Y-1504645D01*
X78232Y-1509014D01*
X82702Y-1512976D01*
X87579Y-1516481D01*
X92760Y-1519478D01*
X98196Y-1521917D01*
X103885Y-1523847D01*
X109677Y-1525168D01*
X115620Y-1525930D01*
X121615Y-1526082D01*
X127558Y-1525625D01*
X133451Y-1524558D01*
X139242Y-1522933D01*
X144780Y-1520799D01*
X150114Y-1518056D01*
X155143Y-1514805D01*
X159816Y-1511046D01*
X164084Y-1506880D01*
X167944Y-1502308D01*
X171297Y-1497380D01*
X174193Y-1492097D01*
X176479Y-1486611D01*
X178257Y-1480870D01*
X179425Y-1475028D01*
X180035Y-1469085D01*
X180136Y-1386078D01*
X179832Y-1380134D01*
X178917Y-1374190D01*
X177444Y-1368399D01*
X175412Y-1362760D01*
X172821Y-1357376D01*
X169672Y-1352296D01*
X166065Y-1347520D01*
X162001Y-1343152D01*
X157530Y-1339189D01*
X152654Y-1335684D01*
X147472Y-1332687D01*
X142036Y-1330248D01*
X136347Y-1328318D01*
X130556Y-1326997D01*
X124612Y-1326235D01*
G37*
G36*
X-745388Y-1754124D02*
G01*
X-751332Y-1754581D01*
X-757224Y-1755597D01*
X-763016Y-1757222D01*
X-768553Y-1759407D01*
X-773887Y-1762150D01*
X-778916Y-1765350D01*
X-783590Y-1769110D01*
X-787857Y-1773275D01*
X-791718Y-1777847D01*
X-795070Y-1782825D01*
X-797966Y-1788058D01*
X-800252Y-1793544D01*
X-802030Y-1799285D01*
X-803198Y-1805127D01*
X-803808Y-1811121D01*
X-803910Y-1874113D01*
X-803605Y-1880057D01*
X-802690Y-1886000D01*
X-801217Y-1891792D01*
X-799185Y-1897380D01*
X-796594Y-1902764D01*
X-793445Y-1907895D01*
X-789838Y-1912670D01*
X-785774Y-1917039D01*
X-781304Y-1921002D01*
X-776427Y-1924507D01*
X-771245Y-1927504D01*
X-765810Y-1929942D01*
X-760120Y-1931873D01*
X-754329Y-1933193D01*
X-748385Y-1933905D01*
X-742391Y-1934057D01*
X-736447Y-1933600D01*
X-730554Y-1932584D01*
X-724763Y-1930958D01*
X-719226Y-1928774D01*
X-713892Y-1926031D01*
X-708863Y-1922830D01*
X-704189Y-1919071D01*
X-699922Y-1914906D01*
X-696061Y-1910334D01*
X-692708Y-1905355D01*
X-689813Y-1900123D01*
X-687527Y-1894586D01*
X-685749Y-1888896D01*
X-684580Y-1883054D01*
X-683971Y-1877060D01*
X-683869Y-1814118D01*
X-684174Y-1808124D01*
X-685088Y-1802180D01*
X-686562Y-1796389D01*
X-688594Y-1790801D01*
X-691184Y-1785416D01*
X-694334Y-1780286D01*
X-697941Y-1775510D01*
X-702005Y-1771142D01*
X-706475Y-1767179D01*
X-711352Y-1763674D01*
X-716534Y-1760677D01*
X-721969Y-1758238D01*
X-727659Y-1756308D01*
X-733450Y-1754987D01*
X-739394Y-1754276D01*
G37*
G36*
X118618Y-1754124D02*
G01*
X112674Y-1754581D01*
X106781Y-1755597D01*
X100990Y-1757222D01*
X95453Y-1759407D01*
X90119Y-1762150D01*
X85090Y-1765350D01*
X80416Y-1769110D01*
X76149Y-1773275D01*
X72288Y-1777847D01*
X68935Y-1782825D01*
X66040Y-1788058D01*
X63754Y-1793544D01*
X61976Y-1799285D01*
X60807Y-1805127D01*
X60198Y-1811121D01*
X60096Y-1874113D01*
X60401Y-1880057D01*
X61315Y-1886000D01*
X62788Y-1891792D01*
X64820Y-1897380D01*
X67411Y-1902764D01*
X70561Y-1907895D01*
X74168Y-1912670D01*
X78232Y-1917039D01*
X82702Y-1921002D01*
X87579Y-1924507D01*
X92760Y-1927504D01*
X98196Y-1929942D01*
X103885Y-1931873D01*
X109677Y-1933193D01*
X115620Y-1933905D01*
X121615Y-1934057D01*
X127558Y-1933600D01*
X133451Y-1932584D01*
X139242Y-1930958D01*
X144780Y-1928774D01*
X150114Y-1926031D01*
X155143Y-1922830D01*
X159816Y-1919071D01*
X164084Y-1914906D01*
X167944Y-1910334D01*
X171297Y-1905355D01*
X174193Y-1900123D01*
X176479Y-1894586D01*
X178257Y-1888896D01*
X179425Y-1883054D01*
X180035Y-1877060D01*
X180136Y-1814068D01*
X179832Y-1808124D01*
X178917Y-1802180D01*
X177444Y-1796389D01*
X175412Y-1790801D01*
X172821Y-1785416D01*
X169672Y-1780286D01*
X166065Y-1775510D01*
X162001Y-1771142D01*
X157530Y-1767179D01*
X152654Y-1763674D01*
X147472Y-1760677D01*
X142036Y-1758238D01*
X136347Y-1756308D01*
X130556Y-1754987D01*
X124612Y-1754276D01*
G37*
G36*
X-661873Y-1296060D02*
G01*
X-661873Y-1426057D01*
X-601878Y-1426057D01*
X-601878Y-1296060D01*
G37*
G36*
X-301904Y-1296060D02*
G01*
X-301904Y-1426057D01*
X-271881Y-1426057D01*
X-271881Y-1296060D01*
G37*
G36*
X-401878Y-1296060D02*
G01*
X-401878Y-1426057D01*
X-371906Y-1426057D01*
X-371906Y-1296060D01*
G37*
G36*
X-581863Y-1296060D02*
G01*
X-581863Y-1426057D01*
X-521868Y-1426057D01*
X-521868Y-1296060D01*
G37*
G36*
X-451866Y-1296060D02*
G01*
X-451866Y-1426057D01*
X-421893Y-1426057D01*
X-421893Y-1296060D01*
G37*
G36*
X-21894Y-1296060D02*
G01*
X-21894Y-1426057D01*
X38100Y-1426057D01*
X38100Y-1296060D01*
G37*
G36*
X-351891Y-1296060D02*
G01*
X-351891Y-1426057D01*
X-321868Y-1426057D01*
X-321868Y-1296060D01*
G37*
G36*
X-151892Y-1296060D02*
G01*
X-151892Y-1426057D01*
X-121869Y-1426057D01*
X-121869Y-1296060D01*
G37*
G36*
X-251866Y-1296060D02*
G01*
X-251866Y-1426057D01*
X-221894Y-1426057D01*
X-221894Y-1296060D01*
G37*
G36*
X-201930Y-1296060D02*
G01*
X-201930Y-1426057D01*
X-171907Y-1426057D01*
X-171907Y-1296060D01*
G37*
G36*
X-501904Y-1296060D02*
G01*
X-501904Y-1426057D01*
X-471881Y-1426057D01*
X-471881Y-1296060D01*
G37*
G36*
X-101854Y-1296111D02*
G01*
X-101854Y-1426108D01*
X-41859Y-1426108D01*
X-41859Y-1296111D01*
G37*
G36*
X223926Y-739800D02*
G01*
X219913Y-743813D01*
X219913Y-793851D01*
X223926Y-797864D01*
X269900Y-797864D01*
X273913Y-793851D01*
X273913Y-743813D01*
X269900Y-739800D01*
G37*
G36*
X223926Y-654710D02*
G01*
X219913Y-658723D01*
X219913Y-708812D01*
X223926Y-712774D01*
X269900Y-712774D01*
X273913Y-708812D01*
X273913Y-658723D01*
X269900Y-654710D01*
G37*
G36*
X96926Y-654710D02*
G01*
X92913Y-658723D01*
X92913Y-708812D01*
X96926Y-712774D01*
X142900Y-712774D01*
X146913Y-708812D01*
X146913Y-658723D01*
X142900Y-654710D01*
G37*
G36*
X96926Y-739800D02*
G01*
X92913Y-743813D01*
X92913Y-793851D01*
X96926Y-797864D01*
X142900Y-797864D01*
X146913Y-793851D01*
X146913Y-743813D01*
X142900Y-739800D01*
G37*
G36*
X96926Y-1012799D02*
G01*
X92913Y-1016812D01*
X92913Y-1074623D01*
X96926Y-1078636D01*
X142900Y-1078636D01*
X146913Y-1074623D01*
X146913Y-1016812D01*
X142900Y-1012799D01*
G37*
G36*
X96926Y-907338D02*
G01*
X92913Y-911352D01*
X92913Y-969213D01*
X96926Y-973175D01*
X142900Y-973175D01*
X146913Y-969213D01*
X146913Y-911352D01*
X142900Y-907338D01*
G37*
G36*
X223926Y-1012799D02*
G01*
X219913Y-1016812D01*
X219913Y-1074623D01*
X223926Y-1078636D01*
X269900Y-1078636D01*
X273913Y-1074623D01*
X273913Y-1016812D01*
X269900Y-1012799D01*
G37*
G36*
X223926Y-907338D02*
G01*
X219913Y-911352D01*
X219913Y-969213D01*
X223926Y-973175D01*
X269900Y-973175D01*
X273913Y-969213D01*
X273913Y-911352D01*
X269900Y-907338D01*
G37*
G36*
X1003452Y-394512D02*
G01*
X999439Y-398475D01*
X999439Y-444500D01*
X1003452Y-448513D01*
X1061313Y-448513D01*
X1065326Y-444500D01*
X1065326Y-398475D01*
X1061313Y-394512D01*
G37*
G36*
X1108913Y-394512D02*
G01*
X1104900Y-398475D01*
X1104900Y-444500D01*
X1108913Y-448513D01*
X1166774Y-448513D01*
X1170736Y-444500D01*
X1170736Y-398475D01*
X1166774Y-394512D01*
G37*
D10*
G01*
X-821309Y2108098D03*
G01*
X-821309Y2768092D03*
G01*
X-451281Y2108098D03*
G01*
X-451281Y2768092D03*
G01*
X-827100Y1191615D03*
G01*
X-827100Y1851609D03*
G01*
X-457072Y1191615D03*
G01*
X-457072Y1851609D03*
G01*
X266827Y2118309D03*
G01*
X266827Y1458315D03*
G01*
X-103200Y2118309D03*
G01*
X-103200Y1458315D03*
D11*
G01*
X3815410Y-1927301D03*
G01*
X3155391Y-1927301D03*
G01*
X3815410Y-1557273D03*
G01*
X3155391Y-1557273D03*
G01*
X2901010Y-1927301D03*
G01*
X2241016Y-1927301D03*
G01*
X2901010Y-1557273D03*
G01*
X2241016Y-1557273D03*
D12*
G01*
X437413Y1508099D03*
G01*
X437413Y1408099D03*
G01*
X-286486Y1368399D03*
G01*
X-286486Y1268399D03*
D13*
G01*
X2521000Y-1399387D03*
G01*
X2621000Y-1399387D03*
D12*
G01*
X-286486Y2193899D03*
G01*
X-286486Y2093899D03*
D13*
G01*
X3294100Y-1399387D03*
G01*
X3194100Y-1399387D03*
G01*
X2379700Y-1399387D03*
G01*
X2279700Y-1399387D03*
G01*
X3435400Y-1399387D03*
G01*
X3535400Y-1399387D03*
D12*
G01*
X437413Y1636699D03*
G01*
X437413Y1736699D03*
G01*
X-286486Y1496999D03*
G01*
X-286486Y1596999D03*
G01*
X-286486Y2335199D03*
G01*
X-286486Y2435199D03*
D14*
G01*
X1339113Y-1860118D03*
G01*
X1339113Y-1522856D03*
D11*
G01*
X1846910Y-1241501D03*
G01*
X1186916Y-1241501D03*
G01*
X1846910Y-871473D03*
G01*
X1186916Y-871473D03*
D15*
G01*
X759007Y-1793097D03*
G01*
X1081008Y-1793097D03*
D16*
G01*
X750011Y-1551787D03*
G01*
X1090015Y-1551787D03*
D17*
G01*
X373913Y-1556867D03*
G01*
X373913Y-1876882D03*
D18*
G01*
X-267284Y-928700D03*
G01*
X-267284Y-828700D03*
G01*
X-407288Y-928700D03*
G01*
X-267284Y-878687D03*
G01*
X-407288Y-828700D03*
D12*
G01*
X-476986Y-1082700D03*
G01*
X-476986Y-1182700D03*
G01*
X-184886Y-1082700D03*
G01*
X-184886Y-1182700D03*
G01*
X615213Y-1931974D03*
G01*
X615213Y-1831975D03*
G01*
X-197586Y-562000D03*
G01*
X-197586Y-662000D03*
G01*
X1770913Y-1793900D03*
G01*
X1770913Y-1893900D03*
G01*
X-845286Y-103174D03*
G01*
X-845286Y-3175D03*
D13*
G01*
X195300Y1280312D03*
G01*
X95300Y1280312D03*
G01*
X195300Y1166012D03*
G01*
X95300Y1166012D03*
G01*
X512800Y543712D03*
G01*
X412800Y543712D03*
G01*
X400126Y-205587D03*
G01*
X500126Y-205587D03*
D19*
G01*
X384022Y847013D03*
G01*
X384022Y912012D03*
G01*
X384022Y977011D03*
G01*
X186004Y977011D03*
G01*
X186004Y912012D03*
G01*
X186004Y847013D03*
D20*
G01*
X-178688Y1057478D03*
G01*
X-83693Y807542D03*
G01*
X-273685Y807542D03*
D21*
G01*
X1022211Y-8732D03*
D22*
G01*
X1050499Y-37019D03*
G01*
X1078787Y-65307D03*
D23*
G01*
X1103118Y-93582D03*
D24*
G01*
X1218446Y-65307D03*
G01*
X1246734Y-37019D03*
D25*
G01*
X1275022Y-8732D03*
D22*
G01*
X1275022Y130928D03*
G01*
X1246734Y159216D03*
G01*
X1218446Y187504D03*
D24*
G01*
X1078787Y187504D03*
G01*
X1050499Y159216D03*
G01*
X1022211Y130928D03*
D26*
G01*
X993912Y106615D03*
D27*
G01*
X1194106Y215786D03*
D28*
G01*
X1303298Y15599D03*
D29*
G01*
X1194114Y-93574D03*
D30*
G01*
X1303298Y106597D03*
D31*
G01*
X1103115Y215774D03*
D32*
G01*
X993941Y15603D03*
D33*
G01*
X1723746Y17514D03*
G01*
X1635357Y105901D03*
G01*
X1546970Y194290D03*
G01*
X1458581Y282677D03*
D34*
G01*
X1370194Y371066D03*
D33*
G01*
X1281804Y459454D03*
D34*
G01*
X1193417Y547842D03*
D33*
G01*
X1105028Y636230D03*
D35*
G01*
X2109087Y42257D03*
D36*
G01*
X1129775Y1021605D03*
D12*
G01*
X1618513Y-1793875D03*
G01*
X1618513Y-1893874D03*
D37*
G01*
X496620Y-14605D03*
G01*
X276605Y365404D03*
G01*
X496620Y365404D03*
G01*
X276605Y-14605D03*
D12*
G01*
X-349986Y-562000D03*
G01*
X-349986Y-662000D03*
G01*
X-502386Y-562000D03*
G01*
X-502386Y-662000D03*
D38*
G01*
X462813Y-764387D03*
G01*
X589813Y-764387D03*
G01*
X462813Y-891387D03*
G01*
X589813Y-891387D03*
G01*
X462813Y-1018387D03*
G01*
X589813Y-1018387D03*
M02*
